<?xml version="1.0" encoding="utf-8" standalone="no"?>
<!DOCTYPE svg PUBLIC "-//W3C//DTD SVG 1.1//EN"
  "http://www.w3.org/Graphics/SVG/1.1/DTD/svg11.dtd">
<!-- Created with matplotlib (http://matplotlib.org/) -->
<svg height="592pt" version="1.1" viewBox="0 0 276 592" width="276pt" xmlns="http://www.w3.org/2000/svg" xmlns:xlink="http://www.w3.org/1999/xlink">
 <defs>
  <style type="text/css">
*{stroke-linecap:butt;stroke-linejoin:round;stroke-miterlimit:100000;}
  </style>
 </defs>
 <g id="figure_1">
  <g id="patch_1">
   <path d="M 0 592.852812 
L 276.125 592.852812 
L 276.125 0 
L 0 0 
z
" style="fill:#ffffff;"/>
  </g>
  <g id="axes_1">
   <g id="patch_2">
    <path d="M 7.2 585.652812 
L 146.7 585.652812 
L 146.7 27.652812 
L 7.2 27.652812 
z
" style="fill:#ffffff;"/>
   </g>
   <g id="patch_3">
    <path clip-path="url(#pc51cb85225)" d="M 7.2 585.652812 
L 146.7 585.652812 
L 146.7 541.689176 
L 7.2 541.689176 
z
" style="fill:#0100d5;stroke:#000000;stroke-linejoin:miter;"/>
   </g>
   <g id="patch_4">
    <path clip-path="url(#pc51cb85225)" d="M 7.2 541.689176 
L 146.7 541.689176 
L 146.7 541.689176 
L 7.2 541.689176 
z
" style="fill:#7f7f7f;stroke:#000000;stroke-linejoin:miter;"/>
   </g>
   <g id="patch_5">
    <path clip-path="url(#pc51cb85225)" d="M 7.2 541.689176 
L 146.7 541.689176 
L 146.7 27.652812 
L 7.2 27.652812 
z
" style="fill:#a40000;stroke:#000000;stroke-linejoin:miter;"/>
   </g>
   <g id="patch_6">
    <path d="M 7.2 585.652812 
L 146.7 585.652812 
" style="fill:none;stroke:#000000;stroke-linecap:square;stroke-linejoin:miter;"/>
   </g>
   <g id="matplotlib.axis_1">
    <g id="xtick_1">
     <g id="text_1">
      <!-- AC-P04 -->
      <defs>
       <path d="M 31.78125 66.40625 
Q 24.171875 66.40625 20.328125 58.90625 
Q 16.5 51.421875 16.5 36.375 
Q 16.5 21.390625 20.328125 13.890625 
Q 24.171875 6.390625 31.78125 6.390625 
Q 39.453125 6.390625 43.28125 13.890625 
Q 47.125 21.390625 47.125 36.375 
Q 47.125 51.421875 43.28125 58.90625 
Q 39.453125 66.40625 31.78125 66.40625 
M 31.78125 74.21875 
Q 44.046875 74.21875 50.515625 64.515625 
Q 56.984375 54.828125 56.984375 36.375 
Q 56.984375 17.96875 50.515625 8.265625 
Q 44.046875 -1.421875 31.78125 -1.421875 
Q 19.53125 -1.421875 13.0625 8.265625 
Q 6.59375 17.96875 6.59375 36.375 
Q 6.59375 54.828125 13.0625 64.515625 
Q 19.53125 74.21875 31.78125 74.21875 
" id="BitstreamVeraSans-Roman-30"/>
       <path d="M 37.796875 64.3125 
L 12.890625 25.390625 
L 37.796875 25.390625 
z
M 35.203125 72.90625 
L 47.609375 72.90625 
L 47.609375 25.390625 
L 58.015625 25.390625 
L 58.015625 17.1875 
L 47.609375 17.1875 
L 47.609375 0 
L 37.796875 0 
L 37.796875 17.1875 
L 4.890625 17.1875 
L 4.890625 26.703125 
z
" id="BitstreamVeraSans-Roman-34"/>
       <path d="M 19.671875 64.796875 
L 19.671875 37.40625 
L 32.078125 37.40625 
Q 38.96875 37.40625 42.71875 40.96875 
Q 46.484375 44.53125 46.484375 51.125 
Q 46.484375 57.671875 42.71875 61.234375 
Q 38.96875 64.796875 32.078125 64.796875 
z
M 9.8125 72.90625 
L 32.078125 72.90625 
Q 44.34375 72.90625 50.609375 67.359375 
Q 56.890625 61.8125 56.890625 51.125 
Q 56.890625 40.328125 50.609375 34.8125 
Q 44.34375 29.296875 32.078125 29.296875 
L 19.671875 29.296875 
L 19.671875 0 
L 9.8125 0 
z
" id="BitstreamVeraSans-Roman-50"/>
       <path d="M 64.40625 67.28125 
L 64.40625 56.890625 
Q 59.421875 61.53125 53.78125 63.8125 
Q 48.140625 66.109375 41.796875 66.109375 
Q 29.296875 66.109375 22.65625 58.46875 
Q 16.015625 50.828125 16.015625 36.375 
Q 16.015625 21.96875 22.65625 14.328125 
Q 29.296875 6.6875 41.796875 6.6875 
Q 48.140625 6.6875 53.78125 8.984375 
Q 59.421875 11.28125 64.40625 15.921875 
L 64.40625 5.609375 
Q 59.234375 2.09375 53.4375 0.328125 
Q 47.65625 -1.421875 41.21875 -1.421875 
Q 24.65625 -1.421875 15.125 8.703125 
Q 5.609375 18.84375 5.609375 36.375 
Q 5.609375 53.953125 15.125 64.078125 
Q 24.65625 74.21875 41.21875 74.21875 
Q 47.75 74.21875 53.53125 72.484375 
Q 59.328125 70.75 64.40625 67.28125 
" id="BitstreamVeraSans-Roman-43"/>
       <path d="M 4.890625 31.390625 
L 31.203125 31.390625 
L 31.203125 23.390625 
L 4.890625 23.390625 
z
" id="BitstreamVeraSans-Roman-2d"/>
       <path d="M 34.1875 63.1875 
L 20.796875 26.90625 
L 47.609375 26.90625 
z
M 28.609375 72.90625 
L 39.796875 72.90625 
L 67.578125 0 
L 57.328125 0 
L 50.6875 18.703125 
L 17.828125 18.703125 
L 11.1875 0 
L 0.78125 0 
z
" id="BitstreamVeraSans-Roman-41"/>
      </defs>
      <g transform="translate(46.19328125 20.11734375)scale(0.17 -0.17)">
       <use xlink:href="#BitstreamVeraSans-Roman-41"/>
       <use x="68.392578125" xlink:href="#BitstreamVeraSans-Roman-43"/>
       <use x="138.216796875" xlink:href="#BitstreamVeraSans-Roman-2d"/>
       <use x="174.30078125" xlink:href="#BitstreamVeraSans-Roman-50"/>
       <use x="234.603515625" xlink:href="#BitstreamVeraSans-Roman-30"/>
       <use x="298.2265625" xlink:href="#BitstreamVeraSans-Roman-34"/>
      </g>
     </g>
    </g>
   </g>
   <g id="matplotlib.axis_2">
    <g id="ytick_1">
     <g id="text_2">
      <!-- Primary only -->
      <defs>
       <path id="BitstreamVeraSans-Roman-20"/>
       <path d="M 52 44.1875 
Q 55.375 50.25 60.0625 53.125 
Q 64.75 56 71.09375 56 
Q 79.640625 56 84.28125 50.015625 
Q 88.921875 44.046875 88.921875 33.015625 
L 88.921875 0 
L 79.890625 0 
L 79.890625 32.71875 
Q 79.890625 40.578125 77.09375 44.375 
Q 74.3125 48.1875 68.609375 48.1875 
Q 61.625 48.1875 57.5625 43.546875 
Q 53.515625 38.921875 53.515625 30.90625 
L 53.515625 0 
L 44.484375 0 
L 44.484375 32.71875 
Q 44.484375 40.625 41.703125 44.40625 
Q 38.921875 48.1875 33.109375 48.1875 
Q 26.21875 48.1875 22.15625 43.53125 
Q 18.109375 38.875 18.109375 30.90625 
L 18.109375 0 
L 9.078125 0 
L 9.078125 54.6875 
L 18.109375 54.6875 
L 18.109375 46.1875 
Q 21.1875 51.21875 25.484375 53.609375 
Q 29.78125 56 35.6875 56 
Q 41.65625 56 45.828125 52.96875 
Q 50 49.953125 52 44.1875 
" id="BitstreamVeraSans-Roman-6d"/>
       <path d="M 54.890625 33.015625 
L 54.890625 0 
L 45.90625 0 
L 45.90625 32.71875 
Q 45.90625 40.484375 42.875 44.328125 
Q 39.84375 48.1875 33.796875 48.1875 
Q 26.515625 48.1875 22.3125 43.546875 
Q 18.109375 38.921875 18.109375 30.90625 
L 18.109375 0 
L 9.078125 0 
L 9.078125 54.6875 
L 18.109375 54.6875 
L 18.109375 46.1875 
Q 21.34375 51.125 25.703125 53.5625 
Q 30.078125 56 35.796875 56 
Q 45.21875 56 50.046875 50.171875 
Q 54.890625 44.34375 54.890625 33.015625 
" id="BitstreamVeraSans-Roman-6e"/>
       <path d="M 41.109375 46.296875 
Q 39.59375 47.171875 37.8125 47.578125 
Q 36.03125 48 33.890625 48 
Q 26.265625 48 22.1875 43.046875 
Q 18.109375 38.09375 18.109375 28.8125 
L 18.109375 0 
L 9.078125 0 
L 9.078125 54.6875 
L 18.109375 54.6875 
L 18.109375 46.1875 
Q 20.953125 51.171875 25.484375 53.578125 
Q 30.03125 56 36.53125 56 
Q 37.453125 56 38.578125 55.875 
Q 39.703125 55.765625 41.0625 55.515625 
z
" id="BitstreamVeraSans-Roman-72"/>
       <path d="M 30.609375 48.390625 
Q 23.390625 48.390625 19.1875 42.75 
Q 14.984375 37.109375 14.984375 27.296875 
Q 14.984375 17.484375 19.15625 11.84375 
Q 23.34375 6.203125 30.609375 6.203125 
Q 37.796875 6.203125 41.984375 11.859375 
Q 46.1875 17.53125 46.1875 27.296875 
Q 46.1875 37.015625 41.984375 42.703125 
Q 37.796875 48.390625 30.609375 48.390625 
M 30.609375 56 
Q 42.328125 56 49.015625 48.375 
Q 55.71875 40.765625 55.71875 27.296875 
Q 55.71875 13.875 49.015625 6.21875 
Q 42.328125 -1.421875 30.609375 -1.421875 
Q 18.84375 -1.421875 12.171875 6.21875 
Q 5.515625 13.875 5.515625 27.296875 
Q 5.515625 40.765625 12.171875 48.375 
Q 18.84375 56 30.609375 56 
" id="BitstreamVeraSans-Roman-6f"/>
       <path d="M 9.421875 75.984375 
L 18.40625 75.984375 
L 18.40625 0 
L 9.421875 0 
z
" id="BitstreamVeraSans-Roman-6c"/>
       <path d="M 9.421875 54.6875 
L 18.40625 54.6875 
L 18.40625 0 
L 9.421875 0 
z
M 9.421875 75.984375 
L 18.40625 75.984375 
L 18.40625 64.59375 
L 9.421875 64.59375 
z
" id="BitstreamVeraSans-Roman-69"/>
       <path d="M 32.171875 -5.078125 
Q 28.375 -14.84375 24.75 -17.8125 
Q 21.140625 -20.796875 15.09375 -20.796875 
L 7.90625 -20.796875 
L 7.90625 -13.28125 
L 13.1875 -13.28125 
Q 16.890625 -13.28125 18.9375 -11.515625 
Q 21 -9.765625 23.484375 -3.21875 
L 25.09375 0.875 
L 2.984375 54.6875 
L 12.5 54.6875 
L 29.59375 11.921875 
L 46.6875 54.6875 
L 56.203125 54.6875 
z
" id="BitstreamVeraSans-Roman-79"/>
       <path d="M 34.28125 27.484375 
Q 23.390625 27.484375 19.1875 25 
Q 14.984375 22.515625 14.984375 16.5 
Q 14.984375 11.71875 18.140625 8.90625 
Q 21.296875 6.109375 26.703125 6.109375 
Q 34.1875 6.109375 38.703125 11.40625 
Q 43.21875 16.703125 43.21875 25.484375 
L 43.21875 27.484375 
z
M 52.203125 31.203125 
L 52.203125 0 
L 43.21875 0 
L 43.21875 8.296875 
Q 40.140625 3.328125 35.546875 0.953125 
Q 30.953125 -1.421875 24.3125 -1.421875 
Q 15.921875 -1.421875 10.953125 3.296875 
Q 6 8.015625 6 15.921875 
Q 6 25.140625 12.171875 29.828125 
Q 18.359375 34.515625 30.609375 34.515625 
L 43.21875 34.515625 
L 43.21875 35.40625 
Q 43.21875 41.609375 39.140625 45 
Q 35.0625 48.390625 27.6875 48.390625 
Q 23 48.390625 18.546875 47.265625 
Q 14.109375 46.140625 10.015625 43.890625 
L 10.015625 52.203125 
Q 14.9375 54.109375 19.578125 55.046875 
Q 24.21875 56 28.609375 56 
Q 40.484375 56 46.34375 49.84375 
Q 52.203125 43.703125 52.203125 31.203125 
" id="BitstreamVeraSans-Roman-61"/>
      </defs>
      <g transform="translate(150.7 568.085994318)scale(0.16 -0.16)">
       <use xlink:href="#BitstreamVeraSans-Roman-50"/>
       <use x="60.287109375" xlink:href="#BitstreamVeraSans-Roman-72"/>
       <use x="101.400390625" xlink:href="#BitstreamVeraSans-Roman-69"/>
       <use x="129.18359375" xlink:href="#BitstreamVeraSans-Roman-6d"/>
       <use x="226.595703125" xlink:href="#BitstreamVeraSans-Roman-61"/>
       <use x="287.875" xlink:href="#BitstreamVeraSans-Roman-72"/>
       <use x="328.98828125" xlink:href="#BitstreamVeraSans-Roman-79"/>
       <use x="388.16796875" xlink:href="#BitstreamVeraSans-Roman-20"/>
       <use x="419.955078125" xlink:href="#BitstreamVeraSans-Roman-6f"/>
       <use x="481.13671875" xlink:href="#BitstreamVeraSans-Roman-6e"/>
       <use x="544.515625" xlink:href="#BitstreamVeraSans-Roman-6c"/>
       <use x="572.298828125" xlink:href="#BitstreamVeraSans-Roman-79"/>
      </g>
     </g>
    </g>
    <g id="ytick_2"/>
    <g id="ytick_3">
     <g id="text_3">
      <!-- Recurrent only -->
      <defs>
       <path d="M 56.203125 29.59375 
L 56.203125 25.203125 
L 14.890625 25.203125 
Q 15.484375 15.921875 20.484375 11.0625 
Q 25.484375 6.203125 34.421875 6.203125 
Q 39.59375 6.203125 44.453125 7.46875 
Q 49.3125 8.734375 54.109375 11.28125 
L 54.109375 2.78125 
Q 49.265625 0.734375 44.1875 -0.34375 
Q 39.109375 -1.421875 33.890625 -1.421875 
Q 20.796875 -1.421875 13.15625 6.1875 
Q 5.515625 13.8125 5.515625 26.8125 
Q 5.515625 40.234375 12.765625 48.109375 
Q 20.015625 56 32.328125 56 
Q 43.359375 56 49.78125 48.890625 
Q 56.203125 41.796875 56.203125 29.59375 
M 47.21875 32.234375 
Q 47.125 39.59375 43.09375 43.984375 
Q 39.0625 48.390625 32.421875 48.390625 
Q 24.90625 48.390625 20.390625 44.140625 
Q 15.875 39.890625 15.1875 32.171875 
z
" id="BitstreamVeraSans-Roman-65"/>
       <path d="M 44.390625 34.1875 
Q 47.5625 33.109375 50.5625 29.59375 
Q 53.5625 26.078125 56.59375 19.921875 
L 66.609375 0 
L 56 0 
L 46.6875 18.703125 
Q 43.0625 26.03125 39.671875 28.421875 
Q 36.28125 30.8125 30.421875 30.8125 
L 19.671875 30.8125 
L 19.671875 0 
L 9.8125 0 
L 9.8125 72.90625 
L 32.078125 72.90625 
Q 44.578125 72.90625 50.734375 67.671875 
Q 56.890625 62.453125 56.890625 51.90625 
Q 56.890625 45.015625 53.6875 40.46875 
Q 50.484375 35.9375 44.390625 34.1875 
M 19.671875 64.796875 
L 19.671875 38.921875 
L 32.078125 38.921875 
Q 39.203125 38.921875 42.84375 42.21875 
Q 46.484375 45.515625 46.484375 51.90625 
Q 46.484375 58.296875 42.84375 61.546875 
Q 39.203125 64.796875 32.078125 64.796875 
z
" id="BitstreamVeraSans-Roman-52"/>
       <path d="M 8.5 21.578125 
L 8.5 54.6875 
L 17.484375 54.6875 
L 17.484375 21.921875 
Q 17.484375 14.15625 20.5 10.265625 
Q 23.53125 6.390625 29.59375 6.390625 
Q 36.859375 6.390625 41.078125 11.03125 
Q 45.3125 15.671875 45.3125 23.6875 
L 45.3125 54.6875 
L 54.296875 54.6875 
L 54.296875 0 
L 45.3125 0 
L 45.3125 8.40625 
Q 42.046875 3.421875 37.71875 1 
Q 33.40625 -1.421875 27.6875 -1.421875 
Q 18.265625 -1.421875 13.375 4.4375 
Q 8.5 10.296875 8.5 21.578125 
" id="BitstreamVeraSans-Roman-75"/>
       <path d="M 18.3125 70.21875 
L 18.3125 54.6875 
L 36.8125 54.6875 
L 36.8125 47.703125 
L 18.3125 47.703125 
L 18.3125 18.015625 
Q 18.3125 11.328125 20.140625 9.421875 
Q 21.96875 7.515625 27.59375 7.515625 
L 36.8125 7.515625 
L 36.8125 0 
L 27.59375 0 
Q 17.1875 0 13.234375 3.875 
Q 9.28125 7.765625 9.28125 18.015625 
L 9.28125 47.703125 
L 2.6875 47.703125 
L 2.6875 54.6875 
L 9.28125 54.6875 
L 9.28125 70.21875 
z
" id="BitstreamVeraSans-Roman-74"/>
       <path d="M 48.78125 52.59375 
L 48.78125 44.1875 
Q 44.96875 46.296875 41.140625 47.34375 
Q 37.3125 48.390625 33.40625 48.390625 
Q 24.65625 48.390625 19.8125 42.84375 
Q 14.984375 37.3125 14.984375 27.296875 
Q 14.984375 17.28125 19.8125 11.734375 
Q 24.65625 6.203125 33.40625 6.203125 
Q 37.3125 6.203125 41.140625 7.25 
Q 44.96875 8.296875 48.78125 10.40625 
L 48.78125 2.09375 
Q 45.015625 0.34375 40.984375 -0.53125 
Q 36.96875 -1.421875 32.421875 -1.421875 
Q 20.0625 -1.421875 12.78125 6.34375 
Q 5.515625 14.109375 5.515625 27.296875 
Q 5.515625 40.671875 12.859375 48.328125 
Q 20.21875 56 33.015625 56 
Q 37.15625 56 41.109375 55.140625 
Q 45.0625 54.296875 48.78125 52.59375 
" id="BitstreamVeraSans-Roman-63"/>
      </defs>
      <g transform="translate(150.7 289.085994318)scale(0.16 -0.16)">
       <use xlink:href="#BitstreamVeraSans-Roman-52"/>
       <use x="69.419921875" xlink:href="#BitstreamVeraSans-Roman-65"/>
       <use x="130.943359375" xlink:href="#BitstreamVeraSans-Roman-63"/>
       <use x="185.923828125" xlink:href="#BitstreamVeraSans-Roman-75"/>
       <use x="249.302734375" xlink:href="#BitstreamVeraSans-Roman-72"/>
       <use x="290.400390625" xlink:href="#BitstreamVeraSans-Roman-72"/>
       <use x="331.482421875" xlink:href="#BitstreamVeraSans-Roman-65"/>
       <use x="393.005859375" xlink:href="#BitstreamVeraSans-Roman-6e"/>
       <use x="456.384765625" xlink:href="#BitstreamVeraSans-Roman-74"/>
       <use x="495.59375" xlink:href="#BitstreamVeraSans-Roman-20"/>
       <use x="527.380859375" xlink:href="#BitstreamVeraSans-Roman-6f"/>
       <use x="588.5625" xlink:href="#BitstreamVeraSans-Roman-6e"/>
       <use x="651.94140625" xlink:href="#BitstreamVeraSans-Roman-6c"/>
       <use x="679.724609375" xlink:href="#BitstreamVeraSans-Roman-79"/>
      </g>
     </g>
    </g>
   </g>
   <g id="text_4">
    <path d="M 49.303125 555.049489 
Q 50.630625 555.392614 51.319688 556.241989 
Q 52.011563 557.088551 52.011563 558.399176 
Q 52.011563 560.351051 50.515313 561.366364 
Q 49.021875 562.381676 46.15875 562.381676 
Q 45.14625 562.381676 44.130938 562.218551 
Q 43.115625 562.055426 42.122813 561.729176 
L 42.122813 559.119176 
Q 43.073438 559.594489 44.007188 559.836364 
Q 44.94375 560.078239 45.849375 560.078239 
Q 47.19375 560.078239 47.910938 559.614176 
Q 48.628125 559.147301 48.628125 558.275426 
Q 48.628125 557.378239 47.894063 556.916989 
Q 47.16 556.455739 45.725625 556.455739 
L 44.372813 556.455739 
L 44.372813 554.276051 
L 45.795938 554.276051 
Q 47.072813 554.276051 47.694375 553.876676 
Q 48.31875 553.477301 48.31875 552.658864 
Q 48.31875 551.905114 47.71125 551.491676 
Q 47.106563 551.078239 45.998438 551.078239 
Q 45.182813 551.078239 44.3475 551.263864 
Q 43.512188 551.446676 42.685313 551.806676 
L 42.685313 549.328864 
Q 43.686563 549.047614 44.670938 548.906989 
Q 45.655313 548.766364 46.605938 548.766364 
Q 49.1625 548.766364 50.430937 549.607301 
Q 51.702188 550.445426 51.702188 552.132926 
Q 51.702188 553.283239 51.094688 554.017301 
Q 50.49 554.751364 49.303125 555.049489 
M 55.246289 561.836051 
L 55.246289 559.408864 
Q 56.053477 559.788551 56.790352 559.976989 
Q 57.530039 560.165426 58.250039 560.165426 
Q 59.763164 560.165426 60.606914 559.327301 
Q 61.450664 558.486364 61.599727 556.835426 
Q 61.003477 557.274176 60.325664 557.493551 
Q 59.647852 557.712926 58.857539 557.712926 
Q 56.843789 557.712926 55.609102 556.540114 
Q 54.374414 555.367301 54.374414 553.451989 
Q 54.374414 551.331364 55.749727 550.057301 
Q 57.125039 548.783239 59.436914 548.783239 
Q 62.004727 548.783239 63.410977 550.515739 
Q 64.817227 552.245426 64.817227 555.409489 
Q 64.817227 558.663551 63.171914 560.522614 
Q 61.529414 562.381676 58.663477 562.381676 
Q 57.740977 562.381676 56.897227 562.243864 
Q 56.053477 562.108864 55.246289 561.836051 
M 59.420039 555.516364 
Q 60.308789 555.516364 60.755977 554.942614 
Q 61.203164 554.366051 61.203164 553.212926 
Q 61.203164 552.071051 60.755977 551.491676 
Q 60.308789 550.909489 59.420039 550.909489 
Q 58.531289 550.909489 58.084102 551.491676 
Q 57.636914 552.071051 57.636914 553.212926 
Q 57.636914 554.366051 58.084102 554.942614 
Q 58.531289 555.516364 59.420039 555.516364 
M 72.754453 564.499489 
L 70.141641 564.499489 
Q 68.797266 562.328239 68.156016 560.373551 
Q 67.514766 558.416051 67.514766 556.492301 
Q 67.514766 554.565739 68.158828 552.594176 
Q 68.805703 550.619801 70.141641 548.468239 
L 72.754453 548.468239 
Q 71.629453 550.549489 71.066953 552.540739 
Q 70.504453 554.531989 70.504453 556.475426 
Q 70.504453 558.416051 71.061328 560.412926 
Q 71.618203 562.406989 72.754453 564.499489 
M 75.398203 549.002614 
L 85.286953 549.002614 
L 85.286953 550.909489 
L 80.171016 562.125739 
L 76.874766 562.125739 
L 81.717891 551.491676 
L 75.398203 551.491676 
z
M 100.666055 556.711676 
Q 100.044492 556.711676 99.701367 557.251676 
Q 99.358242 557.791676 99.358242 558.795739 
Q 99.358242 559.805426 99.695742 560.345426 
Q 100.033242 560.885426 100.666055 560.885426 
Q 101.298867 560.885426 101.633555 560.345426 
Q 101.968242 559.805426 101.968242 558.795739 
Q 101.968242 557.791676 101.62793 557.251676 
Q 101.29043 556.711676 100.666055 556.711676 
M 100.666055 555.235114 
Q 102.30293 555.235114 103.242305 556.185739 
Q 104.18168 557.133551 104.18168 558.795739 
Q 104.18168 560.455114 103.242305 561.419801 
Q 102.30293 562.381676 100.666055 562.381676 
Q 99.031992 562.381676 98.086992 561.419801 
Q 97.141992 560.455114 97.141992 558.795739 
Q 97.141992 557.141989 98.086992 556.188551 
Q 99.031992 555.235114 100.666055 555.235114 
M 92.608242 562.381676 
L 90.664805 562.381676 
L 98.866055 548.766364 
L 100.81793 548.766364 
z
M 90.80543 548.766364 
Q 92.439492 548.766364 93.376055 549.719801 
Q 94.312617 550.673239 94.312617 552.335426 
Q 94.312617 553.994801 93.376055 554.953864 
Q 92.439492 555.912926 90.80543 555.912926 
Q 89.171367 555.912926 88.234805 554.953864 
Q 87.298242 553.994801 87.298242 552.335426 
Q 87.298242 550.673239 88.234805 549.719801 
Q 89.171367 548.766364 90.80543 548.766364 
M 90.80543 550.242926 
Q 90.172617 550.242926 89.829492 550.788551 
Q 89.486367 551.331364 89.486367 552.335426 
Q 89.486367 553.345114 89.829492 553.896364 
Q 90.172617 554.444801 90.80543 554.444801 
Q 91.438242 554.444801 91.775742 553.896364 
Q 92.116055 553.345114 92.116055 552.335426 
Q 92.116055 551.331364 91.77293 550.788551 
Q 91.429805 550.242926 90.80543 550.242926 
M 106.196836 564.499489 
Q 107.321836 562.406989 107.884336 560.412926 
Q 108.446836 558.416051 108.446836 556.475426 
Q 108.446836 554.531989 107.884336 552.540739 
Q 107.321836 550.549489 106.196836 548.468239 
L 108.806836 548.468239 
Q 110.142773 550.619801 110.786836 552.594176 
Q 111.433711 554.565739 111.433711 556.492301 
Q 111.433711 558.416051 110.792461 560.373551 
Q 110.151211 562.328239 108.806836 564.499489 
z
" style="fill:#ffffff;stroke:#000000;stroke-width:5.0;"/>
    <path d="M 49.303125 555.049489 
Q 50.630625 555.392614 51.319688 556.241989 
Q 52.011563 557.088551 52.011563 558.399176 
Q 52.011563 560.351051 50.515313 561.366364 
Q 49.021875 562.381676 46.15875 562.381676 
Q 45.14625 562.381676 44.130938 562.218551 
Q 43.115625 562.055426 42.122813 561.729176 
L 42.122813 559.119176 
Q 43.073438 559.594489 44.007188 559.836364 
Q 44.94375 560.078239 45.849375 560.078239 
Q 47.19375 560.078239 47.910938 559.614176 
Q 48.628125 559.147301 48.628125 558.275426 
Q 48.628125 557.378239 47.894063 556.916989 
Q 47.16 556.455739 45.725625 556.455739 
L 44.372813 556.455739 
L 44.372813 554.276051 
L 45.795938 554.276051 
Q 47.072813 554.276051 47.694375 553.876676 
Q 48.31875 553.477301 48.31875 552.658864 
Q 48.31875 551.905114 47.71125 551.491676 
Q 47.106563 551.078239 45.998438 551.078239 
Q 45.182813 551.078239 44.3475 551.263864 
Q 43.512188 551.446676 42.685313 551.806676 
L 42.685313 549.328864 
Q 43.686563 549.047614 44.670938 548.906989 
Q 45.655313 548.766364 46.605938 548.766364 
Q 49.1625 548.766364 50.430937 549.607301 
Q 51.702188 550.445426 51.702188 552.132926 
Q 51.702188 553.283239 51.094688 554.017301 
Q 50.49 554.751364 49.303125 555.049489 
M 55.246289 561.836051 
L 55.246289 559.408864 
Q 56.053477 559.788551 56.790352 559.976989 
Q 57.530039 560.165426 58.250039 560.165426 
Q 59.763164 560.165426 60.606914 559.327301 
Q 61.450664 558.486364 61.599727 556.835426 
Q 61.003477 557.274176 60.325664 557.493551 
Q 59.647852 557.712926 58.857539 557.712926 
Q 56.843789 557.712926 55.609102 556.540114 
Q 54.374414 555.367301 54.374414 553.451989 
Q 54.374414 551.331364 55.749727 550.057301 
Q 57.125039 548.783239 59.436914 548.783239 
Q 62.004727 548.783239 63.410977 550.515739 
Q 64.817227 552.245426 64.817227 555.409489 
Q 64.817227 558.663551 63.171914 560.522614 
Q 61.529414 562.381676 58.663477 562.381676 
Q 57.740977 562.381676 56.897227 562.243864 
Q 56.053477 562.108864 55.246289 561.836051 
M 59.420039 555.516364 
Q 60.308789 555.516364 60.755977 554.942614 
Q 61.203164 554.366051 61.203164 553.212926 
Q 61.203164 552.071051 60.755977 551.491676 
Q 60.308789 550.909489 59.420039 550.909489 
Q 58.531289 550.909489 58.084102 551.491676 
Q 57.636914 552.071051 57.636914 553.212926 
Q 57.636914 554.366051 58.084102 554.942614 
Q 58.531289 555.516364 59.420039 555.516364 
M 72.754453 564.499489 
L 70.141641 564.499489 
Q 68.797266 562.328239 68.156016 560.373551 
Q 67.514766 558.416051 67.514766 556.492301 
Q 67.514766 554.565739 68.158828 552.594176 
Q 68.805703 550.619801 70.141641 548.468239 
L 72.754453 548.468239 
Q 71.629453 550.549489 71.066953 552.540739 
Q 70.504453 554.531989 70.504453 556.475426 
Q 70.504453 558.416051 71.061328 560.412926 
Q 71.618203 562.406989 72.754453 564.499489 
M 75.398203 549.002614 
L 85.286953 549.002614 
L 85.286953 550.909489 
L 80.171016 562.125739 
L 76.874766 562.125739 
L 81.717891 551.491676 
L 75.398203 551.491676 
z
M 100.666055 556.711676 
Q 100.044492 556.711676 99.701367 557.251676 
Q 99.358242 557.791676 99.358242 558.795739 
Q 99.358242 559.805426 99.695742 560.345426 
Q 100.033242 560.885426 100.666055 560.885426 
Q 101.298867 560.885426 101.633555 560.345426 
Q 101.968242 559.805426 101.968242 558.795739 
Q 101.968242 557.791676 101.62793 557.251676 
Q 101.29043 556.711676 100.666055 556.711676 
M 100.666055 555.235114 
Q 102.30293 555.235114 103.242305 556.185739 
Q 104.18168 557.133551 104.18168 558.795739 
Q 104.18168 560.455114 103.242305 561.419801 
Q 102.30293 562.381676 100.666055 562.381676 
Q 99.031992 562.381676 98.086992 561.419801 
Q 97.141992 560.455114 97.141992 558.795739 
Q 97.141992 557.141989 98.086992 556.188551 
Q 99.031992 555.235114 100.666055 555.235114 
M 92.608242 562.381676 
L 90.664805 562.381676 
L 98.866055 548.766364 
L 100.81793 548.766364 
z
M 90.80543 548.766364 
Q 92.439492 548.766364 93.376055 549.719801 
Q 94.312617 550.673239 94.312617 552.335426 
Q 94.312617 553.994801 93.376055 554.953864 
Q 92.439492 555.912926 90.80543 555.912926 
Q 89.171367 555.912926 88.234805 554.953864 
Q 87.298242 553.994801 87.298242 552.335426 
Q 87.298242 550.673239 88.234805 549.719801 
Q 89.171367 548.766364 90.80543 548.766364 
M 90.80543 550.242926 
Q 90.172617 550.242926 89.829492 550.788551 
Q 89.486367 551.331364 89.486367 552.335426 
Q 89.486367 553.345114 89.829492 553.896364 
Q 90.172617 554.444801 90.80543 554.444801 
Q 91.438242 554.444801 91.775742 553.896364 
Q 92.116055 553.345114 92.116055 552.335426 
Q 92.116055 551.331364 91.77293 550.788551 
Q 91.429805 550.242926 90.80543 550.242926 
M 106.196836 564.499489 
Q 107.321836 562.406989 107.884336 560.412926 
Q 108.446836 558.416051 108.446836 556.475426 
Q 108.446836 554.531989 107.884336 552.540739 
Q 107.321836 550.549489 106.196836 548.468239 
L 108.806836 548.468239 
Q 110.142773 550.619801 110.786836 552.594176 
Q 111.433711 554.565739 111.433711 556.492301 
Q 111.433711 558.416051 110.792461 560.373551 
Q 110.151211 562.328239 108.806836 564.499489 
z
" style="fill:#ffffff;"/>
   </g>
   <g id="text_5">
    <path d="M 35.02125 296.293437 
L 31.314375 301.78625 
L 35.02125 301.78625 
z
M 34.45875 293.50625 
L 38.221875 293.50625 
L 38.221875 301.78625 
L 40.092188 301.78625 
L 40.092188 304.23875 
L 38.221875 304.23875 
L 38.221875 306.629375 
L 35.02125 306.629375 
L 35.02125 304.23875 
L 29.205 304.23875 
L 29.205 301.339062 
z
M 42.826289 293.50625 
L 51.238477 293.50625 
L 51.238477 295.995312 
L 45.526289 295.995312 
L 45.526289 298.025937 
Q 45.911602 297.919062 46.302539 297.862812 
Q 46.693477 297.80375 47.115352 297.80375 
Q 49.514414 297.80375 50.850352 299.004687 
Q 52.186289 300.205625 52.186289 302.34875 
Q 52.186289 304.475 50.732227 305.681562 
Q 49.278164 306.885312 46.693477 306.885312 
Q 45.576914 306.885312 44.482852 306.66875 
Q 43.388789 306.452187 42.308789 306.013437 
L 42.308789 303.35 
Q 43.380352 303.965937 44.342227 304.275312 
Q 45.304102 304.581875 46.159102 304.581875 
Q 47.388164 304.581875 48.094102 303.98 
Q 48.802852 303.378125 48.802852 302.34875 
Q 48.802852 301.310937 48.094102 300.714687 
Q 47.388164 300.115625 46.159102 300.115625 
Q 45.427852 300.115625 44.600977 300.306875 
Q 43.776914 300.495312 42.826289 300.889062 
z
M 59.957578 300.152187 
Q 59.068828 300.152187 58.624453 300.72875 
Q 58.180078 301.3025 58.180078 302.455625 
Q 58.180078 303.605937 58.624453 304.1825 
Q 59.068828 304.75625 59.957578 304.75625 
Q 60.851953 304.75625 61.296328 304.1825 
Q 61.740703 303.605937 61.740703 302.455625 
Q 61.740703 301.3025 61.296328 300.72875 
Q 60.851953 300.152187 59.957578 300.152187 
M 64.139766 293.849375 
L 64.139766 296.276562 
Q 63.304453 295.88 62.564766 295.691562 
Q 61.827891 295.503125 61.124766 295.503125 
Q 59.614453 295.503125 58.770703 296.344062 
Q 57.926953 297.182187 57.786328 298.833125 
Q 58.365703 298.402812 59.040703 298.189062 
Q 59.718516 297.9725 60.520078 297.9725 
Q 62.531016 297.9725 63.765703 299.150937 
Q 65.000391 300.326562 65.000391 302.233437 
Q 65.000391 304.342812 63.619453 305.614062 
Q 62.241328 306.885312 59.921016 306.885312 
Q 57.364453 306.885312 55.961016 305.158437 
Q 54.560391 303.42875 54.560391 300.25625 
Q 54.560391 297.005 56.200078 295.145937 
Q 57.839766 293.286875 60.694453 293.286875 
Q 61.600078 293.286875 62.452266 293.4275 
Q 63.304453 293.568125 64.139766 293.849375 
M 72.754805 309.003125 
L 70.141992 309.003125 
Q 68.797617 306.831875 68.156367 304.877187 
Q 67.515117 302.919687 67.515117 300.995937 
Q 67.515117 299.069375 68.15918 297.097812 
Q 68.806055 295.123437 70.141992 292.971875 
L 72.754805 292.971875 
Q 71.629805 295.053125 71.067305 297.044375 
Q 70.504805 299.035625 70.504805 300.979062 
Q 70.504805 302.919687 71.06168 304.916562 
Q 71.618555 306.910625 72.754805 309.003125 
M 75.997617 306.339687 
L 75.997617 303.9125 
Q 76.804805 304.292187 77.54168 304.480625 
Q 78.281367 304.669062 79.001367 304.669062 
Q 80.514492 304.669062 81.358242 303.830937 
Q 82.201992 302.99 82.351055 301.339062 
Q 81.754805 301.777812 81.076992 301.997187 
Q 80.39918 302.216562 79.608867 302.216562 
Q 77.595117 302.216562 76.36043 301.04375 
Q 75.125742 299.870937 75.125742 297.955625 
Q 75.125742 295.835 76.501055 294.560937 
Q 77.876367 293.286875 80.188242 293.286875 
Q 82.756055 293.286875 84.162305 295.019375 
Q 85.568555 296.749062 85.568555 299.913125 
Q 85.568555 303.167187 83.923242 305.02625 
Q 82.280742 306.885312 79.414805 306.885312 
Q 78.492305 306.885312 77.648555 306.7475 
Q 76.804805 306.6125 75.997617 306.339687 
M 80.171367 300.02 
Q 81.060117 300.02 81.507305 299.44625 
Q 81.954492 298.869687 81.954492 297.716562 
Q 81.954492 296.574687 81.507305 295.995312 
Q 81.060117 295.413125 80.171367 295.413125 
Q 79.282617 295.413125 78.83543 295.995312 
Q 78.388242 296.574687 78.388242 297.716562 
Q 78.388242 298.869687 78.83543 299.44625 
Q 79.282617 300.02 80.171367 300.02 
M 91.905469 304.143125 
L 97.679531 304.143125 
L 97.679531 306.629375 
L 88.142344 306.629375 
L 88.142344 304.143125 
L 92.932031 299.913125 
Q 93.576094 299.33375 93.882656 298.779687 
Q 94.189219 298.225625 94.189219 297.629375 
Q 94.189219 296.706875 93.570469 296.144375 
Q 92.951719 295.581875 91.922344 295.581875 
Q 91.132031 295.581875 90.189844 295.919375 
Q 89.250469 296.256875 88.178906 296.92625 
L 88.178906 294.043437 
Q 89.320781 293.666562 90.437344 293.469687 
Q 91.553906 293.27 92.625469 293.27 
Q 94.982344 293.27 96.287344 294.307812 
Q 97.592344 295.342812 97.592344 297.199062 
Q 97.592344 298.270625 97.038281 299.19875 
Q 96.484219 300.124062 94.709531 301.682187 
z
M 113.19082 301.215312 
Q 112.569258 301.215312 112.226133 301.755312 
Q 111.883008 302.295312 111.883008 303.299375 
Q 111.883008 304.309062 112.220508 304.849062 
Q 112.558008 305.389062 113.19082 305.389062 
Q 113.823633 305.389062 114.15832 304.849062 
Q 114.493008 304.309062 114.493008 303.299375 
Q 114.493008 302.295312 114.152695 301.755312 
Q 113.815195 301.215312 113.19082 301.215312 
M 113.19082 299.73875 
Q 114.827695 299.73875 115.76707 300.689375 
Q 116.706445 301.637187 116.706445 303.299375 
Q 116.706445 304.95875 115.76707 305.923437 
Q 114.827695 306.885312 113.19082 306.885312 
Q 111.556758 306.885312 110.611758 305.923437 
Q 109.666758 304.95875 109.666758 303.299375 
Q 109.666758 301.645625 110.611758 300.692187 
Q 111.556758 299.73875 113.19082 299.73875 
M 105.133008 306.885312 
L 103.18957 306.885312 
L 111.39082 293.27 
L 113.342695 293.27 
z
M 103.330195 293.27 
Q 104.964258 293.27 105.90082 294.223437 
Q 106.837383 295.176875 106.837383 296.839062 
Q 106.837383 298.498437 105.90082 299.4575 
Q 104.964258 300.416562 103.330195 300.416562 
Q 101.696133 300.416562 100.75957 299.4575 
Q 99.823008 298.498437 99.823008 296.839062 
Q 99.823008 295.176875 100.75957 294.223437 
Q 101.696133 293.27 103.330195 293.27 
M 103.330195 294.746562 
Q 102.697383 294.746562 102.354258 295.292187 
Q 102.011133 295.835 102.011133 296.839062 
Q 102.011133 297.84875 102.354258 298.4 
Q 102.697383 298.948437 103.330195 298.948437 
Q 103.963008 298.948437 104.300508 298.4 
Q 104.64082 297.84875 104.64082 296.839062 
Q 104.64082 295.835 104.297695 295.292187 
Q 103.95457 294.746562 103.330195 294.746562 
M 118.721602 309.003125 
Q 119.846602 306.910625 120.409102 304.916562 
Q 120.971602 302.919687 120.971602 300.979062 
Q 120.971602 299.035625 120.409102 297.044375 
Q 119.846602 295.053125 118.721602 292.971875 
L 121.331602 292.971875 
Q 122.667539 295.123437 123.311602 297.097812 
Q 123.958477 299.069375 123.958477 300.995937 
Q 123.958477 302.919687 123.317227 304.877187 
Q 122.675977 306.831875 121.331602 309.003125 
z
" style="fill:#ffffff;stroke:#000000;stroke-width:5.0;"/>
    <path d="M 35.02125 296.293437 
L 31.314375 301.78625 
L 35.02125 301.78625 
z
M 34.45875 293.50625 
L 38.221875 293.50625 
L 38.221875 301.78625 
L 40.092188 301.78625 
L 40.092188 304.23875 
L 38.221875 304.23875 
L 38.221875 306.629375 
L 35.02125 306.629375 
L 35.02125 304.23875 
L 29.205 304.23875 
L 29.205 301.339062 
z
M 42.826289 293.50625 
L 51.238477 293.50625 
L 51.238477 295.995312 
L 45.526289 295.995312 
L 45.526289 298.025937 
Q 45.911602 297.919062 46.302539 297.862812 
Q 46.693477 297.80375 47.115352 297.80375 
Q 49.514414 297.80375 50.850352 299.004687 
Q 52.186289 300.205625 52.186289 302.34875 
Q 52.186289 304.475 50.732227 305.681562 
Q 49.278164 306.885312 46.693477 306.885312 
Q 45.576914 306.885312 44.482852 306.66875 
Q 43.388789 306.452187 42.308789 306.013437 
L 42.308789 303.35 
Q 43.380352 303.965937 44.342227 304.275312 
Q 45.304102 304.581875 46.159102 304.581875 
Q 47.388164 304.581875 48.094102 303.98 
Q 48.802852 303.378125 48.802852 302.34875 
Q 48.802852 301.310937 48.094102 300.714687 
Q 47.388164 300.115625 46.159102 300.115625 
Q 45.427852 300.115625 44.600977 300.306875 
Q 43.776914 300.495312 42.826289 300.889062 
z
M 59.957578 300.152187 
Q 59.068828 300.152187 58.624453 300.72875 
Q 58.180078 301.3025 58.180078 302.455625 
Q 58.180078 303.605937 58.624453 304.1825 
Q 59.068828 304.75625 59.957578 304.75625 
Q 60.851953 304.75625 61.296328 304.1825 
Q 61.740703 303.605937 61.740703 302.455625 
Q 61.740703 301.3025 61.296328 300.72875 
Q 60.851953 300.152187 59.957578 300.152187 
M 64.139766 293.849375 
L 64.139766 296.276562 
Q 63.304453 295.88 62.564766 295.691562 
Q 61.827891 295.503125 61.124766 295.503125 
Q 59.614453 295.503125 58.770703 296.344062 
Q 57.926953 297.182187 57.786328 298.833125 
Q 58.365703 298.402812 59.040703 298.189062 
Q 59.718516 297.9725 60.520078 297.9725 
Q 62.531016 297.9725 63.765703 299.150937 
Q 65.000391 300.326562 65.000391 302.233437 
Q 65.000391 304.342812 63.619453 305.614062 
Q 62.241328 306.885312 59.921016 306.885312 
Q 57.364453 306.885312 55.961016 305.158437 
Q 54.560391 303.42875 54.560391 300.25625 
Q 54.560391 297.005 56.200078 295.145937 
Q 57.839766 293.286875 60.694453 293.286875 
Q 61.600078 293.286875 62.452266 293.4275 
Q 63.304453 293.568125 64.139766 293.849375 
M 72.754805 309.003125 
L 70.141992 309.003125 
Q 68.797617 306.831875 68.156367 304.877187 
Q 67.515117 302.919687 67.515117 300.995937 
Q 67.515117 299.069375 68.15918 297.097812 
Q 68.806055 295.123437 70.141992 292.971875 
L 72.754805 292.971875 
Q 71.629805 295.053125 71.067305 297.044375 
Q 70.504805 299.035625 70.504805 300.979062 
Q 70.504805 302.919687 71.06168 304.916562 
Q 71.618555 306.910625 72.754805 309.003125 
M 75.997617 306.339687 
L 75.997617 303.9125 
Q 76.804805 304.292187 77.54168 304.480625 
Q 78.281367 304.669062 79.001367 304.669062 
Q 80.514492 304.669062 81.358242 303.830937 
Q 82.201992 302.99 82.351055 301.339062 
Q 81.754805 301.777812 81.076992 301.997187 
Q 80.39918 302.216562 79.608867 302.216562 
Q 77.595117 302.216562 76.36043 301.04375 
Q 75.125742 299.870937 75.125742 297.955625 
Q 75.125742 295.835 76.501055 294.560937 
Q 77.876367 293.286875 80.188242 293.286875 
Q 82.756055 293.286875 84.162305 295.019375 
Q 85.568555 296.749062 85.568555 299.913125 
Q 85.568555 303.167187 83.923242 305.02625 
Q 82.280742 306.885312 79.414805 306.885312 
Q 78.492305 306.885312 77.648555 306.7475 
Q 76.804805 306.6125 75.997617 306.339687 
M 80.171367 300.02 
Q 81.060117 300.02 81.507305 299.44625 
Q 81.954492 298.869687 81.954492 297.716562 
Q 81.954492 296.574687 81.507305 295.995312 
Q 81.060117 295.413125 80.171367 295.413125 
Q 79.282617 295.413125 78.83543 295.995312 
Q 78.388242 296.574687 78.388242 297.716562 
Q 78.388242 298.869687 78.83543 299.44625 
Q 79.282617 300.02 80.171367 300.02 
M 91.905469 304.143125 
L 97.679531 304.143125 
L 97.679531 306.629375 
L 88.142344 306.629375 
L 88.142344 304.143125 
L 92.932031 299.913125 
Q 93.576094 299.33375 93.882656 298.779687 
Q 94.189219 298.225625 94.189219 297.629375 
Q 94.189219 296.706875 93.570469 296.144375 
Q 92.951719 295.581875 91.922344 295.581875 
Q 91.132031 295.581875 90.189844 295.919375 
Q 89.250469 296.256875 88.178906 296.92625 
L 88.178906 294.043437 
Q 89.320781 293.666562 90.437344 293.469687 
Q 91.553906 293.27 92.625469 293.27 
Q 94.982344 293.27 96.287344 294.307812 
Q 97.592344 295.342812 97.592344 297.199062 
Q 97.592344 298.270625 97.038281 299.19875 
Q 96.484219 300.124062 94.709531 301.682187 
z
M 113.19082 301.215312 
Q 112.569258 301.215312 112.226133 301.755312 
Q 111.883008 302.295312 111.883008 303.299375 
Q 111.883008 304.309062 112.220508 304.849062 
Q 112.558008 305.389062 113.19082 305.389062 
Q 113.823633 305.389062 114.15832 304.849062 
Q 114.493008 304.309062 114.493008 303.299375 
Q 114.493008 302.295312 114.152695 301.755312 
Q 113.815195 301.215312 113.19082 301.215312 
M 113.19082 299.73875 
Q 114.827695 299.73875 115.76707 300.689375 
Q 116.706445 301.637187 116.706445 303.299375 
Q 116.706445 304.95875 115.76707 305.923437 
Q 114.827695 306.885312 113.19082 306.885312 
Q 111.556758 306.885312 110.611758 305.923437 
Q 109.666758 304.95875 109.666758 303.299375 
Q 109.666758 301.645625 110.611758 300.692187 
Q 111.556758 299.73875 113.19082 299.73875 
M 105.133008 306.885312 
L 103.18957 306.885312 
L 111.39082 293.27 
L 113.342695 293.27 
z
M 103.330195 293.27 
Q 104.964258 293.27 105.90082 294.223437 
Q 106.837383 295.176875 106.837383 296.839062 
Q 106.837383 298.498437 105.90082 299.4575 
Q 104.964258 300.416562 103.330195 300.416562 
Q 101.696133 300.416562 100.75957 299.4575 
Q 99.823008 298.498437 99.823008 296.839062 
Q 99.823008 295.176875 100.75957 294.223437 
Q 101.696133 293.27 103.330195 293.27 
M 103.330195 294.746562 
Q 102.697383 294.746562 102.354258 295.292187 
Q 102.011133 295.835 102.011133 296.839062 
Q 102.011133 297.84875 102.354258 298.4 
Q 102.697383 298.948437 103.330195 298.948437 
Q 103.963008 298.948437 104.300508 298.4 
Q 104.64082 297.84875 104.64082 296.839062 
Q 104.64082 295.835 104.297695 295.292187 
Q 103.95457 294.746562 103.330195 294.746562 
M 118.721602 309.003125 
Q 119.846602 306.910625 120.409102 304.916562 
Q 120.971602 302.919687 120.971602 300.979062 
Q 120.971602 299.035625 120.409102 297.044375 
Q 119.846602 295.053125 118.721602 292.971875 
L 121.331602 292.971875 
Q 122.667539 295.123437 123.311602 297.097812 
Q 123.958477 299.069375 123.958477 300.995937 
Q 123.958477 302.919687 123.317227 304.877187 
Q 122.675977 306.831875 121.331602 309.003125 
z
" style="fill:#ffffff;"/>
   </g>
  </g>
 </g>
 <defs>
  <clipPath id="pc51cb85225">
   <rect height="558.0" width="139.5" x="7.2" y="27.6528125"/>
  </clipPath>
 </defs>
</svg>
