<?xml version="1.0" encoding="utf-8" standalone="no"?>
<!DOCTYPE svg PUBLIC "-//W3C//DTD SVG 1.1//EN"
  "http://www.w3.org/Graphics/SVG/1.1/DTD/svg11.dtd">
<!-- Created with matplotlib (http://matplotlib.org/) -->
<svg height="592pt" version="1.1" viewBox="0 0 276 592" width="276pt" xmlns="http://www.w3.org/2000/svg" xmlns:xlink="http://www.w3.org/1999/xlink">
 <defs>
  <style type="text/css">
*{stroke-linecap:butt;stroke-linejoin:round;stroke-miterlimit:100000;}
  </style>
 </defs>
 <g id="figure_1">
  <g id="patch_1">
   <path d="M 0 592.852812 
L 276.125 592.852812 
L 276.125 0 
L 0 0 
z
" style="fill:#ffffff;"/>
  </g>
  <g id="axes_1">
   <g id="patch_2">
    <path d="M 7.2 585.652812 
L 146.7 585.652812 
L 146.7 27.652812 
L 7.2 27.652812 
z
" style="fill:#ffffff;"/>
   </g>
   <g id="patch_3">
    <path clip-path="url(#p7531f1782f)" d="M 7.2 585.652812 
L 146.7 585.652812 
L 146.7 103.215312 
L 7.2 103.215312 
z
" style="fill:#0100d5;stroke:#000000;stroke-linejoin:miter;"/>
   </g>
   <g id="patch_4">
    <path clip-path="url(#p7531f1782f)" d="M 7.2 103.215312 
L 146.7 103.215312 
L 146.7 103.215312 
L 7.2 103.215312 
z
" style="fill:#7f7f7f;stroke:#000000;stroke-linejoin:miter;"/>
   </g>
   <g id="patch_5">
    <path clip-path="url(#p7531f1782f)" d="M 7.2 103.215312 
L 146.7 103.215312 
L 146.7 27.652812 
L 7.2 27.652812 
z
" style="fill:#a40000;stroke:#000000;stroke-linejoin:miter;"/>
   </g>
   <g id="patch_6">
    <path d="M 7.2 585.652812 
L 146.7 585.652812 
" style="fill:none;stroke:#000000;stroke-linecap:square;stroke-linejoin:miter;"/>
   </g>
   <g id="matplotlib.axis_1">
    <g id="xtick_1">
     <g id="text_1">
      <!-- AC-P10 -->
      <defs>
       <path d="M 31.78125 66.40625 
Q 24.171875 66.40625 20.328125 58.90625 
Q 16.5 51.421875 16.5 36.375 
Q 16.5 21.390625 20.328125 13.890625 
Q 24.171875 6.390625 31.78125 6.390625 
Q 39.453125 6.390625 43.28125 13.890625 
Q 47.125 21.390625 47.125 36.375 
Q 47.125 51.421875 43.28125 58.90625 
Q 39.453125 66.40625 31.78125 66.40625 
M 31.78125 74.21875 
Q 44.046875 74.21875 50.515625 64.515625 
Q 56.984375 54.828125 56.984375 36.375 
Q 56.984375 17.96875 50.515625 8.265625 
Q 44.046875 -1.421875 31.78125 -1.421875 
Q 19.53125 -1.421875 13.0625 8.265625 
Q 6.59375 17.96875 6.59375 36.375 
Q 6.59375 54.828125 13.0625 64.515625 
Q 19.53125 74.21875 31.78125 74.21875 
" id="BitstreamVeraSans-Roman-30"/>
       <path d="M 12.40625 8.296875 
L 28.515625 8.296875 
L 28.515625 63.921875 
L 10.984375 60.40625 
L 10.984375 69.390625 
L 28.421875 72.90625 
L 38.28125 72.90625 
L 38.28125 8.296875 
L 54.390625 8.296875 
L 54.390625 0 
L 12.40625 0 
z
" id="BitstreamVeraSans-Roman-31"/>
       <path d="M 19.671875 64.796875 
L 19.671875 37.40625 
L 32.078125 37.40625 
Q 38.96875 37.40625 42.71875 40.96875 
Q 46.484375 44.53125 46.484375 51.125 
Q 46.484375 57.671875 42.71875 61.234375 
Q 38.96875 64.796875 32.078125 64.796875 
z
M 9.8125 72.90625 
L 32.078125 72.90625 
Q 44.34375 72.90625 50.609375 67.359375 
Q 56.890625 61.8125 56.890625 51.125 
Q 56.890625 40.328125 50.609375 34.8125 
Q 44.34375 29.296875 32.078125 29.296875 
L 19.671875 29.296875 
L 19.671875 0 
L 9.8125 0 
z
" id="BitstreamVeraSans-Roman-50"/>
       <path d="M 64.40625 67.28125 
L 64.40625 56.890625 
Q 59.421875 61.53125 53.78125 63.8125 
Q 48.140625 66.109375 41.796875 66.109375 
Q 29.296875 66.109375 22.65625 58.46875 
Q 16.015625 50.828125 16.015625 36.375 
Q 16.015625 21.96875 22.65625 14.328125 
Q 29.296875 6.6875 41.796875 6.6875 
Q 48.140625 6.6875 53.78125 8.984375 
Q 59.421875 11.28125 64.40625 15.921875 
L 64.40625 5.609375 
Q 59.234375 2.09375 53.4375 0.328125 
Q 47.65625 -1.421875 41.21875 -1.421875 
Q 24.65625 -1.421875 15.125 8.703125 
Q 5.609375 18.84375 5.609375 36.375 
Q 5.609375 53.953125 15.125 64.078125 
Q 24.65625 74.21875 41.21875 74.21875 
Q 47.75 74.21875 53.53125 72.484375 
Q 59.328125 70.75 64.40625 67.28125 
" id="BitstreamVeraSans-Roman-43"/>
       <path d="M 4.890625 31.390625 
L 31.203125 31.390625 
L 31.203125 23.390625 
L 4.890625 23.390625 
z
" id="BitstreamVeraSans-Roman-2d"/>
       <path d="M 34.1875 63.1875 
L 20.796875 26.90625 
L 47.609375 26.90625 
z
M 28.609375 72.90625 
L 39.796875 72.90625 
L 67.578125 0 
L 57.328125 0 
L 50.6875 18.703125 
L 17.828125 18.703125 
L 11.1875 0 
L 0.78125 0 
z
" id="BitstreamVeraSans-Roman-41"/>
      </defs>
      <g transform="translate(46.19328125 20.11734375)scale(0.17 -0.17)">
       <use xlink:href="#BitstreamVeraSans-Roman-41"/>
       <use x="68.392578125" xlink:href="#BitstreamVeraSans-Roman-43"/>
       <use x="138.216796875" xlink:href="#BitstreamVeraSans-Roman-2d"/>
       <use x="174.30078125" xlink:href="#BitstreamVeraSans-Roman-50"/>
       <use x="234.603515625" xlink:href="#BitstreamVeraSans-Roman-31"/>
       <use x="298.2265625" xlink:href="#BitstreamVeraSans-Roman-30"/>
      </g>
     </g>
    </g>
   </g>
   <g id="matplotlib.axis_2">
    <g id="ytick_1">
     <g id="text_2">
      <!-- Primary only -->
      <defs>
       <path id="BitstreamVeraSans-Roman-20"/>
       <path d="M 52 44.1875 
Q 55.375 50.25 60.0625 53.125 
Q 64.75 56 71.09375 56 
Q 79.640625 56 84.28125 50.015625 
Q 88.921875 44.046875 88.921875 33.015625 
L 88.921875 0 
L 79.890625 0 
L 79.890625 32.71875 
Q 79.890625 40.578125 77.09375 44.375 
Q 74.3125 48.1875 68.609375 48.1875 
Q 61.625 48.1875 57.5625 43.546875 
Q 53.515625 38.921875 53.515625 30.90625 
L 53.515625 0 
L 44.484375 0 
L 44.484375 32.71875 
Q 44.484375 40.625 41.703125 44.40625 
Q 38.921875 48.1875 33.109375 48.1875 
Q 26.21875 48.1875 22.15625 43.53125 
Q 18.109375 38.875 18.109375 30.90625 
L 18.109375 0 
L 9.078125 0 
L 9.078125 54.6875 
L 18.109375 54.6875 
L 18.109375 46.1875 
Q 21.1875 51.21875 25.484375 53.609375 
Q 29.78125 56 35.6875 56 
Q 41.65625 56 45.828125 52.96875 
Q 50 49.953125 52 44.1875 
" id="BitstreamVeraSans-Roman-6d"/>
       <path d="M 54.890625 33.015625 
L 54.890625 0 
L 45.90625 0 
L 45.90625 32.71875 
Q 45.90625 40.484375 42.875 44.328125 
Q 39.84375 48.1875 33.796875 48.1875 
Q 26.515625 48.1875 22.3125 43.546875 
Q 18.109375 38.921875 18.109375 30.90625 
L 18.109375 0 
L 9.078125 0 
L 9.078125 54.6875 
L 18.109375 54.6875 
L 18.109375 46.1875 
Q 21.34375 51.125 25.703125 53.5625 
Q 30.078125 56 35.796875 56 
Q 45.21875 56 50.046875 50.171875 
Q 54.890625 44.34375 54.890625 33.015625 
" id="BitstreamVeraSans-Roman-6e"/>
       <path d="M 41.109375 46.296875 
Q 39.59375 47.171875 37.8125 47.578125 
Q 36.03125 48 33.890625 48 
Q 26.265625 48 22.1875 43.046875 
Q 18.109375 38.09375 18.109375 28.8125 
L 18.109375 0 
L 9.078125 0 
L 9.078125 54.6875 
L 18.109375 54.6875 
L 18.109375 46.1875 
Q 20.953125 51.171875 25.484375 53.578125 
Q 30.03125 56 36.53125 56 
Q 37.453125 56 38.578125 55.875 
Q 39.703125 55.765625 41.0625 55.515625 
z
" id="BitstreamVeraSans-Roman-72"/>
       <path d="M 30.609375 48.390625 
Q 23.390625 48.390625 19.1875 42.75 
Q 14.984375 37.109375 14.984375 27.296875 
Q 14.984375 17.484375 19.15625 11.84375 
Q 23.34375 6.203125 30.609375 6.203125 
Q 37.796875 6.203125 41.984375 11.859375 
Q 46.1875 17.53125 46.1875 27.296875 
Q 46.1875 37.015625 41.984375 42.703125 
Q 37.796875 48.390625 30.609375 48.390625 
M 30.609375 56 
Q 42.328125 56 49.015625 48.375 
Q 55.71875 40.765625 55.71875 27.296875 
Q 55.71875 13.875 49.015625 6.21875 
Q 42.328125 -1.421875 30.609375 -1.421875 
Q 18.84375 -1.421875 12.171875 6.21875 
Q 5.515625 13.875 5.515625 27.296875 
Q 5.515625 40.765625 12.171875 48.375 
Q 18.84375 56 30.609375 56 
" id="BitstreamVeraSans-Roman-6f"/>
       <path d="M 9.421875 75.984375 
L 18.40625 75.984375 
L 18.40625 0 
L 9.421875 0 
z
" id="BitstreamVeraSans-Roman-6c"/>
       <path d="M 9.421875 54.6875 
L 18.40625 54.6875 
L 18.40625 0 
L 9.421875 0 
z
M 9.421875 75.984375 
L 18.40625 75.984375 
L 18.40625 64.59375 
L 9.421875 64.59375 
z
" id="BitstreamVeraSans-Roman-69"/>
       <path d="M 32.171875 -5.078125 
Q 28.375 -14.84375 24.75 -17.8125 
Q 21.140625 -20.796875 15.09375 -20.796875 
L 7.90625 -20.796875 
L 7.90625 -13.28125 
L 13.1875 -13.28125 
Q 16.890625 -13.28125 18.9375 -11.515625 
Q 21 -9.765625 23.484375 -3.21875 
L 25.09375 0.875 
L 2.984375 54.6875 
L 12.5 54.6875 
L 29.59375 11.921875 
L 46.6875 54.6875 
L 56.203125 54.6875 
z
" id="BitstreamVeraSans-Roman-79"/>
       <path d="M 34.28125 27.484375 
Q 23.390625 27.484375 19.1875 25 
Q 14.984375 22.515625 14.984375 16.5 
Q 14.984375 11.71875 18.140625 8.90625 
Q 21.296875 6.109375 26.703125 6.109375 
Q 34.1875 6.109375 38.703125 11.40625 
Q 43.21875 16.703125 43.21875 25.484375 
L 43.21875 27.484375 
z
M 52.203125 31.203125 
L 52.203125 0 
L 43.21875 0 
L 43.21875 8.296875 
Q 40.140625 3.328125 35.546875 0.953125 
Q 30.953125 -1.421875 24.3125 -1.421875 
Q 15.921875 -1.421875 10.953125 3.296875 
Q 6 8.015625 6 15.921875 
Q 6 25.140625 12.171875 29.828125 
Q 18.359375 34.515625 30.609375 34.515625 
L 43.21875 34.515625 
L 43.21875 35.40625 
Q 43.21875 41.609375 39.140625 45 
Q 35.0625 48.390625 27.6875 48.390625 
Q 23 48.390625 18.546875 47.265625 
Q 14.109375 46.140625 10.015625 43.890625 
L 10.015625 52.203125 
Q 14.9375 54.109375 19.578125 55.046875 
Q 24.21875 56 28.609375 56 
Q 40.484375 56 46.34375 49.84375 
Q 52.203125 43.703125 52.203125 31.203125 
" id="BitstreamVeraSans-Roman-61"/>
      </defs>
      <g transform="translate(150.7 348.8490625)scale(0.16 -0.16)">
       <use xlink:href="#BitstreamVeraSans-Roman-50"/>
       <use x="60.287109375" xlink:href="#BitstreamVeraSans-Roman-72"/>
       <use x="101.400390625" xlink:href="#BitstreamVeraSans-Roman-69"/>
       <use x="129.18359375" xlink:href="#BitstreamVeraSans-Roman-6d"/>
       <use x="226.595703125" xlink:href="#BitstreamVeraSans-Roman-61"/>
       <use x="287.875" xlink:href="#BitstreamVeraSans-Roman-72"/>
       <use x="328.98828125" xlink:href="#BitstreamVeraSans-Roman-79"/>
       <use x="388.16796875" xlink:href="#BitstreamVeraSans-Roman-20"/>
       <use x="419.955078125" xlink:href="#BitstreamVeraSans-Roman-6f"/>
       <use x="481.13671875" xlink:href="#BitstreamVeraSans-Roman-6e"/>
       <use x="544.515625" xlink:href="#BitstreamVeraSans-Roman-6c"/>
       <use x="572.298828125" xlink:href="#BitstreamVeraSans-Roman-79"/>
      </g>
     </g>
    </g>
    <g id="ytick_2"/>
    <g id="ytick_3">
     <g id="text_3">
      <!-- Recurrent only -->
      <defs>
       <path d="M 56.203125 29.59375 
L 56.203125 25.203125 
L 14.890625 25.203125 
Q 15.484375 15.921875 20.484375 11.0625 
Q 25.484375 6.203125 34.421875 6.203125 
Q 39.59375 6.203125 44.453125 7.46875 
Q 49.3125 8.734375 54.109375 11.28125 
L 54.109375 2.78125 
Q 49.265625 0.734375 44.1875 -0.34375 
Q 39.109375 -1.421875 33.890625 -1.421875 
Q 20.796875 -1.421875 13.15625 6.1875 
Q 5.515625 13.8125 5.515625 26.8125 
Q 5.515625 40.234375 12.765625 48.109375 
Q 20.015625 56 32.328125 56 
Q 43.359375 56 49.78125 48.890625 
Q 56.203125 41.796875 56.203125 29.59375 
M 47.21875 32.234375 
Q 47.125 39.59375 43.09375 43.984375 
Q 39.0625 48.390625 32.421875 48.390625 
Q 24.90625 48.390625 20.390625 44.140625 
Q 15.875 39.890625 15.1875 32.171875 
z
" id="BitstreamVeraSans-Roman-65"/>
       <path d="M 44.390625 34.1875 
Q 47.5625 33.109375 50.5625 29.59375 
Q 53.5625 26.078125 56.59375 19.921875 
L 66.609375 0 
L 56 0 
L 46.6875 18.703125 
Q 43.0625 26.03125 39.671875 28.421875 
Q 36.28125 30.8125 30.421875 30.8125 
L 19.671875 30.8125 
L 19.671875 0 
L 9.8125 0 
L 9.8125 72.90625 
L 32.078125 72.90625 
Q 44.578125 72.90625 50.734375 67.671875 
Q 56.890625 62.453125 56.890625 51.90625 
Q 56.890625 45.015625 53.6875 40.46875 
Q 50.484375 35.9375 44.390625 34.1875 
M 19.671875 64.796875 
L 19.671875 38.921875 
L 32.078125 38.921875 
Q 39.203125 38.921875 42.84375 42.21875 
Q 46.484375 45.515625 46.484375 51.90625 
Q 46.484375 58.296875 42.84375 61.546875 
Q 39.203125 64.796875 32.078125 64.796875 
z
" id="BitstreamVeraSans-Roman-52"/>
       <path d="M 8.5 21.578125 
L 8.5 54.6875 
L 17.484375 54.6875 
L 17.484375 21.921875 
Q 17.484375 14.15625 20.5 10.265625 
Q 23.53125 6.390625 29.59375 6.390625 
Q 36.859375 6.390625 41.078125 11.03125 
Q 45.3125 15.671875 45.3125 23.6875 
L 45.3125 54.6875 
L 54.296875 54.6875 
L 54.296875 0 
L 45.3125 0 
L 45.3125 8.40625 
Q 42.046875 3.421875 37.71875 1 
Q 33.40625 -1.421875 27.6875 -1.421875 
Q 18.265625 -1.421875 13.375 4.4375 
Q 8.5 10.296875 8.5 21.578125 
" id="BitstreamVeraSans-Roman-75"/>
       <path d="M 18.3125 70.21875 
L 18.3125 54.6875 
L 36.8125 54.6875 
L 36.8125 47.703125 
L 18.3125 47.703125 
L 18.3125 18.015625 
Q 18.3125 11.328125 20.140625 9.421875 
Q 21.96875 7.515625 27.59375 7.515625 
L 36.8125 7.515625 
L 36.8125 0 
L 27.59375 0 
Q 17.1875 0 13.234375 3.875 
Q 9.28125 7.765625 9.28125 18.015625 
L 9.28125 47.703125 
L 2.6875 47.703125 
L 2.6875 54.6875 
L 9.28125 54.6875 
L 9.28125 70.21875 
z
" id="BitstreamVeraSans-Roman-74"/>
       <path d="M 48.78125 52.59375 
L 48.78125 44.1875 
Q 44.96875 46.296875 41.140625 47.34375 
Q 37.3125 48.390625 33.40625 48.390625 
Q 24.65625 48.390625 19.8125 42.84375 
Q 14.984375 37.3125 14.984375 27.296875 
Q 14.984375 17.28125 19.8125 11.734375 
Q 24.65625 6.203125 33.40625 6.203125 
Q 37.3125 6.203125 41.140625 7.25 
Q 44.96875 8.296875 48.78125 10.40625 
L 48.78125 2.09375 
Q 45.015625 0.34375 40.984375 -0.53125 
Q 36.96875 -1.421875 32.421875 -1.421875 
Q 20.0625 -1.421875 12.78125 6.34375 
Q 5.515625 14.109375 5.515625 27.296875 
Q 5.515625 40.671875 12.859375 48.328125 
Q 20.21875 56 33.015625 56 
Q 37.15625 56 41.109375 55.140625 
Q 45.0625 54.296875 48.78125 52.59375 
" id="BitstreamVeraSans-Roman-63"/>
      </defs>
      <g transform="translate(150.7 69.8490625)scale(0.16 -0.16)">
       <use xlink:href="#BitstreamVeraSans-Roman-52"/>
       <use x="69.419921875" xlink:href="#BitstreamVeraSans-Roman-65"/>
       <use x="130.943359375" xlink:href="#BitstreamVeraSans-Roman-63"/>
       <use x="185.923828125" xlink:href="#BitstreamVeraSans-Roman-75"/>
       <use x="249.302734375" xlink:href="#BitstreamVeraSans-Roman-72"/>
       <use x="290.400390625" xlink:href="#BitstreamVeraSans-Roman-72"/>
       <use x="331.482421875" xlink:href="#BitstreamVeraSans-Roman-65"/>
       <use x="393.005859375" xlink:href="#BitstreamVeraSans-Roman-6e"/>
       <use x="456.384765625" xlink:href="#BitstreamVeraSans-Roman-74"/>
       <use x="495.59375" xlink:href="#BitstreamVeraSans-Roman-20"/>
       <use x="527.380859375" xlink:href="#BitstreamVeraSans-Roman-6f"/>
       <use x="588.5625" xlink:href="#BitstreamVeraSans-Roman-6e"/>
       <use x="651.94140625" xlink:href="#BitstreamVeraSans-Roman-6c"/>
       <use x="679.724609375" xlink:href="#BitstreamVeraSans-Roman-79"/>
      </g>
     </g>
    </g>
   </g>
   <g id="text_4">
    <path d="M 30.504375 362.475312 
L 33.494063 362.475312 
L 33.494063 353.992812 
L 30.425625 354.625625 
L 30.425625 352.322187 
L 33.474375 351.689375 
L 36.691875 351.689375 
L 36.691875 362.475312 
L 39.681562 362.475312 
L 39.681562 364.8125 
L 30.504375 364.8125 
z
M 47.433164 358.335312 
Q 46.544414 358.335312 46.100039 358.911875 
Q 45.655664 359.485625 45.655664 360.63875 
Q 45.655664 361.789062 46.100039 362.365625 
Q 46.544414 362.939375 47.433164 362.939375 
Q 48.327539 362.939375 48.771914 362.365625 
Q 49.216289 361.789062 49.216289 360.63875 
Q 49.216289 359.485625 48.771914 358.911875 
Q 48.327539 358.335312 47.433164 358.335312 
M 51.615352 352.0325 
L 51.615352 354.459687 
Q 50.780039 354.063125 50.040352 353.874687 
Q 49.303477 353.68625 48.600352 353.68625 
Q 47.090039 353.68625 46.246289 354.527187 
Q 45.402539 355.365312 45.261914 357.01625 
Q 45.841289 356.585937 46.516289 356.372187 
Q 47.194102 356.155625 47.995664 356.155625 
Q 50.006602 356.155625 51.241289 357.334062 
Q 52.475977 358.509687 52.475977 360.416562 
Q 52.475977 362.525937 51.095039 363.797187 
Q 49.716914 365.068437 47.396602 365.068437 
Q 44.840039 365.068437 43.436602 363.341562 
Q 42.035977 361.611875 42.035977 358.439375 
Q 42.035977 355.188125 43.675664 353.329062 
Q 45.315352 351.47 48.170039 351.47 
Q 49.075664 351.47 49.927852 351.610625 
Q 50.780039 351.75125 51.615352 352.0325 
M 59.957578 358.335312 
Q 59.068828 358.335312 58.624453 358.911875 
Q 58.180078 359.485625 58.180078 360.63875 
Q 58.180078 361.789062 58.624453 362.365625 
Q 59.068828 362.939375 59.957578 362.939375 
Q 60.851953 362.939375 61.296328 362.365625 
Q 61.740703 361.789062 61.740703 360.63875 
Q 61.740703 359.485625 61.296328 358.911875 
Q 60.851953 358.335312 59.957578 358.335312 
M 64.139766 352.0325 
L 64.139766 354.459687 
Q 63.304453 354.063125 62.564766 353.874687 
Q 61.827891 353.68625 61.124766 353.68625 
Q 59.614453 353.68625 58.770703 354.527187 
Q 57.926953 355.365312 57.786328 357.01625 
Q 58.365703 356.585937 59.040703 356.372187 
Q 59.718516 356.155625 60.520078 356.155625 
Q 62.531016 356.155625 63.765703 357.334062 
Q 65.000391 358.509687 65.000391 360.416562 
Q 65.000391 362.525937 63.619453 363.797187 
Q 62.241328 365.068437 59.921016 365.068437 
Q 57.364453 365.068437 55.961016 363.341562 
Q 54.560391 361.611875 54.560391 358.439375 
Q 54.560391 355.188125 56.200078 353.329062 
Q 57.839766 351.47 60.694453 351.47 
Q 61.600078 351.47 62.452266 351.610625 
Q 63.304453 351.75125 64.139766 352.0325 
M 72.754805 367.18625 
L 70.141992 367.18625 
Q 68.797617 365.015 68.156367 363.060312 
Q 67.515117 361.102812 67.515117 359.179062 
Q 67.515117 357.2525 68.15918 355.280937 
Q 68.806055 353.306562 70.141992 351.155 
L 72.754805 351.155 
Q 71.629805 353.23625 71.067305 355.2275 
Q 70.504805 357.21875 70.504805 359.162187 
Q 70.504805 361.102812 71.06168 363.099687 
Q 71.618555 365.09375 72.754805 367.18625 
M 80.461055 358.94 
Q 79.513242 358.94 79.001367 359.460312 
Q 78.492305 359.977812 78.492305 360.945312 
Q 78.492305 361.912812 79.001367 362.4275 
Q 79.513242 362.939375 80.461055 362.939375 
Q 81.403242 362.939375 81.903867 362.4275 
Q 82.404492 361.912812 82.404492 360.945312 
Q 82.404492 359.969375 81.903867 359.454687 
Q 81.403242 358.94 80.461055 358.94 
M 77.99168 357.82625 
Q 76.796367 357.463437 76.188867 356.718125 
Q 75.58418 355.97 75.58418 354.853437 
Q 75.58418 353.194062 76.82168 352.325 
Q 78.061992 351.453125 80.461055 351.453125 
Q 82.843242 351.453125 84.080742 352.319375 
Q 85.321055 353.185625 85.321055 354.853437 
Q 85.321055 355.97 84.710742 356.718125 
Q 84.10043 357.463437 82.905117 357.82625 
Q 84.241055 358.194687 84.92168 359.024375 
Q 85.602305 359.854062 85.602305 361.119687 
Q 85.602305 363.071562 84.305742 364.07 
Q 83.00918 365.068437 80.461055 365.068437 
Q 77.904492 365.068437 76.599492 364.07 
Q 75.294492 363.071562 75.294492 361.119687 
Q 75.294492 359.854062 75.975117 359.024375 
Q 76.655742 358.194687 77.99168 357.82625 
M 78.781992 355.196562 
Q 78.781992 355.978437 79.21793 356.400312 
Q 79.653867 356.822187 80.461055 356.822187 
Q 81.251367 356.822187 81.68168 356.400312 
Q 82.114805 355.978437 82.114805 355.196562 
Q 82.114805 354.414687 81.68168 353.998437 
Q 81.251367 353.579375 80.461055 353.579375 
Q 79.653867 353.579375 79.21793 354.00125 
Q 78.781992 354.423125 78.781992 355.196562 
M 93.232969 358.335312 
Q 92.344219 358.335312 91.899844 358.911875 
Q 91.455469 359.485625 91.455469 360.63875 
Q 91.455469 361.789062 91.899844 362.365625 
Q 92.344219 362.939375 93.232969 362.939375 
Q 94.127344 362.939375 94.571719 362.365625 
Q 95.016094 361.789062 95.016094 360.63875 
Q 95.016094 359.485625 94.571719 358.911875 
Q 94.127344 358.335312 93.232969 358.335312 
M 97.415156 352.0325 
L 97.415156 354.459687 
Q 96.579844 354.063125 95.840156 353.874687 
Q 95.103281 353.68625 94.400156 353.68625 
Q 92.889844 353.68625 92.046094 354.527187 
Q 91.202344 355.365312 91.061719 357.01625 
Q 91.641094 356.585937 92.316094 356.372187 
Q 92.993906 356.155625 93.795469 356.155625 
Q 95.806406 356.155625 97.041094 357.334062 
Q 98.275781 358.509687 98.275781 360.416562 
Q 98.275781 362.525937 96.894844 363.797187 
Q 95.516719 365.068437 93.196406 365.068437 
Q 90.639844 365.068437 89.236406 363.341562 
Q 87.835781 361.611875 87.835781 358.439375 
Q 87.835781 355.188125 89.475469 353.329062 
Q 91.115156 351.47 93.969844 351.47 
Q 94.875469 351.47 95.727656 351.610625 
Q 96.579844 351.75125 97.415156 352.0325 
M 113.19082 359.398437 
Q 112.569258 359.398437 112.226133 359.938437 
Q 111.883008 360.478437 111.883008 361.4825 
Q 111.883008 362.492187 112.220508 363.032187 
Q 112.558008 363.572187 113.19082 363.572187 
Q 113.823633 363.572187 114.15832 363.032187 
Q 114.493008 362.492187 114.493008 361.4825 
Q 114.493008 360.478437 114.152695 359.938437 
Q 113.815195 359.398437 113.19082 359.398437 
M 113.19082 357.921875 
Q 114.827695 357.921875 115.76707 358.8725 
Q 116.706445 359.820312 116.706445 361.4825 
Q 116.706445 363.141875 115.76707 364.106562 
Q 114.827695 365.068437 113.19082 365.068437 
Q 111.556758 365.068437 110.611758 364.106562 
Q 109.666758 363.141875 109.666758 361.4825 
Q 109.666758 359.82875 110.611758 358.875312 
Q 111.556758 357.921875 113.19082 357.921875 
M 105.133008 365.068437 
L 103.18957 365.068437 
L 111.39082 351.453125 
L 113.342695 351.453125 
z
M 103.330195 351.453125 
Q 104.964258 351.453125 105.90082 352.406562 
Q 106.837383 353.36 106.837383 355.022187 
Q 106.837383 356.681562 105.90082 357.640625 
Q 104.964258 358.599687 103.330195 358.599687 
Q 101.696133 358.599687 100.75957 357.640625 
Q 99.823008 356.681562 99.823008 355.022187 
Q 99.823008 353.36 100.75957 352.406562 
Q 101.696133 351.453125 103.330195 351.453125 
M 103.330195 352.929687 
Q 102.697383 352.929687 102.354258 353.475312 
Q 102.011133 354.018125 102.011133 355.022187 
Q 102.011133 356.031875 102.354258 356.583125 
Q 102.697383 357.131562 103.330195 357.131562 
Q 103.963008 357.131562 104.300508 356.583125 
Q 104.64082 356.031875 104.64082 355.022187 
Q 104.64082 354.018125 104.297695 353.475312 
Q 103.95457 352.929687 103.330195 352.929687 
M 118.721602 367.18625 
Q 119.846602 365.09375 120.409102 363.099687 
Q 120.971602 361.102812 120.971602 359.162187 
Q 120.971602 357.21875 120.409102 355.2275 
Q 119.846602 353.23625 118.721602 351.155 
L 121.331602 351.155 
Q 122.667539 353.306562 123.311602 355.280937 
Q 123.958477 357.2525 123.958477 359.179062 
Q 123.958477 361.102812 123.317227 363.060312 
Q 122.675977 365.015 121.331602 367.18625 
z
" style="fill:#ffffff;stroke:#000000;stroke-width:5.0;"/>
    <path d="M 30.504375 362.475312 
L 33.494063 362.475312 
L 33.494063 353.992812 
L 30.425625 354.625625 
L 30.425625 352.322187 
L 33.474375 351.689375 
L 36.691875 351.689375 
L 36.691875 362.475312 
L 39.681562 362.475312 
L 39.681562 364.8125 
L 30.504375 364.8125 
z
M 47.433164 358.335312 
Q 46.544414 358.335312 46.100039 358.911875 
Q 45.655664 359.485625 45.655664 360.63875 
Q 45.655664 361.789062 46.100039 362.365625 
Q 46.544414 362.939375 47.433164 362.939375 
Q 48.327539 362.939375 48.771914 362.365625 
Q 49.216289 361.789062 49.216289 360.63875 
Q 49.216289 359.485625 48.771914 358.911875 
Q 48.327539 358.335312 47.433164 358.335312 
M 51.615352 352.0325 
L 51.615352 354.459687 
Q 50.780039 354.063125 50.040352 353.874687 
Q 49.303477 353.68625 48.600352 353.68625 
Q 47.090039 353.68625 46.246289 354.527187 
Q 45.402539 355.365312 45.261914 357.01625 
Q 45.841289 356.585937 46.516289 356.372187 
Q 47.194102 356.155625 47.995664 356.155625 
Q 50.006602 356.155625 51.241289 357.334062 
Q 52.475977 358.509687 52.475977 360.416562 
Q 52.475977 362.525937 51.095039 363.797187 
Q 49.716914 365.068437 47.396602 365.068437 
Q 44.840039 365.068437 43.436602 363.341562 
Q 42.035977 361.611875 42.035977 358.439375 
Q 42.035977 355.188125 43.675664 353.329062 
Q 45.315352 351.47 48.170039 351.47 
Q 49.075664 351.47 49.927852 351.610625 
Q 50.780039 351.75125 51.615352 352.0325 
M 59.957578 358.335312 
Q 59.068828 358.335312 58.624453 358.911875 
Q 58.180078 359.485625 58.180078 360.63875 
Q 58.180078 361.789062 58.624453 362.365625 
Q 59.068828 362.939375 59.957578 362.939375 
Q 60.851953 362.939375 61.296328 362.365625 
Q 61.740703 361.789062 61.740703 360.63875 
Q 61.740703 359.485625 61.296328 358.911875 
Q 60.851953 358.335312 59.957578 358.335312 
M 64.139766 352.0325 
L 64.139766 354.459687 
Q 63.304453 354.063125 62.564766 353.874687 
Q 61.827891 353.68625 61.124766 353.68625 
Q 59.614453 353.68625 58.770703 354.527187 
Q 57.926953 355.365312 57.786328 357.01625 
Q 58.365703 356.585937 59.040703 356.372187 
Q 59.718516 356.155625 60.520078 356.155625 
Q 62.531016 356.155625 63.765703 357.334062 
Q 65.000391 358.509687 65.000391 360.416562 
Q 65.000391 362.525937 63.619453 363.797187 
Q 62.241328 365.068437 59.921016 365.068437 
Q 57.364453 365.068437 55.961016 363.341562 
Q 54.560391 361.611875 54.560391 358.439375 
Q 54.560391 355.188125 56.200078 353.329062 
Q 57.839766 351.47 60.694453 351.47 
Q 61.600078 351.47 62.452266 351.610625 
Q 63.304453 351.75125 64.139766 352.0325 
M 72.754805 367.18625 
L 70.141992 367.18625 
Q 68.797617 365.015 68.156367 363.060312 
Q 67.515117 361.102812 67.515117 359.179062 
Q 67.515117 357.2525 68.15918 355.280937 
Q 68.806055 353.306562 70.141992 351.155 
L 72.754805 351.155 
Q 71.629805 353.23625 71.067305 355.2275 
Q 70.504805 357.21875 70.504805 359.162187 
Q 70.504805 361.102812 71.06168 363.099687 
Q 71.618555 365.09375 72.754805 367.18625 
M 80.461055 358.94 
Q 79.513242 358.94 79.001367 359.460312 
Q 78.492305 359.977812 78.492305 360.945312 
Q 78.492305 361.912812 79.001367 362.4275 
Q 79.513242 362.939375 80.461055 362.939375 
Q 81.403242 362.939375 81.903867 362.4275 
Q 82.404492 361.912812 82.404492 360.945312 
Q 82.404492 359.969375 81.903867 359.454687 
Q 81.403242 358.94 80.461055 358.94 
M 77.99168 357.82625 
Q 76.796367 357.463437 76.188867 356.718125 
Q 75.58418 355.97 75.58418 354.853437 
Q 75.58418 353.194062 76.82168 352.325 
Q 78.061992 351.453125 80.461055 351.453125 
Q 82.843242 351.453125 84.080742 352.319375 
Q 85.321055 353.185625 85.321055 354.853437 
Q 85.321055 355.97 84.710742 356.718125 
Q 84.10043 357.463437 82.905117 357.82625 
Q 84.241055 358.194687 84.92168 359.024375 
Q 85.602305 359.854062 85.602305 361.119687 
Q 85.602305 363.071562 84.305742 364.07 
Q 83.00918 365.068437 80.461055 365.068437 
Q 77.904492 365.068437 76.599492 364.07 
Q 75.294492 363.071562 75.294492 361.119687 
Q 75.294492 359.854062 75.975117 359.024375 
Q 76.655742 358.194687 77.99168 357.82625 
M 78.781992 355.196562 
Q 78.781992 355.978437 79.21793 356.400312 
Q 79.653867 356.822187 80.461055 356.822187 
Q 81.251367 356.822187 81.68168 356.400312 
Q 82.114805 355.978437 82.114805 355.196562 
Q 82.114805 354.414687 81.68168 353.998437 
Q 81.251367 353.579375 80.461055 353.579375 
Q 79.653867 353.579375 79.21793 354.00125 
Q 78.781992 354.423125 78.781992 355.196562 
M 93.232969 358.335312 
Q 92.344219 358.335312 91.899844 358.911875 
Q 91.455469 359.485625 91.455469 360.63875 
Q 91.455469 361.789062 91.899844 362.365625 
Q 92.344219 362.939375 93.232969 362.939375 
Q 94.127344 362.939375 94.571719 362.365625 
Q 95.016094 361.789062 95.016094 360.63875 
Q 95.016094 359.485625 94.571719 358.911875 
Q 94.127344 358.335312 93.232969 358.335312 
M 97.415156 352.0325 
L 97.415156 354.459687 
Q 96.579844 354.063125 95.840156 353.874687 
Q 95.103281 353.68625 94.400156 353.68625 
Q 92.889844 353.68625 92.046094 354.527187 
Q 91.202344 355.365312 91.061719 357.01625 
Q 91.641094 356.585937 92.316094 356.372187 
Q 92.993906 356.155625 93.795469 356.155625 
Q 95.806406 356.155625 97.041094 357.334062 
Q 98.275781 358.509687 98.275781 360.416562 
Q 98.275781 362.525937 96.894844 363.797187 
Q 95.516719 365.068437 93.196406 365.068437 
Q 90.639844 365.068437 89.236406 363.341562 
Q 87.835781 361.611875 87.835781 358.439375 
Q 87.835781 355.188125 89.475469 353.329062 
Q 91.115156 351.47 93.969844 351.47 
Q 94.875469 351.47 95.727656 351.610625 
Q 96.579844 351.75125 97.415156 352.0325 
M 113.19082 359.398437 
Q 112.569258 359.398437 112.226133 359.938437 
Q 111.883008 360.478437 111.883008 361.4825 
Q 111.883008 362.492187 112.220508 363.032187 
Q 112.558008 363.572187 113.19082 363.572187 
Q 113.823633 363.572187 114.15832 363.032187 
Q 114.493008 362.492187 114.493008 361.4825 
Q 114.493008 360.478437 114.152695 359.938437 
Q 113.815195 359.398437 113.19082 359.398437 
M 113.19082 357.921875 
Q 114.827695 357.921875 115.76707 358.8725 
Q 116.706445 359.820312 116.706445 361.4825 
Q 116.706445 363.141875 115.76707 364.106562 
Q 114.827695 365.068437 113.19082 365.068437 
Q 111.556758 365.068437 110.611758 364.106562 
Q 109.666758 363.141875 109.666758 361.4825 
Q 109.666758 359.82875 110.611758 358.875312 
Q 111.556758 357.921875 113.19082 357.921875 
M 105.133008 365.068437 
L 103.18957 365.068437 
L 111.39082 351.453125 
L 113.342695 351.453125 
z
M 103.330195 351.453125 
Q 104.964258 351.453125 105.90082 352.406562 
Q 106.837383 353.36 106.837383 355.022187 
Q 106.837383 356.681562 105.90082 357.640625 
Q 104.964258 358.599687 103.330195 358.599687 
Q 101.696133 358.599687 100.75957 357.640625 
Q 99.823008 356.681562 99.823008 355.022187 
Q 99.823008 353.36 100.75957 352.406562 
Q 101.696133 351.453125 103.330195 351.453125 
M 103.330195 352.929687 
Q 102.697383 352.929687 102.354258 353.475312 
Q 102.011133 354.018125 102.011133 355.022187 
Q 102.011133 356.031875 102.354258 356.583125 
Q 102.697383 357.131562 103.330195 357.131562 
Q 103.963008 357.131562 104.300508 356.583125 
Q 104.64082 356.031875 104.64082 355.022187 
Q 104.64082 354.018125 104.297695 353.475312 
Q 103.95457 352.929687 103.330195 352.929687 
M 118.721602 367.18625 
Q 119.846602 365.09375 120.409102 363.099687 
Q 120.971602 361.102812 120.971602 359.162187 
Q 120.971602 357.21875 120.409102 355.2275 
Q 119.846602 353.23625 118.721602 351.155 
L 121.331602 351.155 
Q 122.667539 353.306562 123.311602 355.280937 
Q 123.958477 357.2525 123.958477 359.179062 
Q 123.958477 361.102812 123.317227 363.060312 
Q 122.675977 365.015 121.331602 367.18625 
z
" style="fill:#ffffff;"/>
   </g>
   <g id="text_5">
    <path d="M 39.843281 62.9825 
L 45.617344 62.9825 
L 45.617344 65.46875 
L 36.080156 65.46875 
L 36.080156 62.9825 
L 40.869844 58.7525 
Q 41.513906 58.173125 41.820469 57.619062 
Q 42.127031 57.065 42.127031 56.46875 
Q 42.127031 55.54625 41.508281 54.98375 
Q 40.889531 54.42125 39.860156 54.42125 
Q 39.069844 54.42125 38.127656 54.75875 
Q 37.188281 55.09625 36.116719 55.765625 
L 36.116719 52.882812 
Q 37.258594 52.505937 38.375156 52.309062 
Q 39.491719 52.109375 40.563281 52.109375 
Q 42.920156 52.109375 44.225156 53.147187 
Q 45.530156 54.182187 45.530156 56.038437 
Q 45.530156 57.11 44.976094 58.038125 
Q 44.422031 58.963437 42.647344 60.521562 
z
M 53.695195 58.991562 
Q 52.806445 58.991562 52.36207 59.568125 
Q 51.917695 60.141875 51.917695 61.295 
Q 51.917695 62.445312 52.36207 63.021875 
Q 52.806445 63.595625 53.695195 63.595625 
Q 54.58957 63.595625 55.033945 63.021875 
Q 55.47832 62.445312 55.47832 61.295 
Q 55.47832 60.141875 55.033945 59.568125 
Q 54.58957 58.991562 53.695195 58.991562 
M 57.877383 52.68875 
L 57.877383 55.115937 
Q 57.04207 54.719375 56.302383 54.530937 
Q 55.565508 54.3425 54.862383 54.3425 
Q 53.35207 54.3425 52.50832 55.183437 
Q 51.66457 56.021562 51.523945 57.6725 
Q 52.10332 57.242187 52.77832 57.028437 
Q 53.456133 56.811875 54.257695 56.811875 
Q 56.268633 56.811875 57.50332 57.990312 
Q 58.738008 59.165937 58.738008 61.072812 
Q 58.738008 63.182187 57.35707 64.453437 
Q 55.978945 65.724687 53.658633 65.724687 
Q 51.10207 65.724687 49.698633 63.997812 
Q 48.298008 62.268125 48.298008 59.095625 
Q 48.298008 55.844375 49.937695 53.985312 
Q 51.577383 52.12625 54.43207 52.12625 
Q 55.337695 52.12625 56.189883 52.266875 
Q 57.04207 52.4075 57.877383 52.68875 
M 66.492422 67.8425 
L 63.879609 67.8425 
Q 62.535234 65.67125 61.893984 63.716562 
Q 61.252734 61.759062 61.252734 59.835312 
Q 61.252734 57.90875 61.896797 55.937187 
Q 62.543672 53.962812 63.879609 51.81125 
L 66.492422 51.81125 
Q 65.367422 53.8925 64.804922 55.88375 
Q 64.242422 57.875 64.242422 59.818437 
Q 64.242422 61.759062 64.799297 63.755937 
Q 65.356172 65.75 66.492422 67.8425 
M 70.041797 63.131562 
L 73.031484 63.131562 
L 73.031484 54.649062 
L 69.963047 55.281875 
L 69.963047 52.978437 
L 73.011797 52.345625 
L 76.229297 52.345625 
L 76.229297 63.131562 
L 79.218984 63.131562 
L 79.218984 65.46875 
L 70.041797 65.46875 
z
M 88.840898 58.3925 
Q 90.168398 58.735625 90.857461 59.585 
Q 91.549336 60.431562 91.549336 61.742187 
Q 91.549336 63.694062 90.053086 64.709375 
Q 88.559648 65.724687 85.696523 65.724687 
Q 84.684023 65.724687 83.668711 65.561562 
Q 82.653398 65.398437 81.660586 65.072187 
L 81.660586 62.462187 
Q 82.611211 62.9375 83.544961 63.179375 
Q 84.481523 63.42125 85.387148 63.42125 
Q 86.731523 63.42125 87.448711 62.957187 
Q 88.165898 62.490312 88.165898 61.618437 
Q 88.165898 60.72125 87.431836 60.26 
Q 86.697773 59.79875 85.263398 59.79875 
L 83.910586 59.79875 
L 83.910586 57.619062 
L 85.333711 57.619062 
Q 86.610586 57.619062 87.232148 57.219687 
Q 87.856523 56.820312 87.856523 56.001875 
Q 87.856523 55.248125 87.249023 54.834687 
Q 86.644336 54.42125 85.536211 54.42125 
Q 84.720586 54.42125 83.885273 54.606875 
Q 83.049961 54.789687 82.223086 55.149687 
L 82.223086 52.671875 
Q 83.224336 52.390625 84.208711 52.25 
Q 85.193086 52.109375 86.143711 52.109375 
Q 88.700273 52.109375 89.968711 52.950312 
Q 91.239961 53.788437 91.239961 55.475937 
Q 91.239961 56.62625 90.632461 57.360312 
Q 90.027773 58.094375 88.840898 58.3925 
M 106.928438 60.054687 
Q 106.306875 60.054687 105.96375 60.594687 
Q 105.620625 61.134687 105.620625 62.13875 
Q 105.620625 63.148437 105.958125 63.688437 
Q 106.295625 64.228437 106.928438 64.228437 
Q 107.56125 64.228437 107.895938 63.688437 
Q 108.230625 63.148437 108.230625 62.13875 
Q 108.230625 61.134687 107.890312 60.594687 
Q 107.552813 60.054687 106.928438 60.054687 
M 106.928438 58.578125 
Q 108.565313 58.578125 109.504688 59.52875 
Q 110.444063 60.476562 110.444063 62.13875 
Q 110.444063 63.798125 109.504688 64.762812 
Q 108.565313 65.724687 106.928438 65.724687 
Q 105.294375 65.724687 104.349375 64.762812 
Q 103.404375 63.798125 103.404375 62.13875 
Q 103.404375 60.485 104.349375 59.531562 
Q 105.294375 58.578125 106.928438 58.578125 
M 98.870625 65.724687 
L 96.927188 65.724687 
L 105.128438 52.109375 
L 107.080313 52.109375 
z
M 97.067813 52.109375 
Q 98.701875 52.109375 99.638437 53.062812 
Q 100.575 54.01625 100.575 55.678437 
Q 100.575 57.337812 99.638437 58.296875 
Q 98.701875 59.255937 97.067813 59.255937 
Q 95.43375 59.255937 94.497187 58.296875 
Q 93.560625 57.337812 93.560625 55.678437 
Q 93.560625 54.01625 94.497187 53.062812 
Q 95.43375 52.109375 97.067813 52.109375 
M 97.067813 53.585937 
Q 96.435 53.585937 96.091875 54.131562 
Q 95.74875 54.674375 95.74875 55.678437 
Q 95.74875 56.688125 96.091875 57.239375 
Q 96.435 57.787812 97.067813 57.787812 
Q 97.700625 57.787812 98.038125 57.239375 
Q 98.378438 56.688125 98.378438 55.678437 
Q 98.378438 54.674375 98.035313 54.131562 
Q 97.692188 53.585937 97.067813 53.585937 
M 112.459219 67.8425 
Q 113.584219 65.75 114.146719 63.755937 
Q 114.709219 61.759062 114.709219 59.818437 
Q 114.709219 57.875 114.146719 55.88375 
Q 113.584219 53.8925 112.459219 51.81125 
L 115.069219 51.81125 
Q 116.405156 53.962812 117.049219 55.937187 
Q 117.696094 57.90875 117.696094 59.835312 
Q 117.696094 61.759062 117.054844 63.716562 
Q 116.413594 65.67125 115.069219 67.8425 
z
" style="fill:#ffffff;stroke:#000000;stroke-width:5.0;"/>
    <path d="M 39.843281 62.9825 
L 45.617344 62.9825 
L 45.617344 65.46875 
L 36.080156 65.46875 
L 36.080156 62.9825 
L 40.869844 58.7525 
Q 41.513906 58.173125 41.820469 57.619062 
Q 42.127031 57.065 42.127031 56.46875 
Q 42.127031 55.54625 41.508281 54.98375 
Q 40.889531 54.42125 39.860156 54.42125 
Q 39.069844 54.42125 38.127656 54.75875 
Q 37.188281 55.09625 36.116719 55.765625 
L 36.116719 52.882812 
Q 37.258594 52.505937 38.375156 52.309062 
Q 39.491719 52.109375 40.563281 52.109375 
Q 42.920156 52.109375 44.225156 53.147187 
Q 45.530156 54.182187 45.530156 56.038437 
Q 45.530156 57.11 44.976094 58.038125 
Q 44.422031 58.963437 42.647344 60.521562 
z
M 53.695195 58.991562 
Q 52.806445 58.991562 52.36207 59.568125 
Q 51.917695 60.141875 51.917695 61.295 
Q 51.917695 62.445312 52.36207 63.021875 
Q 52.806445 63.595625 53.695195 63.595625 
Q 54.58957 63.595625 55.033945 63.021875 
Q 55.47832 62.445312 55.47832 61.295 
Q 55.47832 60.141875 55.033945 59.568125 
Q 54.58957 58.991562 53.695195 58.991562 
M 57.877383 52.68875 
L 57.877383 55.115937 
Q 57.04207 54.719375 56.302383 54.530937 
Q 55.565508 54.3425 54.862383 54.3425 
Q 53.35207 54.3425 52.50832 55.183437 
Q 51.66457 56.021562 51.523945 57.6725 
Q 52.10332 57.242187 52.77832 57.028437 
Q 53.456133 56.811875 54.257695 56.811875 
Q 56.268633 56.811875 57.50332 57.990312 
Q 58.738008 59.165937 58.738008 61.072812 
Q 58.738008 63.182187 57.35707 64.453437 
Q 55.978945 65.724687 53.658633 65.724687 
Q 51.10207 65.724687 49.698633 63.997812 
Q 48.298008 62.268125 48.298008 59.095625 
Q 48.298008 55.844375 49.937695 53.985312 
Q 51.577383 52.12625 54.43207 52.12625 
Q 55.337695 52.12625 56.189883 52.266875 
Q 57.04207 52.4075 57.877383 52.68875 
M 66.492422 67.8425 
L 63.879609 67.8425 
Q 62.535234 65.67125 61.893984 63.716562 
Q 61.252734 61.759062 61.252734 59.835312 
Q 61.252734 57.90875 61.896797 55.937187 
Q 62.543672 53.962812 63.879609 51.81125 
L 66.492422 51.81125 
Q 65.367422 53.8925 64.804922 55.88375 
Q 64.242422 57.875 64.242422 59.818437 
Q 64.242422 61.759062 64.799297 63.755937 
Q 65.356172 65.75 66.492422 67.8425 
M 70.041797 63.131562 
L 73.031484 63.131562 
L 73.031484 54.649062 
L 69.963047 55.281875 
L 69.963047 52.978437 
L 73.011797 52.345625 
L 76.229297 52.345625 
L 76.229297 63.131562 
L 79.218984 63.131562 
L 79.218984 65.46875 
L 70.041797 65.46875 
z
M 88.840898 58.3925 
Q 90.168398 58.735625 90.857461 59.585 
Q 91.549336 60.431562 91.549336 61.742187 
Q 91.549336 63.694062 90.053086 64.709375 
Q 88.559648 65.724687 85.696523 65.724687 
Q 84.684023 65.724687 83.668711 65.561562 
Q 82.653398 65.398437 81.660586 65.072187 
L 81.660586 62.462187 
Q 82.611211 62.9375 83.544961 63.179375 
Q 84.481523 63.42125 85.387148 63.42125 
Q 86.731523 63.42125 87.448711 62.957187 
Q 88.165898 62.490312 88.165898 61.618437 
Q 88.165898 60.72125 87.431836 60.26 
Q 86.697773 59.79875 85.263398 59.79875 
L 83.910586 59.79875 
L 83.910586 57.619062 
L 85.333711 57.619062 
Q 86.610586 57.619062 87.232148 57.219687 
Q 87.856523 56.820312 87.856523 56.001875 
Q 87.856523 55.248125 87.249023 54.834687 
Q 86.644336 54.42125 85.536211 54.42125 
Q 84.720586 54.42125 83.885273 54.606875 
Q 83.049961 54.789687 82.223086 55.149687 
L 82.223086 52.671875 
Q 83.224336 52.390625 84.208711 52.25 
Q 85.193086 52.109375 86.143711 52.109375 
Q 88.700273 52.109375 89.968711 52.950312 
Q 91.239961 53.788437 91.239961 55.475937 
Q 91.239961 56.62625 90.632461 57.360312 
Q 90.027773 58.094375 88.840898 58.3925 
M 106.928438 60.054687 
Q 106.306875 60.054687 105.96375 60.594687 
Q 105.620625 61.134687 105.620625 62.13875 
Q 105.620625 63.148437 105.958125 63.688437 
Q 106.295625 64.228437 106.928438 64.228437 
Q 107.56125 64.228437 107.895938 63.688437 
Q 108.230625 63.148437 108.230625 62.13875 
Q 108.230625 61.134687 107.890312 60.594687 
Q 107.552813 60.054687 106.928438 60.054687 
M 106.928438 58.578125 
Q 108.565313 58.578125 109.504688 59.52875 
Q 110.444063 60.476562 110.444063 62.13875 
Q 110.444063 63.798125 109.504688 64.762812 
Q 108.565313 65.724687 106.928438 65.724687 
Q 105.294375 65.724687 104.349375 64.762812 
Q 103.404375 63.798125 103.404375 62.13875 
Q 103.404375 60.485 104.349375 59.531562 
Q 105.294375 58.578125 106.928438 58.578125 
M 98.870625 65.724687 
L 96.927188 65.724687 
L 105.128438 52.109375 
L 107.080313 52.109375 
z
M 97.067813 52.109375 
Q 98.701875 52.109375 99.638437 53.062812 
Q 100.575 54.01625 100.575 55.678437 
Q 100.575 57.337812 99.638437 58.296875 
Q 98.701875 59.255937 97.067813 59.255937 
Q 95.43375 59.255937 94.497187 58.296875 
Q 93.560625 57.337812 93.560625 55.678437 
Q 93.560625 54.01625 94.497187 53.062812 
Q 95.43375 52.109375 97.067813 52.109375 
M 97.067813 53.585937 
Q 96.435 53.585937 96.091875 54.131562 
Q 95.74875 54.674375 95.74875 55.678437 
Q 95.74875 56.688125 96.091875 57.239375 
Q 96.435 57.787812 97.067813 57.787812 
Q 97.700625 57.787812 98.038125 57.239375 
Q 98.378438 56.688125 98.378438 55.678437 
Q 98.378438 54.674375 98.035313 54.131562 
Q 97.692188 53.585937 97.067813 53.585937 
M 112.459219 67.8425 
Q 113.584219 65.75 114.146719 63.755937 
Q 114.709219 61.759062 114.709219 59.818437 
Q 114.709219 57.875 114.146719 55.88375 
Q 113.584219 53.8925 112.459219 51.81125 
L 115.069219 51.81125 
Q 116.405156 53.962812 117.049219 55.937187 
Q 117.696094 57.90875 117.696094 59.835312 
Q 117.696094 61.759062 117.054844 63.716562 
Q 116.413594 65.67125 115.069219 67.8425 
z
" style="fill:#ffffff;"/>
   </g>
  </g>
 </g>
 <defs>
  <clipPath id="p7531f1782f">
   <rect height="558.0" width="139.5" x="7.2" y="27.6528125"/>
  </clipPath>
 </defs>
</svg>
