<?xml version="1.0" encoding="utf-8" standalone="no"?>
<!DOCTYPE svg PUBLIC "-//W3C//DTD SVG 1.1//EN"
  "http://www.w3.org/Graphics/SVG/1.1/DTD/svg11.dtd">
<!-- Created with matplotlib (http://matplotlib.org/) -->
<svg height="592pt" version="1.1" viewBox="0 0 276 592" width="276pt" xmlns="http://www.w3.org/2000/svg" xmlns:xlink="http://www.w3.org/1999/xlink">
 <defs>
  <style type="text/css">
*{stroke-linecap:butt;stroke-linejoin:round;stroke-miterlimit:100000;}
  </style>
 </defs>
 <g id="figure_1">
  <g id="patch_1">
   <path d="M 0 592.852812 
L 276.125 592.852812 
L 276.125 0 
L 0 0 
z
" style="fill:#ffffff;"/>
  </g>
  <g id="axes_1">
   <g id="patch_2">
    <path d="M 7.2 585.652812 
L 146.7 585.652812 
L 146.7 27.652812 
L 7.2 27.652812 
z
" style="fill:#ffffff;"/>
   </g>
   <g id="patch_3">
    <path clip-path="url(#p0f3394e327)" d="M 7.2 585.652812 
L 146.7 585.652812 
L 146.7 450.558076 
L 7.2 450.558076 
z
" style="fill:#0100d5;stroke:#000000;stroke-linejoin:miter;"/>
   </g>
   <g id="patch_4">
    <path clip-path="url(#p0f3394e327)" d="M 7.2 450.558076 
L 146.7 450.558076 
L 146.7 268.473865 
L 7.2 268.473865 
z
" style="fill:#7f7f7f;stroke:#000000;stroke-linejoin:miter;"/>
   </g>
   <g id="patch_5">
    <path clip-path="url(#p0f3394e327)" d="M 7.2 268.473865 
L 146.7 268.473865 
L 146.7 27.652812 
L 7.2 27.652812 
z
" style="fill:#a40000;stroke:#000000;stroke-linejoin:miter;"/>
   </g>
   <g id="patch_6">
    <path d="M 7.2 585.652812 
L 146.7 585.652812 
" style="fill:none;stroke:#000000;stroke-linecap:square;stroke-linejoin:miter;"/>
   </g>
   <g id="matplotlib.axis_1">
    <g id="xtick_1">
     <g id="text_1">
      <!-- AC-P15 -->
      <defs>
       <path d="M 12.40625 8.296875 
L 28.515625 8.296875 
L 28.515625 63.921875 
L 10.984375 60.40625 
L 10.984375 69.390625 
L 28.421875 72.90625 
L 38.28125 72.90625 
L 38.28125 8.296875 
L 54.390625 8.296875 
L 54.390625 0 
L 12.40625 0 
z
" id="BitstreamVeraSans-Roman-31"/>
       <path d="M 10.796875 72.90625 
L 49.515625 72.90625 
L 49.515625 64.59375 
L 19.828125 64.59375 
L 19.828125 46.734375 
Q 21.96875 47.46875 24.109375 47.828125 
Q 26.265625 48.1875 28.421875 48.1875 
Q 40.625 48.1875 47.75 41.5 
Q 54.890625 34.8125 54.890625 23.390625 
Q 54.890625 11.625 47.5625 5.09375 
Q 40.234375 -1.421875 26.90625 -1.421875 
Q 22.3125 -1.421875 17.546875 -0.640625 
Q 12.796875 0.140625 7.71875 1.703125 
L 7.71875 11.625 
Q 12.109375 9.234375 16.796875 8.0625 
Q 21.484375 6.890625 26.703125 6.890625 
Q 35.15625 6.890625 40.078125 11.328125 
Q 45.015625 15.765625 45.015625 23.390625 
Q 45.015625 31 40.078125 35.4375 
Q 35.15625 39.890625 26.703125 39.890625 
Q 22.75 39.890625 18.8125 39.015625 
Q 14.890625 38.140625 10.796875 36.28125 
z
" id="BitstreamVeraSans-Roman-35"/>
       <path d="M 19.671875 64.796875 
L 19.671875 37.40625 
L 32.078125 37.40625 
Q 38.96875 37.40625 42.71875 40.96875 
Q 46.484375 44.53125 46.484375 51.125 
Q 46.484375 57.671875 42.71875 61.234375 
Q 38.96875 64.796875 32.078125 64.796875 
z
M 9.8125 72.90625 
L 32.078125 72.90625 
Q 44.34375 72.90625 50.609375 67.359375 
Q 56.890625 61.8125 56.890625 51.125 
Q 56.890625 40.328125 50.609375 34.8125 
Q 44.34375 29.296875 32.078125 29.296875 
L 19.671875 29.296875 
L 19.671875 0 
L 9.8125 0 
z
" id="BitstreamVeraSans-Roman-50"/>
       <path d="M 64.40625 67.28125 
L 64.40625 56.890625 
Q 59.421875 61.53125 53.78125 63.8125 
Q 48.140625 66.109375 41.796875 66.109375 
Q 29.296875 66.109375 22.65625 58.46875 
Q 16.015625 50.828125 16.015625 36.375 
Q 16.015625 21.96875 22.65625 14.328125 
Q 29.296875 6.6875 41.796875 6.6875 
Q 48.140625 6.6875 53.78125 8.984375 
Q 59.421875 11.28125 64.40625 15.921875 
L 64.40625 5.609375 
Q 59.234375 2.09375 53.4375 0.328125 
Q 47.65625 -1.421875 41.21875 -1.421875 
Q 24.65625 -1.421875 15.125 8.703125 
Q 5.609375 18.84375 5.609375 36.375 
Q 5.609375 53.953125 15.125 64.078125 
Q 24.65625 74.21875 41.21875 74.21875 
Q 47.75 74.21875 53.53125 72.484375 
Q 59.328125 70.75 64.40625 67.28125 
" id="BitstreamVeraSans-Roman-43"/>
       <path d="M 4.890625 31.390625 
L 31.203125 31.390625 
L 31.203125 23.390625 
L 4.890625 23.390625 
z
" id="BitstreamVeraSans-Roman-2d"/>
       <path d="M 34.1875 63.1875 
L 20.796875 26.90625 
L 47.609375 26.90625 
z
M 28.609375 72.90625 
L 39.796875 72.90625 
L 67.578125 0 
L 57.328125 0 
L 50.6875 18.703125 
L 17.828125 18.703125 
L 11.1875 0 
L 0.78125 0 
z
" id="BitstreamVeraSans-Roman-41"/>
      </defs>
      <g transform="translate(46.19328125 20.11734375)scale(0.17 -0.17)">
       <use xlink:href="#BitstreamVeraSans-Roman-41"/>
       <use x="68.392578125" xlink:href="#BitstreamVeraSans-Roman-43"/>
       <use x="138.216796875" xlink:href="#BitstreamVeraSans-Roman-2d"/>
       <use x="174.30078125" xlink:href="#BitstreamVeraSans-Roman-50"/>
       <use x="234.603515625" xlink:href="#BitstreamVeraSans-Roman-31"/>
       <use x="298.2265625" xlink:href="#BitstreamVeraSans-Roman-35"/>
      </g>
     </g>
    </g>
   </g>
   <g id="matplotlib.axis_2">
    <g id="ytick_1">
     <g id="text_2">
      <!-- Primary only -->
      <defs>
       <path id="BitstreamVeraSans-Roman-20"/>
       <path d="M 52 44.1875 
Q 55.375 50.25 60.0625 53.125 
Q 64.75 56 71.09375 56 
Q 79.640625 56 84.28125 50.015625 
Q 88.921875 44.046875 88.921875 33.015625 
L 88.921875 0 
L 79.890625 0 
L 79.890625 32.71875 
Q 79.890625 40.578125 77.09375 44.375 
Q 74.3125 48.1875 68.609375 48.1875 
Q 61.625 48.1875 57.5625 43.546875 
Q 53.515625 38.921875 53.515625 30.90625 
L 53.515625 0 
L 44.484375 0 
L 44.484375 32.71875 
Q 44.484375 40.625 41.703125 44.40625 
Q 38.921875 48.1875 33.109375 48.1875 
Q 26.21875 48.1875 22.15625 43.53125 
Q 18.109375 38.875 18.109375 30.90625 
L 18.109375 0 
L 9.078125 0 
L 9.078125 54.6875 
L 18.109375 54.6875 
L 18.109375 46.1875 
Q 21.1875 51.21875 25.484375 53.609375 
Q 29.78125 56 35.6875 56 
Q 41.65625 56 45.828125 52.96875 
Q 50 49.953125 52 44.1875 
" id="BitstreamVeraSans-Roman-6d"/>
       <path d="M 54.890625 33.015625 
L 54.890625 0 
L 45.90625 0 
L 45.90625 32.71875 
Q 45.90625 40.484375 42.875 44.328125 
Q 39.84375 48.1875 33.796875 48.1875 
Q 26.515625 48.1875 22.3125 43.546875 
Q 18.109375 38.921875 18.109375 30.90625 
L 18.109375 0 
L 9.078125 0 
L 9.078125 54.6875 
L 18.109375 54.6875 
L 18.109375 46.1875 
Q 21.34375 51.125 25.703125 53.5625 
Q 30.078125 56 35.796875 56 
Q 45.21875 56 50.046875 50.171875 
Q 54.890625 44.34375 54.890625 33.015625 
" id="BitstreamVeraSans-Roman-6e"/>
       <path d="M 41.109375 46.296875 
Q 39.59375 47.171875 37.8125 47.578125 
Q 36.03125 48 33.890625 48 
Q 26.265625 48 22.1875 43.046875 
Q 18.109375 38.09375 18.109375 28.8125 
L 18.109375 0 
L 9.078125 0 
L 9.078125 54.6875 
L 18.109375 54.6875 
L 18.109375 46.1875 
Q 20.953125 51.171875 25.484375 53.578125 
Q 30.03125 56 36.53125 56 
Q 37.453125 56 38.578125 55.875 
Q 39.703125 55.765625 41.0625 55.515625 
z
" id="BitstreamVeraSans-Roman-72"/>
       <path d="M 30.609375 48.390625 
Q 23.390625 48.390625 19.1875 42.75 
Q 14.984375 37.109375 14.984375 27.296875 
Q 14.984375 17.484375 19.15625 11.84375 
Q 23.34375 6.203125 30.609375 6.203125 
Q 37.796875 6.203125 41.984375 11.859375 
Q 46.1875 17.53125 46.1875 27.296875 
Q 46.1875 37.015625 41.984375 42.703125 
Q 37.796875 48.390625 30.609375 48.390625 
M 30.609375 56 
Q 42.328125 56 49.015625 48.375 
Q 55.71875 40.765625 55.71875 27.296875 
Q 55.71875 13.875 49.015625 6.21875 
Q 42.328125 -1.421875 30.609375 -1.421875 
Q 18.84375 -1.421875 12.171875 6.21875 
Q 5.515625 13.875 5.515625 27.296875 
Q 5.515625 40.765625 12.171875 48.375 
Q 18.84375 56 30.609375 56 
" id="BitstreamVeraSans-Roman-6f"/>
       <path d="M 9.421875 75.984375 
L 18.40625 75.984375 
L 18.40625 0 
L 9.421875 0 
z
" id="BitstreamVeraSans-Roman-6c"/>
       <path d="M 9.421875 54.6875 
L 18.40625 54.6875 
L 18.40625 0 
L 9.421875 0 
z
M 9.421875 75.984375 
L 18.40625 75.984375 
L 18.40625 64.59375 
L 9.421875 64.59375 
z
" id="BitstreamVeraSans-Roman-69"/>
       <path d="M 32.171875 -5.078125 
Q 28.375 -14.84375 24.75 -17.8125 
Q 21.140625 -20.796875 15.09375 -20.796875 
L 7.90625 -20.796875 
L 7.90625 -13.28125 
L 13.1875 -13.28125 
Q 16.890625 -13.28125 18.9375 -11.515625 
Q 21 -9.765625 23.484375 -3.21875 
L 25.09375 0.875 
L 2.984375 54.6875 
L 12.5 54.6875 
L 29.59375 11.921875 
L 46.6875 54.6875 
L 56.203125 54.6875 
z
" id="BitstreamVeraSans-Roman-79"/>
       <path d="M 34.28125 27.484375 
Q 23.390625 27.484375 19.1875 25 
Q 14.984375 22.515625 14.984375 16.5 
Q 14.984375 11.71875 18.140625 8.90625 
Q 21.296875 6.109375 26.703125 6.109375 
Q 34.1875 6.109375 38.703125 11.40625 
Q 43.21875 16.703125 43.21875 25.484375 
L 43.21875 27.484375 
z
M 52.203125 31.203125 
L 52.203125 0 
L 43.21875 0 
L 43.21875 8.296875 
Q 40.140625 3.328125 35.546875 0.953125 
Q 30.953125 -1.421875 24.3125 -1.421875 
Q 15.921875 -1.421875 10.953125 3.296875 
Q 6 8.015625 6 15.921875 
Q 6 25.140625 12.171875 29.828125 
Q 18.359375 34.515625 30.609375 34.515625 
L 43.21875 34.515625 
L 43.21875 35.40625 
Q 43.21875 41.609375 39.140625 45 
Q 35.0625 48.390625 27.6875 48.390625 
Q 23 48.390625 18.546875 47.265625 
Q 14.109375 46.140625 10.015625 43.890625 
L 10.015625 52.203125 
Q 14.9375 54.109375 19.578125 55.046875 
Q 24.21875 56 28.609375 56 
Q 40.484375 56 46.34375 49.84375 
Q 52.203125 43.703125 52.203125 31.203125 
" id="BitstreamVeraSans-Roman-61"/>
      </defs>
      <g transform="translate(150.7 522.520444079)scale(0.16 -0.16)">
       <use xlink:href="#BitstreamVeraSans-Roman-50"/>
       <use x="60.287109375" xlink:href="#BitstreamVeraSans-Roman-72"/>
       <use x="101.400390625" xlink:href="#BitstreamVeraSans-Roman-69"/>
       <use x="129.18359375" xlink:href="#BitstreamVeraSans-Roman-6d"/>
       <use x="226.595703125" xlink:href="#BitstreamVeraSans-Roman-61"/>
       <use x="287.875" xlink:href="#BitstreamVeraSans-Roman-72"/>
       <use x="328.98828125" xlink:href="#BitstreamVeraSans-Roman-79"/>
       <use x="388.16796875" xlink:href="#BitstreamVeraSans-Roman-20"/>
       <use x="419.955078125" xlink:href="#BitstreamVeraSans-Roman-6f"/>
       <use x="481.13671875" xlink:href="#BitstreamVeraSans-Roman-6e"/>
       <use x="544.515625" xlink:href="#BitstreamVeraSans-Roman-6c"/>
       <use x="572.298828125" xlink:href="#BitstreamVeraSans-Roman-79"/>
      </g>
     </g>
    </g>
    <g id="ytick_2">
     <g id="text_3">
      <!-- Shared -->
      <defs>
       <path d="M 56.203125 29.59375 
L 56.203125 25.203125 
L 14.890625 25.203125 
Q 15.484375 15.921875 20.484375 11.0625 
Q 25.484375 6.203125 34.421875 6.203125 
Q 39.59375 6.203125 44.453125 7.46875 
Q 49.3125 8.734375 54.109375 11.28125 
L 54.109375 2.78125 
Q 49.265625 0.734375 44.1875 -0.34375 
Q 39.109375 -1.421875 33.890625 -1.421875 
Q 20.796875 -1.421875 13.15625 6.1875 
Q 5.515625 13.8125 5.515625 26.8125 
Q 5.515625 40.234375 12.765625 48.109375 
Q 20.015625 56 32.328125 56 
Q 43.359375 56 49.78125 48.890625 
Q 56.203125 41.796875 56.203125 29.59375 
M 47.21875 32.234375 
Q 47.125 39.59375 43.09375 43.984375 
Q 39.0625 48.390625 32.421875 48.390625 
Q 24.90625 48.390625 20.390625 44.140625 
Q 15.875 39.890625 15.1875 32.171875 
z
" id="BitstreamVeraSans-Roman-65"/>
       <path d="M 45.40625 46.390625 
L 45.40625 75.984375 
L 54.390625 75.984375 
L 54.390625 0 
L 45.40625 0 
L 45.40625 8.203125 
Q 42.578125 3.328125 38.25 0.953125 
Q 33.9375 -1.421875 27.875 -1.421875 
Q 17.96875 -1.421875 11.734375 6.484375 
Q 5.515625 14.40625 5.515625 27.296875 
Q 5.515625 40.1875 11.734375 48.09375 
Q 17.96875 56 27.875 56 
Q 33.9375 56 38.25 53.625 
Q 42.578125 51.265625 45.40625 46.390625 
M 14.796875 27.296875 
Q 14.796875 17.390625 18.875 11.75 
Q 22.953125 6.109375 30.078125 6.109375 
Q 37.203125 6.109375 41.296875 11.75 
Q 45.40625 17.390625 45.40625 27.296875 
Q 45.40625 37.203125 41.296875 42.84375 
Q 37.203125 48.484375 30.078125 48.484375 
Q 22.953125 48.484375 18.875 42.84375 
Q 14.796875 37.203125 14.796875 27.296875 
" id="BitstreamVeraSans-Roman-64"/>
       <path d="M 53.515625 70.515625 
L 53.515625 60.890625 
Q 47.90625 63.578125 42.921875 64.890625 
Q 37.9375 66.21875 33.296875 66.21875 
Q 25.25 66.21875 20.875 63.09375 
Q 16.5 59.96875 16.5 54.203125 
Q 16.5 49.359375 19.40625 46.890625 
Q 22.3125 44.4375 30.421875 42.921875 
L 36.375 41.703125 
Q 47.40625 39.59375 52.65625 34.296875 
Q 57.90625 29 57.90625 20.125 
Q 57.90625 9.515625 50.796875 4.046875 
Q 43.703125 -1.421875 29.984375 -1.421875 
Q 24.8125 -1.421875 18.96875 -0.25 
Q 13.140625 0.921875 6.890625 3.21875 
L 6.890625 13.375 
Q 12.890625 10.015625 18.65625 8.296875 
Q 24.421875 6.59375 29.984375 6.59375 
Q 38.421875 6.59375 43.015625 9.90625 
Q 47.609375 13.234375 47.609375 19.390625 
Q 47.609375 24.75 44.3125 27.78125 
Q 41.015625 30.8125 33.5 32.328125 
L 27.484375 33.5 
Q 16.453125 35.6875 11.515625 40.375 
Q 6.59375 45.0625 6.59375 53.421875 
Q 6.59375 63.09375 13.40625 68.65625 
Q 20.21875 74.21875 32.171875 74.21875 
Q 37.3125 74.21875 42.625 73.28125 
Q 47.953125 72.359375 53.515625 70.515625 
" id="BitstreamVeraSans-Roman-53"/>
       <path d="M 54.890625 33.015625 
L 54.890625 0 
L 45.90625 0 
L 45.90625 32.71875 
Q 45.90625 40.484375 42.875 44.328125 
Q 39.84375 48.1875 33.796875 48.1875 
Q 26.515625 48.1875 22.3125 43.546875 
Q 18.109375 38.921875 18.109375 30.90625 
L 18.109375 0 
L 9.078125 0 
L 9.078125 75.984375 
L 18.109375 75.984375 
L 18.109375 46.1875 
Q 21.34375 51.125 25.703125 53.5625 
Q 30.078125 56 35.796875 56 
Q 45.21875 56 50.046875 50.171875 
Q 54.890625 44.34375 54.890625 33.015625 
" id="BitstreamVeraSans-Roman-68"/>
      </defs>
      <g transform="translate(150.7 363.930970395)scale(0.16 -0.16)">
       <use xlink:href="#BitstreamVeraSans-Roman-53"/>
       <use x="63.4765625" xlink:href="#BitstreamVeraSans-Roman-68"/>
       <use x="126.85546875" xlink:href="#BitstreamVeraSans-Roman-61"/>
       <use x="188.134765625" xlink:href="#BitstreamVeraSans-Roman-72"/>
       <use x="229.216796875" xlink:href="#BitstreamVeraSans-Roman-65"/>
       <use x="290.740234375" xlink:href="#BitstreamVeraSans-Roman-64"/>
      </g>
     </g>
    </g>
    <g id="ytick_3">
     <g id="text_4">
      <!-- Recurrent only -->
      <defs>
       <path d="M 44.390625 34.1875 
Q 47.5625 33.109375 50.5625 29.59375 
Q 53.5625 26.078125 56.59375 19.921875 
L 66.609375 0 
L 56 0 
L 46.6875 18.703125 
Q 43.0625 26.03125 39.671875 28.421875 
Q 36.28125 30.8125 30.421875 30.8125 
L 19.671875 30.8125 
L 19.671875 0 
L 9.8125 0 
L 9.8125 72.90625 
L 32.078125 72.90625 
Q 44.578125 72.90625 50.734375 67.671875 
Q 56.890625 62.453125 56.890625 51.90625 
Q 56.890625 45.015625 53.6875 40.46875 
Q 50.484375 35.9375 44.390625 34.1875 
M 19.671875 64.796875 
L 19.671875 38.921875 
L 32.078125 38.921875 
Q 39.203125 38.921875 42.84375 42.21875 
Q 46.484375 45.515625 46.484375 51.90625 
Q 46.484375 58.296875 42.84375 61.546875 
Q 39.203125 64.796875 32.078125 64.796875 
z
" id="BitstreamVeraSans-Roman-52"/>
       <path d="M 8.5 21.578125 
L 8.5 54.6875 
L 17.484375 54.6875 
L 17.484375 21.921875 
Q 17.484375 14.15625 20.5 10.265625 
Q 23.53125 6.390625 29.59375 6.390625 
Q 36.859375 6.390625 41.078125 11.03125 
Q 45.3125 15.671875 45.3125 23.6875 
L 45.3125 54.6875 
L 54.296875 54.6875 
L 54.296875 0 
L 45.3125 0 
L 45.3125 8.40625 
Q 42.046875 3.421875 37.71875 1 
Q 33.40625 -1.421875 27.6875 -1.421875 
Q 18.265625 -1.421875 13.375 4.4375 
Q 8.5 10.296875 8.5 21.578125 
" id="BitstreamVeraSans-Roman-75"/>
       <path d="M 18.3125 70.21875 
L 18.3125 54.6875 
L 36.8125 54.6875 
L 36.8125 47.703125 
L 18.3125 47.703125 
L 18.3125 18.015625 
Q 18.3125 11.328125 20.140625 9.421875 
Q 21.96875 7.515625 27.59375 7.515625 
L 36.8125 7.515625 
L 36.8125 0 
L 27.59375 0 
Q 17.1875 0 13.234375 3.875 
Q 9.28125 7.765625 9.28125 18.015625 
L 9.28125 47.703125 
L 2.6875 47.703125 
L 2.6875 54.6875 
L 9.28125 54.6875 
L 9.28125 70.21875 
z
" id="BitstreamVeraSans-Roman-74"/>
       <path d="M 48.78125 52.59375 
L 48.78125 44.1875 
Q 44.96875 46.296875 41.140625 47.34375 
Q 37.3125 48.390625 33.40625 48.390625 
Q 24.65625 48.390625 19.8125 42.84375 
Q 14.984375 37.3125 14.984375 27.296875 
Q 14.984375 17.28125 19.8125 11.734375 
Q 24.65625 6.203125 33.40625 6.203125 
Q 37.3125 6.203125 41.140625 7.25 
Q 44.96875 8.296875 48.78125 10.40625 
L 48.78125 2.09375 
Q 45.015625 0.34375 40.984375 -0.53125 
Q 36.96875 -1.421875 32.421875 -1.421875 
Q 20.0625 -1.421875 12.78125 6.34375 
Q 5.515625 14.109375 5.515625 27.296875 
Q 5.515625 40.671875 12.859375 48.328125 
Q 20.21875 56 33.015625 56 
Q 37.15625 56 41.109375 55.140625 
Q 45.0625 54.296875 48.78125 52.59375 
" id="BitstreamVeraSans-Roman-63"/>
      </defs>
      <g transform="translate(150.7 152.478338816)scale(0.16 -0.16)">
       <use xlink:href="#BitstreamVeraSans-Roman-52"/>
       <use x="69.419921875" xlink:href="#BitstreamVeraSans-Roman-65"/>
       <use x="130.943359375" xlink:href="#BitstreamVeraSans-Roman-63"/>
       <use x="185.923828125" xlink:href="#BitstreamVeraSans-Roman-75"/>
       <use x="249.302734375" xlink:href="#BitstreamVeraSans-Roman-72"/>
       <use x="290.400390625" xlink:href="#BitstreamVeraSans-Roman-72"/>
       <use x="331.482421875" xlink:href="#BitstreamVeraSans-Roman-65"/>
       <use x="393.005859375" xlink:href="#BitstreamVeraSans-Roman-6e"/>
       <use x="456.384765625" xlink:href="#BitstreamVeraSans-Roman-74"/>
       <use x="495.59375" xlink:href="#BitstreamVeraSans-Roman-20"/>
       <use x="527.380859375" xlink:href="#BitstreamVeraSans-Roman-6f"/>
       <use x="588.5625" xlink:href="#BitstreamVeraSans-Roman-6e"/>
       <use x="651.94140625" xlink:href="#BitstreamVeraSans-Roman-6c"/>
       <use x="679.724609375" xlink:href="#BitstreamVeraSans-Roman-79"/>
      </g>
     </g>
    </g>
   </g>
   <g id="text_5">
    <path d="M 39.843281 518.630493 
L 45.617344 518.630493 
L 45.617344 521.116743 
L 36.080156 521.116743 
L 36.080156 518.630493 
L 40.869844 514.400493 
Q 41.513906 513.821118 41.820469 513.267056 
Q 42.127031 512.712993 42.127031 512.116743 
Q 42.127031 511.194243 41.508281 510.631743 
Q 40.889531 510.069243 39.860156 510.069243 
Q 39.069844 510.069243 38.127656 510.406743 
Q 37.188281 510.744243 36.116719 511.413618 
L 36.116719 508.530806 
Q 37.258594 508.153931 38.375156 507.957056 
Q 39.491719 507.757368 40.563281 507.757368 
Q 42.920156 507.757368 44.225156 508.795181 
Q 45.530156 509.830181 45.530156 511.686431 
Q 45.530156 512.757993 44.976094 513.686118 
Q 44.422031 514.611431 42.647344 516.169556 
z
M 55.565508 514.040493 
Q 56.893008 514.383618 57.58207 515.232993 
Q 58.273945 516.079556 58.273945 517.390181 
Q 58.273945 519.342056 56.777695 520.357368 
Q 55.284258 521.372681 52.421133 521.372681 
Q 51.408633 521.372681 50.39332 521.209556 
Q 49.378008 521.046431 48.385195 520.720181 
L 48.385195 518.110181 
Q 49.33582 518.585493 50.26957 518.827368 
Q 51.206133 519.069243 52.111758 519.069243 
Q 53.456133 519.069243 54.17332 518.605181 
Q 54.890508 518.138306 54.890508 517.266431 
Q 54.890508 516.369243 54.156445 515.907993 
Q 53.422383 515.446743 51.988008 515.446743 
L 50.635195 515.446743 
L 50.635195 513.267056 
L 52.05832 513.267056 
Q 53.335195 513.267056 53.956758 512.867681 
Q 54.581133 512.468306 54.581133 511.649868 
Q 54.581133 510.896118 53.973633 510.482681 
Q 53.368945 510.069243 52.26082 510.069243 
Q 51.445195 510.069243 50.609883 510.254868 
Q 49.77457 510.437681 48.947695 510.797681 
L 48.947695 508.319868 
Q 49.948945 508.038618 50.93332 507.897993 
Q 51.917695 507.757368 52.86832 507.757368 
Q 55.424883 507.757368 56.69332 508.598306 
Q 57.96457 509.436431 57.96457 511.123931 
Q 57.96457 512.274243 57.35707 513.008306 
Q 56.752383 513.742368 55.565508 514.040493 
M 66.492422 523.490493 
L 63.879609 523.490493 
Q 62.535234 521.319243 61.893984 519.364556 
Q 61.252734 517.407056 61.252734 515.483306 
Q 61.252734 513.556743 61.896797 511.585181 
Q 62.543672 509.610806 63.879609 507.459243 
L 66.492422 507.459243 
Q 65.367422 509.540493 64.804922 511.531743 
Q 64.242422 513.522993 64.242422 515.466431 
Q 64.242422 517.407056 64.799297 519.403931 
Q 65.356172 521.397993 66.492422 523.490493 
M 73.118672 518.630493 
L 78.892734 518.630493 
L 78.892734 521.116743 
L 69.355547 521.116743 
L 69.355547 518.630493 
L 74.145234 514.400493 
Q 74.789297 513.821118 75.095859 513.267056 
Q 75.402422 512.712993 75.402422 512.116743 
Q 75.402422 511.194243 74.783672 510.631743 
Q 74.164922 510.069243 73.135547 510.069243 
Q 72.345234 510.069243 71.403047 510.406743 
Q 70.463672 510.744243 69.392109 511.413618 
L 69.392109 508.530806 
Q 70.533984 508.153931 71.650547 507.957056 
Q 72.767109 507.757368 73.838672 507.757368 
Q 76.195547 507.757368 77.500547 508.795181 
Q 78.805547 509.830181 78.805547 511.686431 
Q 78.805547 512.757993 78.251484 513.686118 
Q 77.697422 514.611431 75.922734 516.169556 
z
M 87.083086 510.780806 
L 83.376211 516.273618 
L 87.083086 516.273618 
z
M 86.520586 507.993618 
L 90.283711 507.993618 
L 90.283711 516.273618 
L 92.154023 516.273618 
L 92.154023 518.726118 
L 90.283711 518.726118 
L 90.283711 521.116743 
L 87.083086 521.116743 
L 87.083086 518.726118 
L 81.266836 518.726118 
L 81.266836 515.826431 
z
M 106.928438 515.702681 
Q 106.306875 515.702681 105.96375 516.242681 
Q 105.620625 516.782681 105.620625 517.786743 
Q 105.620625 518.796431 105.958125 519.336431 
Q 106.295625 519.876431 106.928438 519.876431 
Q 107.56125 519.876431 107.895938 519.336431 
Q 108.230625 518.796431 108.230625 517.786743 
Q 108.230625 516.782681 107.890312 516.242681 
Q 107.552813 515.702681 106.928438 515.702681 
M 106.928438 514.226118 
Q 108.565313 514.226118 109.504688 515.176743 
Q 110.444063 516.124556 110.444063 517.786743 
Q 110.444063 519.446118 109.504688 520.410806 
Q 108.565313 521.372681 106.928438 521.372681 
Q 105.294375 521.372681 104.349375 520.410806 
Q 103.404375 519.446118 103.404375 517.786743 
Q 103.404375 516.132993 104.349375 515.179556 
Q 105.294375 514.226118 106.928438 514.226118 
M 98.870625 521.372681 
L 96.927188 521.372681 
L 105.128438 507.757368 
L 107.080313 507.757368 
z
M 97.067813 507.757368 
Q 98.701875 507.757368 99.638437 508.710806 
Q 100.575 509.664243 100.575 511.326431 
Q 100.575 512.985806 99.638437 513.944868 
Q 98.701875 514.903931 97.067813 514.903931 
Q 95.43375 514.903931 94.497187 513.944868 
Q 93.560625 512.985806 93.560625 511.326431 
Q 93.560625 509.664243 94.497187 508.710806 
Q 95.43375 507.757368 97.067813 507.757368 
M 97.067813 509.233931 
Q 96.435 509.233931 96.091875 509.779556 
Q 95.74875 510.322368 95.74875 511.326431 
Q 95.74875 512.336118 96.091875 512.887368 
Q 96.435 513.435806 97.067813 513.435806 
Q 97.700625 513.435806 98.038125 512.887368 
Q 98.378438 512.336118 98.378438 511.326431 
Q 98.378438 510.322368 98.035313 509.779556 
Q 97.692188 509.233931 97.067813 509.233931 
M 112.459219 523.490493 
Q 113.584219 521.397993 114.146719 519.403931 
Q 114.709219 517.407056 114.709219 515.466431 
Q 114.709219 513.522993 114.146719 511.531743 
Q 113.584219 509.540493 112.459219 507.459243 
L 115.069219 507.459243 
Q 116.405156 509.610806 117.049219 511.585181 
Q 117.696094 513.556743 117.696094 515.483306 
Q 117.696094 517.407056 117.054844 519.364556 
Q 116.413594 521.319243 115.069219 523.490493 
z
" style="fill:#ffffff;stroke:#000000;stroke-width:5.0;"/>
    <path d="M 39.843281 518.630493 
L 45.617344 518.630493 
L 45.617344 521.116743 
L 36.080156 521.116743 
L 36.080156 518.630493 
L 40.869844 514.400493 
Q 41.513906 513.821118 41.820469 513.267056 
Q 42.127031 512.712993 42.127031 512.116743 
Q 42.127031 511.194243 41.508281 510.631743 
Q 40.889531 510.069243 39.860156 510.069243 
Q 39.069844 510.069243 38.127656 510.406743 
Q 37.188281 510.744243 36.116719 511.413618 
L 36.116719 508.530806 
Q 37.258594 508.153931 38.375156 507.957056 
Q 39.491719 507.757368 40.563281 507.757368 
Q 42.920156 507.757368 44.225156 508.795181 
Q 45.530156 509.830181 45.530156 511.686431 
Q 45.530156 512.757993 44.976094 513.686118 
Q 44.422031 514.611431 42.647344 516.169556 
z
M 55.565508 514.040493 
Q 56.893008 514.383618 57.58207 515.232993 
Q 58.273945 516.079556 58.273945 517.390181 
Q 58.273945 519.342056 56.777695 520.357368 
Q 55.284258 521.372681 52.421133 521.372681 
Q 51.408633 521.372681 50.39332 521.209556 
Q 49.378008 521.046431 48.385195 520.720181 
L 48.385195 518.110181 
Q 49.33582 518.585493 50.26957 518.827368 
Q 51.206133 519.069243 52.111758 519.069243 
Q 53.456133 519.069243 54.17332 518.605181 
Q 54.890508 518.138306 54.890508 517.266431 
Q 54.890508 516.369243 54.156445 515.907993 
Q 53.422383 515.446743 51.988008 515.446743 
L 50.635195 515.446743 
L 50.635195 513.267056 
L 52.05832 513.267056 
Q 53.335195 513.267056 53.956758 512.867681 
Q 54.581133 512.468306 54.581133 511.649868 
Q 54.581133 510.896118 53.973633 510.482681 
Q 53.368945 510.069243 52.26082 510.069243 
Q 51.445195 510.069243 50.609883 510.254868 
Q 49.77457 510.437681 48.947695 510.797681 
L 48.947695 508.319868 
Q 49.948945 508.038618 50.93332 507.897993 
Q 51.917695 507.757368 52.86832 507.757368 
Q 55.424883 507.757368 56.69332 508.598306 
Q 57.96457 509.436431 57.96457 511.123931 
Q 57.96457 512.274243 57.35707 513.008306 
Q 56.752383 513.742368 55.565508 514.040493 
M 66.492422 523.490493 
L 63.879609 523.490493 
Q 62.535234 521.319243 61.893984 519.364556 
Q 61.252734 517.407056 61.252734 515.483306 
Q 61.252734 513.556743 61.896797 511.585181 
Q 62.543672 509.610806 63.879609 507.459243 
L 66.492422 507.459243 
Q 65.367422 509.540493 64.804922 511.531743 
Q 64.242422 513.522993 64.242422 515.466431 
Q 64.242422 517.407056 64.799297 519.403931 
Q 65.356172 521.397993 66.492422 523.490493 
M 73.118672 518.630493 
L 78.892734 518.630493 
L 78.892734 521.116743 
L 69.355547 521.116743 
L 69.355547 518.630493 
L 74.145234 514.400493 
Q 74.789297 513.821118 75.095859 513.267056 
Q 75.402422 512.712993 75.402422 512.116743 
Q 75.402422 511.194243 74.783672 510.631743 
Q 74.164922 510.069243 73.135547 510.069243 
Q 72.345234 510.069243 71.403047 510.406743 
Q 70.463672 510.744243 69.392109 511.413618 
L 69.392109 508.530806 
Q 70.533984 508.153931 71.650547 507.957056 
Q 72.767109 507.757368 73.838672 507.757368 
Q 76.195547 507.757368 77.500547 508.795181 
Q 78.805547 509.830181 78.805547 511.686431 
Q 78.805547 512.757993 78.251484 513.686118 
Q 77.697422 514.611431 75.922734 516.169556 
z
M 87.083086 510.780806 
L 83.376211 516.273618 
L 87.083086 516.273618 
z
M 86.520586 507.993618 
L 90.283711 507.993618 
L 90.283711 516.273618 
L 92.154023 516.273618 
L 92.154023 518.726118 
L 90.283711 518.726118 
L 90.283711 521.116743 
L 87.083086 521.116743 
L 87.083086 518.726118 
L 81.266836 518.726118 
L 81.266836 515.826431 
z
M 106.928438 515.702681 
Q 106.306875 515.702681 105.96375 516.242681 
Q 105.620625 516.782681 105.620625 517.786743 
Q 105.620625 518.796431 105.958125 519.336431 
Q 106.295625 519.876431 106.928438 519.876431 
Q 107.56125 519.876431 107.895938 519.336431 
Q 108.230625 518.796431 108.230625 517.786743 
Q 108.230625 516.782681 107.890312 516.242681 
Q 107.552813 515.702681 106.928438 515.702681 
M 106.928438 514.226118 
Q 108.565313 514.226118 109.504688 515.176743 
Q 110.444063 516.124556 110.444063 517.786743 
Q 110.444063 519.446118 109.504688 520.410806 
Q 108.565313 521.372681 106.928438 521.372681 
Q 105.294375 521.372681 104.349375 520.410806 
Q 103.404375 519.446118 103.404375 517.786743 
Q 103.404375 516.132993 104.349375 515.179556 
Q 105.294375 514.226118 106.928438 514.226118 
M 98.870625 521.372681 
L 96.927188 521.372681 
L 105.128438 507.757368 
L 107.080313 507.757368 
z
M 97.067813 507.757368 
Q 98.701875 507.757368 99.638437 508.710806 
Q 100.575 509.664243 100.575 511.326431 
Q 100.575 512.985806 99.638437 513.944868 
Q 98.701875 514.903931 97.067813 514.903931 
Q 95.43375 514.903931 94.497187 513.944868 
Q 93.560625 512.985806 93.560625 511.326431 
Q 93.560625 509.664243 94.497187 508.710806 
Q 95.43375 507.757368 97.067813 507.757368 
M 97.067813 509.233931 
Q 96.435 509.233931 96.091875 509.779556 
Q 95.74875 510.322368 95.74875 511.326431 
Q 95.74875 512.336118 96.091875 512.887368 
Q 96.435 513.435806 97.067813 513.435806 
Q 97.700625 513.435806 98.038125 512.887368 
Q 98.378438 512.336118 98.378438 511.326431 
Q 98.378438 510.322368 98.035313 509.779556 
Q 97.692188 509.233931 97.067813 509.233931 
M 112.459219 523.490493 
Q 113.584219 521.397993 114.146719 519.403931 
Q 114.709219 517.407056 114.709219 515.466431 
Q 114.709219 513.522993 114.146719 511.531743 
Q 113.584219 509.540493 112.459219 507.459243 
L 115.069219 507.459243 
Q 116.405156 509.610806 117.049219 511.585181 
Q 117.696094 513.556743 117.696094 515.483306 
Q 117.696094 517.407056 117.054844 519.364556 
Q 116.413594 521.319243 115.069219 523.490493 
z
" style="fill:#ffffff;"/>
   </g>
   <g id="text_6">
    <path d="M 43.041094 357.800493 
Q 44.368594 358.143618 45.057656 358.992993 
Q 45.749531 359.839556 45.749531 361.150181 
Q 45.749531 363.102056 44.253281 364.117368 
Q 42.759844 365.132681 39.896719 365.132681 
Q 38.884219 365.132681 37.868906 364.969556 
Q 36.853594 364.806431 35.860781 364.480181 
L 35.860781 361.870181 
Q 36.811406 362.345493 37.745156 362.587368 
Q 38.681719 362.829243 39.587344 362.829243 
Q 40.931719 362.829243 41.648906 362.365181 
Q 42.366094 361.898306 42.366094 361.026431 
Q 42.366094 360.129243 41.632031 359.667993 
Q 40.897969 359.206743 39.463594 359.206743 
L 38.110781 359.206743 
L 38.110781 357.027056 
L 39.533906 357.027056 
Q 40.810781 357.027056 41.432344 356.627681 
Q 42.056719 356.228306 42.056719 355.409868 
Q 42.056719 354.656118 41.449219 354.242681 
Q 40.844531 353.829243 39.736406 353.829243 
Q 38.920781 353.829243 38.085469 354.014868 
Q 37.250156 354.197681 36.423281 354.557681 
L 36.423281 352.079868 
Q 37.424531 351.798618 38.408906 351.657993 
Q 39.393281 351.517368 40.343906 351.517368 
Q 42.900469 351.517368 44.168906 352.358306 
Q 45.440156 353.196431 45.440156 354.883931 
Q 45.440156 356.034243 44.832656 356.768306 
Q 44.227969 357.502368 43.041094 357.800493 
M 49.29082 362.539556 
L 52.280508 362.539556 
L 52.280508 354.057056 
L 49.21207 354.689868 
L 49.21207 352.386431 
L 52.26082 351.753618 
L 55.47832 351.753618 
L 55.47832 362.539556 
L 58.468008 362.539556 
L 58.468008 364.876743 
L 49.29082 364.876743 
z
M 66.492422 367.250493 
L 63.879609 367.250493 
Q 62.535234 365.079243 61.893984 363.124556 
Q 61.252734 361.167056 61.252734 359.243306 
Q 61.252734 357.316743 61.896797 355.345181 
Q 62.543672 353.370806 63.879609 351.219243 
L 66.492422 351.219243 
Q 65.367422 353.300493 64.804922 355.291743 
Q 64.242422 357.282993 64.242422 359.226431 
Q 64.242422 361.167056 64.799297 363.163931 
Q 65.356172 365.157993 66.492422 367.250493 
M 76.316484 357.800493 
Q 77.643984 358.143618 78.333047 358.992993 
Q 79.024922 359.839556 79.024922 361.150181 
Q 79.024922 363.102056 77.528672 364.117368 
Q 76.035234 365.132681 73.172109 365.132681 
Q 72.159609 365.132681 71.144297 364.969556 
Q 70.128984 364.806431 69.136172 364.480181 
L 69.136172 361.870181 
Q 70.086797 362.345493 71.020547 362.587368 
Q 71.957109 362.829243 72.862734 362.829243 
Q 74.207109 362.829243 74.924297 362.365181 
Q 75.641484 361.898306 75.641484 361.026431 
Q 75.641484 360.129243 74.907422 359.667993 
Q 74.173359 359.206743 72.738984 359.206743 
L 71.386172 359.206743 
L 71.386172 357.027056 
L 72.809297 357.027056 
Q 74.086172 357.027056 74.707734 356.627681 
Q 75.332109 356.228306 75.332109 355.409868 
Q 75.332109 354.656118 74.724609 354.242681 
Q 74.119922 353.829243 73.011797 353.829243 
Q 72.196172 353.829243 71.360859 354.014868 
Q 70.525547 354.197681 69.698672 354.557681 
L 69.698672 352.079868 
Q 70.699922 351.798618 71.684297 351.657993 
Q 72.668672 351.517368 73.619297 351.517368 
Q 76.175859 351.517368 77.444297 352.358306 
Q 78.715547 353.196431 78.715547 354.883931 
Q 78.715547 356.034243 78.108047 356.768306 
Q 77.503359 357.502368 76.316484 357.800493 
M 85.643086 362.390493 
L 91.417148 362.390493 
L 91.417148 364.876743 
L 81.879961 364.876743 
L 81.879961 362.390493 
L 86.669648 358.160493 
Q 87.313711 357.581118 87.620273 357.027056 
Q 87.926836 356.472993 87.926836 355.876743 
Q 87.926836 354.954243 87.308086 354.391743 
Q 86.689336 353.829243 85.659961 353.829243 
Q 84.869648 353.829243 83.927461 354.166743 
Q 82.988086 354.504243 81.916523 355.173618 
L 81.916523 352.290806 
Q 83.058398 351.913931 84.174961 351.717056 
Q 85.291523 351.517368 86.363086 351.517368 
Q 88.719961 351.517368 90.024961 352.555181 
Q 91.329961 353.590181 91.329961 355.446431 
Q 91.329961 356.517993 90.775898 357.446118 
Q 90.221836 358.371431 88.447148 359.929556 
z
M 106.928438 359.462681 
Q 106.306875 359.462681 105.96375 360.002681 
Q 105.620625 360.542681 105.620625 361.546743 
Q 105.620625 362.556431 105.958125 363.096431 
Q 106.295625 363.636431 106.928438 363.636431 
Q 107.56125 363.636431 107.895938 363.096431 
Q 108.230625 362.556431 108.230625 361.546743 
Q 108.230625 360.542681 107.890312 360.002681 
Q 107.552813 359.462681 106.928438 359.462681 
M 106.928438 357.986118 
Q 108.565313 357.986118 109.504688 358.936743 
Q 110.444063 359.884556 110.444063 361.546743 
Q 110.444063 363.206118 109.504688 364.170806 
Q 108.565313 365.132681 106.928438 365.132681 
Q 105.294375 365.132681 104.349375 364.170806 
Q 103.404375 363.206118 103.404375 361.546743 
Q 103.404375 359.892993 104.349375 358.939556 
Q 105.294375 357.986118 106.928438 357.986118 
M 98.870625 365.132681 
L 96.927188 365.132681 
L 105.128438 351.517368 
L 107.080313 351.517368 
z
M 97.067813 351.517368 
Q 98.701875 351.517368 99.638437 352.470806 
Q 100.575 353.424243 100.575 355.086431 
Q 100.575 356.745806 99.638437 357.704868 
Q 98.701875 358.663931 97.067813 358.663931 
Q 95.43375 358.663931 94.497187 357.704868 
Q 93.560625 356.745806 93.560625 355.086431 
Q 93.560625 353.424243 94.497187 352.470806 
Q 95.43375 351.517368 97.067813 351.517368 
M 97.067813 352.993931 
Q 96.435 352.993931 96.091875 353.539556 
Q 95.74875 354.082368 95.74875 355.086431 
Q 95.74875 356.096118 96.091875 356.647368 
Q 96.435 357.195806 97.067813 357.195806 
Q 97.700625 357.195806 98.038125 356.647368 
Q 98.378438 356.096118 98.378438 355.086431 
Q 98.378438 354.082368 98.035313 353.539556 
Q 97.692188 352.993931 97.067813 352.993931 
M 112.459219 367.250493 
Q 113.584219 365.157993 114.146719 363.163931 
Q 114.709219 361.167056 114.709219 359.226431 
Q 114.709219 357.282993 114.146719 355.291743 
Q 113.584219 353.300493 112.459219 351.219243 
L 115.069219 351.219243 
Q 116.405156 353.370806 117.049219 355.345181 
Q 117.696094 357.316743 117.696094 359.243306 
Q 117.696094 361.167056 117.054844 363.124556 
Q 116.413594 365.079243 115.069219 367.250493 
z
" style="fill:#ffffff;stroke:#000000;stroke-width:5.0;"/>
    <path d="M 43.041094 357.800493 
Q 44.368594 358.143618 45.057656 358.992993 
Q 45.749531 359.839556 45.749531 361.150181 
Q 45.749531 363.102056 44.253281 364.117368 
Q 42.759844 365.132681 39.896719 365.132681 
Q 38.884219 365.132681 37.868906 364.969556 
Q 36.853594 364.806431 35.860781 364.480181 
L 35.860781 361.870181 
Q 36.811406 362.345493 37.745156 362.587368 
Q 38.681719 362.829243 39.587344 362.829243 
Q 40.931719 362.829243 41.648906 362.365181 
Q 42.366094 361.898306 42.366094 361.026431 
Q 42.366094 360.129243 41.632031 359.667993 
Q 40.897969 359.206743 39.463594 359.206743 
L 38.110781 359.206743 
L 38.110781 357.027056 
L 39.533906 357.027056 
Q 40.810781 357.027056 41.432344 356.627681 
Q 42.056719 356.228306 42.056719 355.409868 
Q 42.056719 354.656118 41.449219 354.242681 
Q 40.844531 353.829243 39.736406 353.829243 
Q 38.920781 353.829243 38.085469 354.014868 
Q 37.250156 354.197681 36.423281 354.557681 
L 36.423281 352.079868 
Q 37.424531 351.798618 38.408906 351.657993 
Q 39.393281 351.517368 40.343906 351.517368 
Q 42.900469 351.517368 44.168906 352.358306 
Q 45.440156 353.196431 45.440156 354.883931 
Q 45.440156 356.034243 44.832656 356.768306 
Q 44.227969 357.502368 43.041094 357.800493 
M 49.29082 362.539556 
L 52.280508 362.539556 
L 52.280508 354.057056 
L 49.21207 354.689868 
L 49.21207 352.386431 
L 52.26082 351.753618 
L 55.47832 351.753618 
L 55.47832 362.539556 
L 58.468008 362.539556 
L 58.468008 364.876743 
L 49.29082 364.876743 
z
M 66.492422 367.250493 
L 63.879609 367.250493 
Q 62.535234 365.079243 61.893984 363.124556 
Q 61.252734 361.167056 61.252734 359.243306 
Q 61.252734 357.316743 61.896797 355.345181 
Q 62.543672 353.370806 63.879609 351.219243 
L 66.492422 351.219243 
Q 65.367422 353.300493 64.804922 355.291743 
Q 64.242422 357.282993 64.242422 359.226431 
Q 64.242422 361.167056 64.799297 363.163931 
Q 65.356172 365.157993 66.492422 367.250493 
M 76.316484 357.800493 
Q 77.643984 358.143618 78.333047 358.992993 
Q 79.024922 359.839556 79.024922 361.150181 
Q 79.024922 363.102056 77.528672 364.117368 
Q 76.035234 365.132681 73.172109 365.132681 
Q 72.159609 365.132681 71.144297 364.969556 
Q 70.128984 364.806431 69.136172 364.480181 
L 69.136172 361.870181 
Q 70.086797 362.345493 71.020547 362.587368 
Q 71.957109 362.829243 72.862734 362.829243 
Q 74.207109 362.829243 74.924297 362.365181 
Q 75.641484 361.898306 75.641484 361.026431 
Q 75.641484 360.129243 74.907422 359.667993 
Q 74.173359 359.206743 72.738984 359.206743 
L 71.386172 359.206743 
L 71.386172 357.027056 
L 72.809297 357.027056 
Q 74.086172 357.027056 74.707734 356.627681 
Q 75.332109 356.228306 75.332109 355.409868 
Q 75.332109 354.656118 74.724609 354.242681 
Q 74.119922 353.829243 73.011797 353.829243 
Q 72.196172 353.829243 71.360859 354.014868 
Q 70.525547 354.197681 69.698672 354.557681 
L 69.698672 352.079868 
Q 70.699922 351.798618 71.684297 351.657993 
Q 72.668672 351.517368 73.619297 351.517368 
Q 76.175859 351.517368 77.444297 352.358306 
Q 78.715547 353.196431 78.715547 354.883931 
Q 78.715547 356.034243 78.108047 356.768306 
Q 77.503359 357.502368 76.316484 357.800493 
M 85.643086 362.390493 
L 91.417148 362.390493 
L 91.417148 364.876743 
L 81.879961 364.876743 
L 81.879961 362.390493 
L 86.669648 358.160493 
Q 87.313711 357.581118 87.620273 357.027056 
Q 87.926836 356.472993 87.926836 355.876743 
Q 87.926836 354.954243 87.308086 354.391743 
Q 86.689336 353.829243 85.659961 353.829243 
Q 84.869648 353.829243 83.927461 354.166743 
Q 82.988086 354.504243 81.916523 355.173618 
L 81.916523 352.290806 
Q 83.058398 351.913931 84.174961 351.717056 
Q 85.291523 351.517368 86.363086 351.517368 
Q 88.719961 351.517368 90.024961 352.555181 
Q 91.329961 353.590181 91.329961 355.446431 
Q 91.329961 356.517993 90.775898 357.446118 
Q 90.221836 358.371431 88.447148 359.929556 
z
M 106.928438 359.462681 
Q 106.306875 359.462681 105.96375 360.002681 
Q 105.620625 360.542681 105.620625 361.546743 
Q 105.620625 362.556431 105.958125 363.096431 
Q 106.295625 363.636431 106.928438 363.636431 
Q 107.56125 363.636431 107.895938 363.096431 
Q 108.230625 362.556431 108.230625 361.546743 
Q 108.230625 360.542681 107.890312 360.002681 
Q 107.552813 359.462681 106.928438 359.462681 
M 106.928438 357.986118 
Q 108.565313 357.986118 109.504688 358.936743 
Q 110.444063 359.884556 110.444063 361.546743 
Q 110.444063 363.206118 109.504688 364.170806 
Q 108.565313 365.132681 106.928438 365.132681 
Q 105.294375 365.132681 104.349375 364.170806 
Q 103.404375 363.206118 103.404375 361.546743 
Q 103.404375 359.892993 104.349375 358.939556 
Q 105.294375 357.986118 106.928438 357.986118 
M 98.870625 365.132681 
L 96.927188 365.132681 
L 105.128438 351.517368 
L 107.080313 351.517368 
z
M 97.067813 351.517368 
Q 98.701875 351.517368 99.638437 352.470806 
Q 100.575 353.424243 100.575 355.086431 
Q 100.575 356.745806 99.638437 357.704868 
Q 98.701875 358.663931 97.067813 358.663931 
Q 95.43375 358.663931 94.497187 357.704868 
Q 93.560625 356.745806 93.560625 355.086431 
Q 93.560625 353.424243 94.497187 352.470806 
Q 95.43375 351.517368 97.067813 351.517368 
M 97.067813 352.993931 
Q 96.435 352.993931 96.091875 353.539556 
Q 95.74875 354.082368 95.74875 355.086431 
Q 95.74875 356.096118 96.091875 356.647368 
Q 96.435 357.195806 97.067813 357.195806 
Q 97.700625 357.195806 98.038125 356.647368 
Q 98.378438 356.096118 98.378438 355.086431 
Q 98.378438 354.082368 98.035313 353.539556 
Q 97.692188 352.993931 97.067813 352.993931 
M 112.459219 367.250493 
Q 113.584219 365.157993 114.146719 363.163931 
Q 114.709219 361.167056 114.709219 359.226431 
Q 114.709219 357.282993 114.146719 355.291743 
Q 113.584219 353.300493 112.459219 351.219243 
L 115.069219 351.219243 
Q 116.405156 353.370806 117.049219 355.345181 
Q 117.696094 357.316743 117.696094 359.243306 
Q 117.696094 361.167056 117.054844 363.124556 
Q 116.413594 365.079243 115.069219 367.250493 
z
" style="fill:#ffffff;"/>
   </g>
   <g id="text_7">
    <path d="M 41.283281 146.025016 
L 37.576406 151.517829 
L 41.283281 151.517829 
z
M 40.720781 143.237829 
L 44.483906 143.237829 
L 44.483906 151.517829 
L 46.354219 151.517829 
L 46.354219 153.970329 
L 44.483906 153.970329 
L 44.483906 156.360954 
L 41.283281 156.360954 
L 41.283281 153.970329 
L 35.467031 153.970329 
L 35.467031 151.070641 
z
M 49.29082 154.023766 
L 52.280508 154.023766 
L 52.280508 145.541266 
L 49.21207 146.174079 
L 49.21207 143.870641 
L 52.26082 143.237829 
L 55.47832 143.237829 
L 55.47832 154.023766 
L 58.468008 154.023766 
L 58.468008 156.360954 
L 49.29082 156.360954 
z
M 66.492422 158.734704 
L 63.879609 158.734704 
Q 62.535234 156.563454 61.893984 154.608766 
Q 61.252734 152.651266 61.252734 150.727516 
Q 61.252734 148.800954 61.896797 146.829391 
Q 62.543672 144.855016 63.879609 142.703454 
L 66.492422 142.703454 
Q 65.367422 144.784704 64.804922 146.775954 
Q 64.242422 148.767204 64.242422 150.710641 
Q 64.242422 152.651266 64.799297 154.648141 
Q 65.356172 156.642204 66.492422 158.734704 
M 74.558672 146.025016 
L 70.851797 151.517829 
L 74.558672 151.517829 
z
M 73.996172 143.237829 
L 77.759297 143.237829 
L 77.759297 151.517829 
L 79.629609 151.517829 
L 79.629609 153.970329 
L 77.759297 153.970329 
L 77.759297 156.360954 
L 74.558672 156.360954 
L 74.558672 153.970329 
L 68.742422 153.970329 
L 68.742422 151.070641 
z
M 88.840898 149.284704 
Q 90.168398 149.627829 90.857461 150.477204 
Q 91.549336 151.323766 91.549336 152.634391 
Q 91.549336 154.586266 90.053086 155.601579 
Q 88.559648 156.616891 85.696523 156.616891 
Q 84.684023 156.616891 83.668711 156.453766 
Q 82.653398 156.290641 81.660586 155.964391 
L 81.660586 153.354391 
Q 82.611211 153.829704 83.544961 154.071579 
Q 84.481523 154.313454 85.387148 154.313454 
Q 86.731523 154.313454 87.448711 153.849391 
Q 88.165898 153.382516 88.165898 152.510641 
Q 88.165898 151.613454 87.431836 151.152204 
Q 86.697773 150.690954 85.263398 150.690954 
L 83.910586 150.690954 
L 83.910586 148.511266 
L 85.333711 148.511266 
Q 86.610586 148.511266 87.232148 148.111891 
Q 87.856523 147.712516 87.856523 146.894079 
Q 87.856523 146.140329 87.249023 145.726891 
Q 86.644336 145.313454 85.536211 145.313454 
Q 84.720586 145.313454 83.885273 145.499079 
Q 83.049961 145.681891 82.223086 146.041891 
L 82.223086 143.564079 
Q 83.224336 143.282829 84.208711 143.142204 
Q 85.193086 143.001579 86.143711 143.001579 
Q 88.700273 143.001579 89.968711 143.842516 
Q 91.239961 144.680641 91.239961 146.368141 
Q 91.239961 147.518454 90.632461 148.252516 
Q 90.027773 148.986579 88.840898 149.284704 
M 106.928438 150.946891 
Q 106.306875 150.946891 105.96375 151.486891 
Q 105.620625 152.026891 105.620625 153.030954 
Q 105.620625 154.040641 105.958125 154.580641 
Q 106.295625 155.120641 106.928438 155.120641 
Q 107.56125 155.120641 107.895938 154.580641 
Q 108.230625 154.040641 108.230625 153.030954 
Q 108.230625 152.026891 107.890312 151.486891 
Q 107.552813 150.946891 106.928438 150.946891 
M 106.928438 149.470329 
Q 108.565313 149.470329 109.504688 150.420954 
Q 110.444063 151.368766 110.444063 153.030954 
Q 110.444063 154.690329 109.504688 155.655016 
Q 108.565313 156.616891 106.928438 156.616891 
Q 105.294375 156.616891 104.349375 155.655016 
Q 103.404375 154.690329 103.404375 153.030954 
Q 103.404375 151.377204 104.349375 150.423766 
Q 105.294375 149.470329 106.928438 149.470329 
M 98.870625 156.616891 
L 96.927188 156.616891 
L 105.128438 143.001579 
L 107.080313 143.001579 
z
M 97.067813 143.001579 
Q 98.701875 143.001579 99.638437 143.955016 
Q 100.575 144.908454 100.575 146.570641 
Q 100.575 148.230016 99.638437 149.189079 
Q 98.701875 150.148141 97.067813 150.148141 
Q 95.43375 150.148141 94.497187 149.189079 
Q 93.560625 148.230016 93.560625 146.570641 
Q 93.560625 144.908454 94.497187 143.955016 
Q 95.43375 143.001579 97.067813 143.001579 
M 97.067813 144.478141 
Q 96.435 144.478141 96.091875 145.023766 
Q 95.74875 145.566579 95.74875 146.570641 
Q 95.74875 147.580329 96.091875 148.131579 
Q 96.435 148.680016 97.067813 148.680016 
Q 97.700625 148.680016 98.038125 148.131579 
Q 98.378438 147.580329 98.378438 146.570641 
Q 98.378438 145.566579 98.035313 145.023766 
Q 97.692188 144.478141 97.067813 144.478141 
M 112.459219 158.734704 
Q 113.584219 156.642204 114.146719 154.648141 
Q 114.709219 152.651266 114.709219 150.710641 
Q 114.709219 148.767204 114.146719 146.775954 
Q 113.584219 144.784704 112.459219 142.703454 
L 115.069219 142.703454 
Q 116.405156 144.855016 117.049219 146.829391 
Q 117.696094 148.800954 117.696094 150.727516 
Q 117.696094 152.651266 117.054844 154.608766 
Q 116.413594 156.563454 115.069219 158.734704 
z
" style="fill:#ffffff;stroke:#000000;stroke-width:5.0;"/>
    <path d="M 41.283281 146.025016 
L 37.576406 151.517829 
L 41.283281 151.517829 
z
M 40.720781 143.237829 
L 44.483906 143.237829 
L 44.483906 151.517829 
L 46.354219 151.517829 
L 46.354219 153.970329 
L 44.483906 153.970329 
L 44.483906 156.360954 
L 41.283281 156.360954 
L 41.283281 153.970329 
L 35.467031 153.970329 
L 35.467031 151.070641 
z
M 49.29082 154.023766 
L 52.280508 154.023766 
L 52.280508 145.541266 
L 49.21207 146.174079 
L 49.21207 143.870641 
L 52.26082 143.237829 
L 55.47832 143.237829 
L 55.47832 154.023766 
L 58.468008 154.023766 
L 58.468008 156.360954 
L 49.29082 156.360954 
z
M 66.492422 158.734704 
L 63.879609 158.734704 
Q 62.535234 156.563454 61.893984 154.608766 
Q 61.252734 152.651266 61.252734 150.727516 
Q 61.252734 148.800954 61.896797 146.829391 
Q 62.543672 144.855016 63.879609 142.703454 
L 66.492422 142.703454 
Q 65.367422 144.784704 64.804922 146.775954 
Q 64.242422 148.767204 64.242422 150.710641 
Q 64.242422 152.651266 64.799297 154.648141 
Q 65.356172 156.642204 66.492422 158.734704 
M 74.558672 146.025016 
L 70.851797 151.517829 
L 74.558672 151.517829 
z
M 73.996172 143.237829 
L 77.759297 143.237829 
L 77.759297 151.517829 
L 79.629609 151.517829 
L 79.629609 153.970329 
L 77.759297 153.970329 
L 77.759297 156.360954 
L 74.558672 156.360954 
L 74.558672 153.970329 
L 68.742422 153.970329 
L 68.742422 151.070641 
z
M 88.840898 149.284704 
Q 90.168398 149.627829 90.857461 150.477204 
Q 91.549336 151.323766 91.549336 152.634391 
Q 91.549336 154.586266 90.053086 155.601579 
Q 88.559648 156.616891 85.696523 156.616891 
Q 84.684023 156.616891 83.668711 156.453766 
Q 82.653398 156.290641 81.660586 155.964391 
L 81.660586 153.354391 
Q 82.611211 153.829704 83.544961 154.071579 
Q 84.481523 154.313454 85.387148 154.313454 
Q 86.731523 154.313454 87.448711 153.849391 
Q 88.165898 153.382516 88.165898 152.510641 
Q 88.165898 151.613454 87.431836 151.152204 
Q 86.697773 150.690954 85.263398 150.690954 
L 83.910586 150.690954 
L 83.910586 148.511266 
L 85.333711 148.511266 
Q 86.610586 148.511266 87.232148 148.111891 
Q 87.856523 147.712516 87.856523 146.894079 
Q 87.856523 146.140329 87.249023 145.726891 
Q 86.644336 145.313454 85.536211 145.313454 
Q 84.720586 145.313454 83.885273 145.499079 
Q 83.049961 145.681891 82.223086 146.041891 
L 82.223086 143.564079 
Q 83.224336 143.282829 84.208711 143.142204 
Q 85.193086 143.001579 86.143711 143.001579 
Q 88.700273 143.001579 89.968711 143.842516 
Q 91.239961 144.680641 91.239961 146.368141 
Q 91.239961 147.518454 90.632461 148.252516 
Q 90.027773 148.986579 88.840898 149.284704 
M 106.928438 150.946891 
Q 106.306875 150.946891 105.96375 151.486891 
Q 105.620625 152.026891 105.620625 153.030954 
Q 105.620625 154.040641 105.958125 154.580641 
Q 106.295625 155.120641 106.928438 155.120641 
Q 107.56125 155.120641 107.895938 154.580641 
Q 108.230625 154.040641 108.230625 153.030954 
Q 108.230625 152.026891 107.890312 151.486891 
Q 107.552813 150.946891 106.928438 150.946891 
M 106.928438 149.470329 
Q 108.565313 149.470329 109.504688 150.420954 
Q 110.444063 151.368766 110.444063 153.030954 
Q 110.444063 154.690329 109.504688 155.655016 
Q 108.565313 156.616891 106.928438 156.616891 
Q 105.294375 156.616891 104.349375 155.655016 
Q 103.404375 154.690329 103.404375 153.030954 
Q 103.404375 151.377204 104.349375 150.423766 
Q 105.294375 149.470329 106.928438 149.470329 
M 98.870625 156.616891 
L 96.927188 156.616891 
L 105.128438 143.001579 
L 107.080313 143.001579 
z
M 97.067813 143.001579 
Q 98.701875 143.001579 99.638437 143.955016 
Q 100.575 144.908454 100.575 146.570641 
Q 100.575 148.230016 99.638437 149.189079 
Q 98.701875 150.148141 97.067813 150.148141 
Q 95.43375 150.148141 94.497187 149.189079 
Q 93.560625 148.230016 93.560625 146.570641 
Q 93.560625 144.908454 94.497187 143.955016 
Q 95.43375 143.001579 97.067813 143.001579 
M 97.067813 144.478141 
Q 96.435 144.478141 96.091875 145.023766 
Q 95.74875 145.566579 95.74875 146.570641 
Q 95.74875 147.580329 96.091875 148.131579 
Q 96.435 148.680016 97.067813 148.680016 
Q 97.700625 148.680016 98.038125 148.131579 
Q 98.378438 147.580329 98.378438 146.570641 
Q 98.378438 145.566579 98.035313 145.023766 
Q 97.692188 144.478141 97.067813 144.478141 
M 112.459219 158.734704 
Q 113.584219 156.642204 114.146719 154.648141 
Q 114.709219 152.651266 114.709219 150.710641 
Q 114.709219 148.767204 114.146719 146.775954 
Q 113.584219 144.784704 112.459219 142.703454 
L 115.069219 142.703454 
Q 116.405156 144.855016 117.049219 146.829391 
Q 117.696094 148.800954 117.696094 150.727516 
Q 117.696094 152.651266 117.054844 154.608766 
Q 116.413594 156.563454 115.069219 158.734704 
z
" style="fill:#ffffff;"/>
   </g>
  </g>
 </g>
 <defs>
  <clipPath id="p0f3394e327">
   <rect height="558.0" width="139.5" x="7.2" y="27.6528125"/>
  </clipPath>
 </defs>
</svg>
