<?xml version="1.0" encoding="utf-8" standalone="no"?>
<!DOCTYPE svg PUBLIC "-//W3C//DTD SVG 1.1//EN"
  "http://www.w3.org/Graphics/SVG/1.1/DTD/svg11.dtd">
<!-- Created with matplotlib (http://matplotlib.org/) -->
<svg height="592pt" version="1.1" viewBox="0 0 276 592" width="276pt" xmlns="http://www.w3.org/2000/svg" xmlns:xlink="http://www.w3.org/1999/xlink">
 <defs>
  <style type="text/css">
*{stroke-linecap:butt;stroke-linejoin:round;stroke-miterlimit:100000;}
  </style>
 </defs>
 <g id="figure_1">
  <g id="patch_1">
   <path d="M 0 592.852812 
L 276.125 592.852812 
L 276.125 0 
L 0 0 
z
" style="fill:#ffffff;"/>
  </g>
  <g id="axes_1">
   <g id="patch_2">
    <path d="M 7.2 585.652812 
L 146.7 585.652812 
L 146.7 27.652812 
L 7.2 27.652812 
z
" style="fill:#ffffff;"/>
   </g>
   <g id="patch_3">
    <path clip-path="url(#p20a7de1e5f)" d="M 7.2 585.652812 
L 146.7 585.652812 
L 146.7 481.953697 
L 7.2 481.953697 
z
" style="fill:#0100d5;stroke:#000000;stroke-linejoin:miter;"/>
   </g>
   <g id="patch_4">
    <path clip-path="url(#p20a7de1e5f)" d="M 7.2 481.953697 
L 146.7 481.953697 
L 146.7 244.927149 
L 7.2 244.927149 
z
" style="fill:#7f7f7f;stroke:#000000;stroke-linejoin:miter;"/>
   </g>
   <g id="patch_5">
    <path clip-path="url(#p20a7de1e5f)" d="M 7.2 244.927149 
L 146.7 244.927149 
L 146.7 27.652812 
L 7.2 27.652812 
z
" style="fill:#a40000;stroke:#000000;stroke-linejoin:miter;"/>
   </g>
   <g id="patch_6">
    <path d="M 7.2 585.652812 
L 146.7 585.652812 
" style="fill:none;stroke:#000000;stroke-linecap:square;stroke-linejoin:miter;"/>
   </g>
   <g id="matplotlib.axis_1">
    <g id="xtick_1">
     <g id="text_1">
      <!-- AC-P09 -->
      <defs>
       <path d="M 31.78125 66.40625 
Q 24.171875 66.40625 20.328125 58.90625 
Q 16.5 51.421875 16.5 36.375 
Q 16.5 21.390625 20.328125 13.890625 
Q 24.171875 6.390625 31.78125 6.390625 
Q 39.453125 6.390625 43.28125 13.890625 
Q 47.125 21.390625 47.125 36.375 
Q 47.125 51.421875 43.28125 58.90625 
Q 39.453125 66.40625 31.78125 66.40625 
M 31.78125 74.21875 
Q 44.046875 74.21875 50.515625 64.515625 
Q 56.984375 54.828125 56.984375 36.375 
Q 56.984375 17.96875 50.515625 8.265625 
Q 44.046875 -1.421875 31.78125 -1.421875 
Q 19.53125 -1.421875 13.0625 8.265625 
Q 6.59375 17.96875 6.59375 36.375 
Q 6.59375 54.828125 13.0625 64.515625 
Q 19.53125 74.21875 31.78125 74.21875 
" id="BitstreamVeraSans-Roman-30"/>
       <path d="M 10.984375 1.515625 
L 10.984375 10.5 
Q 14.703125 8.734375 18.5 7.8125 
Q 22.3125 6.890625 25.984375 6.890625 
Q 35.75 6.890625 40.890625 13.453125 
Q 46.046875 20.015625 46.78125 33.40625 
Q 43.953125 29.203125 39.59375 26.953125 
Q 35.25 24.703125 29.984375 24.703125 
Q 19.046875 24.703125 12.671875 31.3125 
Q 6.296875 37.9375 6.296875 49.421875 
Q 6.296875 60.640625 12.9375 67.421875 
Q 19.578125 74.21875 30.609375 74.21875 
Q 43.265625 74.21875 49.921875 64.515625 
Q 56.59375 54.828125 56.59375 36.375 
Q 56.59375 19.140625 48.40625 8.859375 
Q 40.234375 -1.421875 26.421875 -1.421875 
Q 22.703125 -1.421875 18.890625 -0.6875 
Q 15.09375 0.046875 10.984375 1.515625 
M 30.609375 32.421875 
Q 37.25 32.421875 41.125 36.953125 
Q 45.015625 41.5 45.015625 49.421875 
Q 45.015625 57.28125 41.125 61.84375 
Q 37.25 66.40625 30.609375 66.40625 
Q 23.96875 66.40625 20.09375 61.84375 
Q 16.21875 57.28125 16.21875 49.421875 
Q 16.21875 41.5 20.09375 36.953125 
Q 23.96875 32.421875 30.609375 32.421875 
" id="BitstreamVeraSans-Roman-39"/>
       <path d="M 19.671875 64.796875 
L 19.671875 37.40625 
L 32.078125 37.40625 
Q 38.96875 37.40625 42.71875 40.96875 
Q 46.484375 44.53125 46.484375 51.125 
Q 46.484375 57.671875 42.71875 61.234375 
Q 38.96875 64.796875 32.078125 64.796875 
z
M 9.8125 72.90625 
L 32.078125 72.90625 
Q 44.34375 72.90625 50.609375 67.359375 
Q 56.890625 61.8125 56.890625 51.125 
Q 56.890625 40.328125 50.609375 34.8125 
Q 44.34375 29.296875 32.078125 29.296875 
L 19.671875 29.296875 
L 19.671875 0 
L 9.8125 0 
z
" id="BitstreamVeraSans-Roman-50"/>
       <path d="M 64.40625 67.28125 
L 64.40625 56.890625 
Q 59.421875 61.53125 53.78125 63.8125 
Q 48.140625 66.109375 41.796875 66.109375 
Q 29.296875 66.109375 22.65625 58.46875 
Q 16.015625 50.828125 16.015625 36.375 
Q 16.015625 21.96875 22.65625 14.328125 
Q 29.296875 6.6875 41.796875 6.6875 
Q 48.140625 6.6875 53.78125 8.984375 
Q 59.421875 11.28125 64.40625 15.921875 
L 64.40625 5.609375 
Q 59.234375 2.09375 53.4375 0.328125 
Q 47.65625 -1.421875 41.21875 -1.421875 
Q 24.65625 -1.421875 15.125 8.703125 
Q 5.609375 18.84375 5.609375 36.375 
Q 5.609375 53.953125 15.125 64.078125 
Q 24.65625 74.21875 41.21875 74.21875 
Q 47.75 74.21875 53.53125 72.484375 
Q 59.328125 70.75 64.40625 67.28125 
" id="BitstreamVeraSans-Roman-43"/>
       <path d="M 4.890625 31.390625 
L 31.203125 31.390625 
L 31.203125 23.390625 
L 4.890625 23.390625 
z
" id="BitstreamVeraSans-Roman-2d"/>
       <path d="M 34.1875 63.1875 
L 20.796875 26.90625 
L 47.609375 26.90625 
z
M 28.609375 72.90625 
L 39.796875 72.90625 
L 67.578125 0 
L 57.328125 0 
L 50.6875 18.703125 
L 17.828125 18.703125 
L 11.1875 0 
L 0.78125 0 
z
" id="BitstreamVeraSans-Roman-41"/>
      </defs>
      <g transform="translate(46.19328125 20.11734375)scale(0.17 -0.17)">
       <use xlink:href="#BitstreamVeraSans-Roman-41"/>
       <use x="68.392578125" xlink:href="#BitstreamVeraSans-Roman-43"/>
       <use x="138.216796875" xlink:href="#BitstreamVeraSans-Roman-2d"/>
       <use x="174.30078125" xlink:href="#BitstreamVeraSans-Roman-50"/>
       <use x="234.603515625" xlink:href="#BitstreamVeraSans-Roman-30"/>
       <use x="298.2265625" xlink:href="#BitstreamVeraSans-Roman-39"/>
      </g>
     </g>
    </g>
   </g>
   <g id="matplotlib.axis_2">
    <g id="ytick_1">
     <g id="text_2">
      <!-- Primary only -->
      <defs>
       <path id="BitstreamVeraSans-Roman-20"/>
       <path d="M 52 44.1875 
Q 55.375 50.25 60.0625 53.125 
Q 64.75 56 71.09375 56 
Q 79.640625 56 84.28125 50.015625 
Q 88.921875 44.046875 88.921875 33.015625 
L 88.921875 0 
L 79.890625 0 
L 79.890625 32.71875 
Q 79.890625 40.578125 77.09375 44.375 
Q 74.3125 48.1875 68.609375 48.1875 
Q 61.625 48.1875 57.5625 43.546875 
Q 53.515625 38.921875 53.515625 30.90625 
L 53.515625 0 
L 44.484375 0 
L 44.484375 32.71875 
Q 44.484375 40.625 41.703125 44.40625 
Q 38.921875 48.1875 33.109375 48.1875 
Q 26.21875 48.1875 22.15625 43.53125 
Q 18.109375 38.875 18.109375 30.90625 
L 18.109375 0 
L 9.078125 0 
L 9.078125 54.6875 
L 18.109375 54.6875 
L 18.109375 46.1875 
Q 21.1875 51.21875 25.484375 53.609375 
Q 29.78125 56 35.6875 56 
Q 41.65625 56 45.828125 52.96875 
Q 50 49.953125 52 44.1875 
" id="BitstreamVeraSans-Roman-6d"/>
       <path d="M 54.890625 33.015625 
L 54.890625 0 
L 45.90625 0 
L 45.90625 32.71875 
Q 45.90625 40.484375 42.875 44.328125 
Q 39.84375 48.1875 33.796875 48.1875 
Q 26.515625 48.1875 22.3125 43.546875 
Q 18.109375 38.921875 18.109375 30.90625 
L 18.109375 0 
L 9.078125 0 
L 9.078125 54.6875 
L 18.109375 54.6875 
L 18.109375 46.1875 
Q 21.34375 51.125 25.703125 53.5625 
Q 30.078125 56 35.796875 56 
Q 45.21875 56 50.046875 50.171875 
Q 54.890625 44.34375 54.890625 33.015625 
" id="BitstreamVeraSans-Roman-6e"/>
       <path d="M 41.109375 46.296875 
Q 39.59375 47.171875 37.8125 47.578125 
Q 36.03125 48 33.890625 48 
Q 26.265625 48 22.1875 43.046875 
Q 18.109375 38.09375 18.109375 28.8125 
L 18.109375 0 
L 9.078125 0 
L 9.078125 54.6875 
L 18.109375 54.6875 
L 18.109375 46.1875 
Q 20.953125 51.171875 25.484375 53.578125 
Q 30.03125 56 36.53125 56 
Q 37.453125 56 38.578125 55.875 
Q 39.703125 55.765625 41.0625 55.515625 
z
" id="BitstreamVeraSans-Roman-72"/>
       <path d="M 30.609375 48.390625 
Q 23.390625 48.390625 19.1875 42.75 
Q 14.984375 37.109375 14.984375 27.296875 
Q 14.984375 17.484375 19.15625 11.84375 
Q 23.34375 6.203125 30.609375 6.203125 
Q 37.796875 6.203125 41.984375 11.859375 
Q 46.1875 17.53125 46.1875 27.296875 
Q 46.1875 37.015625 41.984375 42.703125 
Q 37.796875 48.390625 30.609375 48.390625 
M 30.609375 56 
Q 42.328125 56 49.015625 48.375 
Q 55.71875 40.765625 55.71875 27.296875 
Q 55.71875 13.875 49.015625 6.21875 
Q 42.328125 -1.421875 30.609375 -1.421875 
Q 18.84375 -1.421875 12.171875 6.21875 
Q 5.515625 13.875 5.515625 27.296875 
Q 5.515625 40.765625 12.171875 48.375 
Q 18.84375 56 30.609375 56 
" id="BitstreamVeraSans-Roman-6f"/>
       <path d="M 9.421875 75.984375 
L 18.40625 75.984375 
L 18.40625 0 
L 9.421875 0 
z
" id="BitstreamVeraSans-Roman-6c"/>
       <path d="M 9.421875 54.6875 
L 18.40625 54.6875 
L 18.40625 0 
L 9.421875 0 
z
M 9.421875 75.984375 
L 18.40625 75.984375 
L 18.40625 64.59375 
L 9.421875 64.59375 
z
" id="BitstreamVeraSans-Roman-69"/>
       <path d="M 32.171875 -5.078125 
Q 28.375 -14.84375 24.75 -17.8125 
Q 21.140625 -20.796875 15.09375 -20.796875 
L 7.90625 -20.796875 
L 7.90625 -13.28125 
L 13.1875 -13.28125 
Q 16.890625 -13.28125 18.9375 -11.515625 
Q 21 -9.765625 23.484375 -3.21875 
L 25.09375 0.875 
L 2.984375 54.6875 
L 12.5 54.6875 
L 29.59375 11.921875 
L 46.6875 54.6875 
L 56.203125 54.6875 
z
" id="BitstreamVeraSans-Roman-79"/>
       <path d="M 34.28125 27.484375 
Q 23.390625 27.484375 19.1875 25 
Q 14.984375 22.515625 14.984375 16.5 
Q 14.984375 11.71875 18.140625 8.90625 
Q 21.296875 6.109375 26.703125 6.109375 
Q 34.1875 6.109375 38.703125 11.40625 
Q 43.21875 16.703125 43.21875 25.484375 
L 43.21875 27.484375 
z
M 52.203125 31.203125 
L 52.203125 0 
L 43.21875 0 
L 43.21875 8.296875 
Q 40.140625 3.328125 35.546875 0.953125 
Q 30.953125 -1.421875 24.3125 -1.421875 
Q 15.921875 -1.421875 10.953125 3.296875 
Q 6 8.015625 6 15.921875 
Q 6 25.140625 12.171875 29.828125 
Q 18.359375 34.515625 30.609375 34.515625 
L 43.21875 34.515625 
L 43.21875 35.40625 
Q 43.21875 41.609375 39.140625 45 
Q 35.0625 48.390625 27.6875 48.390625 
Q 23 48.390625 18.546875 47.265625 
Q 14.109375 46.140625 10.015625 43.890625 
L 10.015625 52.203125 
Q 14.9375 54.109375 19.578125 55.046875 
Q 24.21875 56 28.609375 56 
Q 40.484375 56 46.34375 49.84375 
Q 52.203125 43.703125 52.203125 31.203125 
" id="BitstreamVeraSans-Roman-61"/>
      </defs>
      <g transform="translate(150.7 538.218254978)scale(0.16 -0.16)">
       <use xlink:href="#BitstreamVeraSans-Roman-50"/>
       <use x="60.287109375" xlink:href="#BitstreamVeraSans-Roman-72"/>
       <use x="101.400390625" xlink:href="#BitstreamVeraSans-Roman-69"/>
       <use x="129.18359375" xlink:href="#BitstreamVeraSans-Roman-6d"/>
       <use x="226.595703125" xlink:href="#BitstreamVeraSans-Roman-61"/>
       <use x="287.875" xlink:href="#BitstreamVeraSans-Roman-72"/>
       <use x="328.98828125" xlink:href="#BitstreamVeraSans-Roman-79"/>
       <use x="388.16796875" xlink:href="#BitstreamVeraSans-Roman-20"/>
       <use x="419.955078125" xlink:href="#BitstreamVeraSans-Roman-6f"/>
       <use x="481.13671875" xlink:href="#BitstreamVeraSans-Roman-6e"/>
       <use x="544.515625" xlink:href="#BitstreamVeraSans-Roman-6c"/>
       <use x="572.298828125" xlink:href="#BitstreamVeraSans-Roman-79"/>
      </g>
     </g>
    </g>
    <g id="ytick_2">
     <g id="text_3">
      <!-- Shared -->
      <defs>
       <path d="M 56.203125 29.59375 
L 56.203125 25.203125 
L 14.890625 25.203125 
Q 15.484375 15.921875 20.484375 11.0625 
Q 25.484375 6.203125 34.421875 6.203125 
Q 39.59375 6.203125 44.453125 7.46875 
Q 49.3125 8.734375 54.109375 11.28125 
L 54.109375 2.78125 
Q 49.265625 0.734375 44.1875 -0.34375 
Q 39.109375 -1.421875 33.890625 -1.421875 
Q 20.796875 -1.421875 13.15625 6.1875 
Q 5.515625 13.8125 5.515625 26.8125 
Q 5.515625 40.234375 12.765625 48.109375 
Q 20.015625 56 32.328125 56 
Q 43.359375 56 49.78125 48.890625 
Q 56.203125 41.796875 56.203125 29.59375 
M 47.21875 32.234375 
Q 47.125 39.59375 43.09375 43.984375 
Q 39.0625 48.390625 32.421875 48.390625 
Q 24.90625 48.390625 20.390625 44.140625 
Q 15.875 39.890625 15.1875 32.171875 
z
" id="BitstreamVeraSans-Roman-65"/>
       <path d="M 45.40625 46.390625 
L 45.40625 75.984375 
L 54.390625 75.984375 
L 54.390625 0 
L 45.40625 0 
L 45.40625 8.203125 
Q 42.578125 3.328125 38.25 0.953125 
Q 33.9375 -1.421875 27.875 -1.421875 
Q 17.96875 -1.421875 11.734375 6.484375 
Q 5.515625 14.40625 5.515625 27.296875 
Q 5.515625 40.1875 11.734375 48.09375 
Q 17.96875 56 27.875 56 
Q 33.9375 56 38.25 53.625 
Q 42.578125 51.265625 45.40625 46.390625 
M 14.796875 27.296875 
Q 14.796875 17.390625 18.875 11.75 
Q 22.953125 6.109375 30.078125 6.109375 
Q 37.203125 6.109375 41.296875 11.75 
Q 45.40625 17.390625 45.40625 27.296875 
Q 45.40625 37.203125 41.296875 42.84375 
Q 37.203125 48.484375 30.078125 48.484375 
Q 22.953125 48.484375 18.875 42.84375 
Q 14.796875 37.203125 14.796875 27.296875 
" id="BitstreamVeraSans-Roman-64"/>
       <path d="M 53.515625 70.515625 
L 53.515625 60.890625 
Q 47.90625 63.578125 42.921875 64.890625 
Q 37.9375 66.21875 33.296875 66.21875 
Q 25.25 66.21875 20.875 63.09375 
Q 16.5 59.96875 16.5 54.203125 
Q 16.5 49.359375 19.40625 46.890625 
Q 22.3125 44.4375 30.421875 42.921875 
L 36.375 41.703125 
Q 47.40625 39.59375 52.65625 34.296875 
Q 57.90625 29 57.90625 20.125 
Q 57.90625 9.515625 50.796875 4.046875 
Q 43.703125 -1.421875 29.984375 -1.421875 
Q 24.8125 -1.421875 18.96875 -0.25 
Q 13.140625 0.921875 6.890625 3.21875 
L 6.890625 13.375 
Q 12.890625 10.015625 18.65625 8.296875 
Q 24.421875 6.59375 29.984375 6.59375 
Q 38.421875 6.59375 43.015625 9.90625 
Q 47.609375 13.234375 47.609375 19.390625 
Q 47.609375 24.75 44.3125 27.78125 
Q 41.015625 30.8125 33.5 32.328125 
L 27.484375 33.5 
Q 16.453125 35.6875 11.515625 40.375 
Q 6.59375 45.0625 6.59375 53.421875 
Q 6.59375 63.09375 13.40625 68.65625 
Q 20.21875 74.21875 32.171875 74.21875 
Q 37.3125 74.21875 42.625 73.28125 
Q 47.953125 72.359375 53.515625 70.515625 
" id="BitstreamVeraSans-Roman-53"/>
       <path d="M 54.890625 33.015625 
L 54.890625 0 
L 45.90625 0 
L 45.90625 32.71875 
Q 45.90625 40.484375 42.875 44.328125 
Q 39.84375 48.1875 33.796875 48.1875 
Q 26.515625 48.1875 22.3125 43.546875 
Q 18.109375 38.921875 18.109375 30.90625 
L 18.109375 0 
L 9.078125 0 
L 9.078125 75.984375 
L 18.109375 75.984375 
L 18.109375 46.1875 
Q 21.34375 51.125 25.703125 53.5625 
Q 30.078125 56 35.796875 56 
Q 45.21875 56 50.046875 50.171875 
Q 54.890625 44.34375 54.890625 33.015625 
" id="BitstreamVeraSans-Roman-68"/>
      </defs>
      <g transform="translate(150.7 367.855423119)scale(0.16 -0.16)">
       <use xlink:href="#BitstreamVeraSans-Roman-53"/>
       <use x="63.4765625" xlink:href="#BitstreamVeraSans-Roman-68"/>
       <use x="126.85546875" xlink:href="#BitstreamVeraSans-Roman-61"/>
       <use x="188.134765625" xlink:href="#BitstreamVeraSans-Roman-72"/>
       <use x="229.216796875" xlink:href="#BitstreamVeraSans-Roman-65"/>
       <use x="290.740234375" xlink:href="#BitstreamVeraSans-Roman-64"/>
      </g>
     </g>
    </g>
    <g id="ytick_3">
     <g id="text_4">
      <!-- Recurrent only -->
      <defs>
       <path d="M 44.390625 34.1875 
Q 47.5625 33.109375 50.5625 29.59375 
Q 53.5625 26.078125 56.59375 19.921875 
L 66.609375 0 
L 56 0 
L 46.6875 18.703125 
Q 43.0625 26.03125 39.671875 28.421875 
Q 36.28125 30.8125 30.421875 30.8125 
L 19.671875 30.8125 
L 19.671875 0 
L 9.8125 0 
L 9.8125 72.90625 
L 32.078125 72.90625 
Q 44.578125 72.90625 50.734375 67.671875 
Q 56.890625 62.453125 56.890625 51.90625 
Q 56.890625 45.015625 53.6875 40.46875 
Q 50.484375 35.9375 44.390625 34.1875 
M 19.671875 64.796875 
L 19.671875 38.921875 
L 32.078125 38.921875 
Q 39.203125 38.921875 42.84375 42.21875 
Q 46.484375 45.515625 46.484375 51.90625 
Q 46.484375 58.296875 42.84375 61.546875 
Q 39.203125 64.796875 32.078125 64.796875 
z
" id="BitstreamVeraSans-Roman-52"/>
       <path d="M 8.5 21.578125 
L 8.5 54.6875 
L 17.484375 54.6875 
L 17.484375 21.921875 
Q 17.484375 14.15625 20.5 10.265625 
Q 23.53125 6.390625 29.59375 6.390625 
Q 36.859375 6.390625 41.078125 11.03125 
Q 45.3125 15.671875 45.3125 23.6875 
L 45.3125 54.6875 
L 54.296875 54.6875 
L 54.296875 0 
L 45.3125 0 
L 45.3125 8.40625 
Q 42.046875 3.421875 37.71875 1 
Q 33.40625 -1.421875 27.6875 -1.421875 
Q 18.265625 -1.421875 13.375 4.4375 
Q 8.5 10.296875 8.5 21.578125 
" id="BitstreamVeraSans-Roman-75"/>
       <path d="M 18.3125 70.21875 
L 18.3125 54.6875 
L 36.8125 54.6875 
L 36.8125 47.703125 
L 18.3125 47.703125 
L 18.3125 18.015625 
Q 18.3125 11.328125 20.140625 9.421875 
Q 21.96875 7.515625 27.59375 7.515625 
L 36.8125 7.515625 
L 36.8125 0 
L 27.59375 0 
Q 17.1875 0 13.234375 3.875 
Q 9.28125 7.765625 9.28125 18.015625 
L 9.28125 47.703125 
L 2.6875 47.703125 
L 2.6875 54.6875 
L 9.28125 54.6875 
L 9.28125 70.21875 
z
" id="BitstreamVeraSans-Roman-74"/>
       <path d="M 48.78125 52.59375 
L 48.78125 44.1875 
Q 44.96875 46.296875 41.140625 47.34375 
Q 37.3125 48.390625 33.40625 48.390625 
Q 24.65625 48.390625 19.8125 42.84375 
Q 14.984375 37.3125 14.984375 27.296875 
Q 14.984375 17.28125 19.8125 11.734375 
Q 24.65625 6.203125 33.40625 6.203125 
Q 37.3125 6.203125 41.140625 7.25 
Q 44.96875 8.296875 48.78125 10.40625 
L 48.78125 2.09375 
Q 45.015625 0.34375 40.984375 -0.53125 
Q 36.96875 -1.421875 32.421875 -1.421875 
Q 20.0625 -1.421875 12.78125 6.34375 
Q 5.515625 14.109375 5.515625 27.296875 
Q 5.515625 40.671875 12.859375 48.328125 
Q 20.21875 56 33.015625 56 
Q 37.15625 56 41.109375 55.140625 
Q 45.0625 54.296875 48.78125 52.59375 
" id="BitstreamVeraSans-Roman-63"/>
      </defs>
      <g transform="translate(150.7 140.704980642)scale(0.16 -0.16)">
       <use xlink:href="#BitstreamVeraSans-Roman-52"/>
       <use x="69.419921875" xlink:href="#BitstreamVeraSans-Roman-65"/>
       <use x="130.943359375" xlink:href="#BitstreamVeraSans-Roman-63"/>
       <use x="185.923828125" xlink:href="#BitstreamVeraSans-Roman-75"/>
       <use x="249.302734375" xlink:href="#BitstreamVeraSans-Roman-72"/>
       <use x="290.400390625" xlink:href="#BitstreamVeraSans-Roman-72"/>
       <use x="331.482421875" xlink:href="#BitstreamVeraSans-Roman-65"/>
       <use x="393.005859375" xlink:href="#BitstreamVeraSans-Roman-6e"/>
       <use x="456.384765625" xlink:href="#BitstreamVeraSans-Roman-74"/>
       <use x="495.59375" xlink:href="#BitstreamVeraSans-Roman-20"/>
       <use x="527.380859375" xlink:href="#BitstreamVeraSans-Roman-6f"/>
       <use x="588.5625" xlink:href="#BitstreamVeraSans-Roman-6e"/>
       <use x="651.94140625" xlink:href="#BitstreamVeraSans-Roman-6c"/>
       <use x="679.724609375" xlink:href="#BitstreamVeraSans-Roman-79"/>
      </g>
     </g>
    </g>
   </g>
   <g id="text_5">
    <path d="M 39.843281 532.758523 
L 45.617344 532.758523 
L 45.617344 535.244773 
L 36.080156 535.244773 
L 36.080156 532.758523 
L 40.869844 528.528523 
Q 41.513906 527.949148 41.820469 527.395086 
Q 42.127031 526.841023 42.127031 526.244773 
Q 42.127031 525.322273 41.508281 524.759773 
Q 40.889531 524.197273 39.860156 524.197273 
Q 39.069844 524.197273 38.127656 524.534773 
Q 37.188281 524.872273 36.116719 525.541648 
L 36.116719 522.658836 
Q 37.258594 522.281961 38.375156 522.085086 
Q 39.491719 521.885398 40.563281 521.885398 
Q 42.920156 521.885398 44.225156 522.923211 
Q 45.530156 523.958211 45.530156 525.814461 
Q 45.530156 526.886023 44.976094 527.814148 
Q 44.422031 528.739461 42.647344 530.297586 
z
M 49.29082 532.907586 
L 52.280508 532.907586 
L 52.280508 524.425086 
L 49.21207 525.057898 
L 49.21207 522.754461 
L 52.26082 522.121648 
L 55.47832 522.121648 
L 55.47832 532.907586 
L 58.468008 532.907586 
L 58.468008 535.244773 
L 49.29082 535.244773 
z
M 66.492422 537.618523 
L 63.879609 537.618523 
Q 62.535234 535.447273 61.893984 533.492586 
Q 61.252734 531.535086 61.252734 529.611336 
Q 61.252734 527.684773 61.896797 525.713211 
Q 62.543672 523.738836 63.879609 521.587273 
L 66.492422 521.587273 
Q 65.367422 523.668523 64.804922 525.659773 
Q 64.242422 527.651023 64.242422 529.594461 
Q 64.242422 531.535086 64.799297 533.531961 
Q 65.356172 535.526023 66.492422 537.618523 
M 70.041797 532.907586 
L 73.031484 532.907586 
L 73.031484 524.425086 
L 69.963047 525.057898 
L 69.963047 522.754461 
L 73.011797 522.121648 
L 76.229297 522.121648 
L 76.229297 532.907586 
L 79.218984 532.907586 
L 79.218984 535.244773 
L 70.041797 535.244773 
z
M 86.723086 529.372273 
Q 85.775273 529.372273 85.263398 529.892586 
Q 84.754336 530.410086 84.754336 531.377586 
Q 84.754336 532.345086 85.263398 532.859773 
Q 85.775273 533.371648 86.723086 533.371648 
Q 87.665273 533.371648 88.165898 532.859773 
Q 88.666523 532.345086 88.666523 531.377586 
Q 88.666523 530.401648 88.165898 529.886961 
Q 87.665273 529.372273 86.723086 529.372273 
M 84.253711 528.258523 
Q 83.058398 527.895711 82.450898 527.150398 
Q 81.846211 526.402273 81.846211 525.285711 
Q 81.846211 523.626336 83.083711 522.757273 
Q 84.324023 521.885398 86.723086 521.885398 
Q 89.105273 521.885398 90.342773 522.751648 
Q 91.583086 523.617898 91.583086 525.285711 
Q 91.583086 526.402273 90.972773 527.150398 
Q 90.362461 527.895711 89.167148 528.258523 
Q 90.503086 528.626961 91.183711 529.456648 
Q 91.864336 530.286336 91.864336 531.551961 
Q 91.864336 533.503836 90.567773 534.502273 
Q 89.271211 535.500711 86.723086 535.500711 
Q 84.166523 535.500711 82.861523 534.502273 
Q 81.556523 533.503836 81.556523 531.551961 
Q 81.556523 530.286336 82.237148 529.456648 
Q 82.917773 528.626961 84.253711 528.258523 
M 85.044023 525.628836 
Q 85.044023 526.410711 85.479961 526.832586 
Q 85.915898 527.254461 86.723086 527.254461 
Q 87.513398 527.254461 87.943711 526.832586 
Q 88.376836 526.410711 88.376836 525.628836 
Q 88.376836 524.846961 87.943711 524.430711 
Q 87.513398 524.011648 86.723086 524.011648 
Q 85.915898 524.011648 85.479961 524.433523 
Q 85.044023 524.855398 85.044023 525.628836 
M 106.928438 529.830711 
Q 106.306875 529.830711 105.96375 530.370711 
Q 105.620625 530.910711 105.620625 531.914773 
Q 105.620625 532.924461 105.958125 533.464461 
Q 106.295625 534.004461 106.928438 534.004461 
Q 107.56125 534.004461 107.895938 533.464461 
Q 108.230625 532.924461 108.230625 531.914773 
Q 108.230625 530.910711 107.890312 530.370711 
Q 107.552813 529.830711 106.928438 529.830711 
M 106.928438 528.354148 
Q 108.565313 528.354148 109.504688 529.304773 
Q 110.444063 530.252586 110.444063 531.914773 
Q 110.444063 533.574148 109.504688 534.538836 
Q 108.565313 535.500711 106.928438 535.500711 
Q 105.294375 535.500711 104.349375 534.538836 
Q 103.404375 533.574148 103.404375 531.914773 
Q 103.404375 530.261023 104.349375 529.307586 
Q 105.294375 528.354148 106.928438 528.354148 
M 98.870625 535.500711 
L 96.927188 535.500711 
L 105.128438 521.885398 
L 107.080313 521.885398 
z
M 97.067813 521.885398 
Q 98.701875 521.885398 99.638437 522.838836 
Q 100.575 523.792273 100.575 525.454461 
Q 100.575 527.113836 99.638437 528.072898 
Q 98.701875 529.031961 97.067813 529.031961 
Q 95.43375 529.031961 94.497187 528.072898 
Q 93.560625 527.113836 93.560625 525.454461 
Q 93.560625 523.792273 94.497187 522.838836 
Q 95.43375 521.885398 97.067813 521.885398 
M 97.067813 523.361961 
Q 96.435 523.361961 96.091875 523.907586 
Q 95.74875 524.450398 95.74875 525.454461 
Q 95.74875 526.464148 96.091875 527.015398 
Q 96.435 527.563836 97.067813 527.563836 
Q 97.700625 527.563836 98.038125 527.015398 
Q 98.378438 526.464148 98.378438 525.454461 
Q 98.378438 524.450398 98.035313 523.907586 
Q 97.692188 523.361961 97.067813 523.361961 
M 112.459219 537.618523 
Q 113.584219 535.526023 114.146719 533.531961 
Q 114.709219 531.535086 114.709219 529.594461 
Q 114.709219 527.651023 114.146719 525.659773 
Q 113.584219 523.668523 112.459219 521.587273 
L 115.069219 521.587273 
Q 116.405156 523.738836 117.049219 525.713211 
Q 117.696094 527.684773 117.696094 529.611336 
Q 117.696094 531.535086 117.054844 533.492586 
Q 116.413594 535.447273 115.069219 537.618523 
z
" style="fill:#ffffff;stroke:#000000;stroke-width:5.0;"/>
    <path d="M 39.843281 532.758523 
L 45.617344 532.758523 
L 45.617344 535.244773 
L 36.080156 535.244773 
L 36.080156 532.758523 
L 40.869844 528.528523 
Q 41.513906 527.949148 41.820469 527.395086 
Q 42.127031 526.841023 42.127031 526.244773 
Q 42.127031 525.322273 41.508281 524.759773 
Q 40.889531 524.197273 39.860156 524.197273 
Q 39.069844 524.197273 38.127656 524.534773 
Q 37.188281 524.872273 36.116719 525.541648 
L 36.116719 522.658836 
Q 37.258594 522.281961 38.375156 522.085086 
Q 39.491719 521.885398 40.563281 521.885398 
Q 42.920156 521.885398 44.225156 522.923211 
Q 45.530156 523.958211 45.530156 525.814461 
Q 45.530156 526.886023 44.976094 527.814148 
Q 44.422031 528.739461 42.647344 530.297586 
z
M 49.29082 532.907586 
L 52.280508 532.907586 
L 52.280508 524.425086 
L 49.21207 525.057898 
L 49.21207 522.754461 
L 52.26082 522.121648 
L 55.47832 522.121648 
L 55.47832 532.907586 
L 58.468008 532.907586 
L 58.468008 535.244773 
L 49.29082 535.244773 
z
M 66.492422 537.618523 
L 63.879609 537.618523 
Q 62.535234 535.447273 61.893984 533.492586 
Q 61.252734 531.535086 61.252734 529.611336 
Q 61.252734 527.684773 61.896797 525.713211 
Q 62.543672 523.738836 63.879609 521.587273 
L 66.492422 521.587273 
Q 65.367422 523.668523 64.804922 525.659773 
Q 64.242422 527.651023 64.242422 529.594461 
Q 64.242422 531.535086 64.799297 533.531961 
Q 65.356172 535.526023 66.492422 537.618523 
M 70.041797 532.907586 
L 73.031484 532.907586 
L 73.031484 524.425086 
L 69.963047 525.057898 
L 69.963047 522.754461 
L 73.011797 522.121648 
L 76.229297 522.121648 
L 76.229297 532.907586 
L 79.218984 532.907586 
L 79.218984 535.244773 
L 70.041797 535.244773 
z
M 86.723086 529.372273 
Q 85.775273 529.372273 85.263398 529.892586 
Q 84.754336 530.410086 84.754336 531.377586 
Q 84.754336 532.345086 85.263398 532.859773 
Q 85.775273 533.371648 86.723086 533.371648 
Q 87.665273 533.371648 88.165898 532.859773 
Q 88.666523 532.345086 88.666523 531.377586 
Q 88.666523 530.401648 88.165898 529.886961 
Q 87.665273 529.372273 86.723086 529.372273 
M 84.253711 528.258523 
Q 83.058398 527.895711 82.450898 527.150398 
Q 81.846211 526.402273 81.846211 525.285711 
Q 81.846211 523.626336 83.083711 522.757273 
Q 84.324023 521.885398 86.723086 521.885398 
Q 89.105273 521.885398 90.342773 522.751648 
Q 91.583086 523.617898 91.583086 525.285711 
Q 91.583086 526.402273 90.972773 527.150398 
Q 90.362461 527.895711 89.167148 528.258523 
Q 90.503086 528.626961 91.183711 529.456648 
Q 91.864336 530.286336 91.864336 531.551961 
Q 91.864336 533.503836 90.567773 534.502273 
Q 89.271211 535.500711 86.723086 535.500711 
Q 84.166523 535.500711 82.861523 534.502273 
Q 81.556523 533.503836 81.556523 531.551961 
Q 81.556523 530.286336 82.237148 529.456648 
Q 82.917773 528.626961 84.253711 528.258523 
M 85.044023 525.628836 
Q 85.044023 526.410711 85.479961 526.832586 
Q 85.915898 527.254461 86.723086 527.254461 
Q 87.513398 527.254461 87.943711 526.832586 
Q 88.376836 526.410711 88.376836 525.628836 
Q 88.376836 524.846961 87.943711 524.430711 
Q 87.513398 524.011648 86.723086 524.011648 
Q 85.915898 524.011648 85.479961 524.433523 
Q 85.044023 524.855398 85.044023 525.628836 
M 106.928438 529.830711 
Q 106.306875 529.830711 105.96375 530.370711 
Q 105.620625 530.910711 105.620625 531.914773 
Q 105.620625 532.924461 105.958125 533.464461 
Q 106.295625 534.004461 106.928438 534.004461 
Q 107.56125 534.004461 107.895938 533.464461 
Q 108.230625 532.924461 108.230625 531.914773 
Q 108.230625 530.910711 107.890312 530.370711 
Q 107.552813 529.830711 106.928438 529.830711 
M 106.928438 528.354148 
Q 108.565313 528.354148 109.504688 529.304773 
Q 110.444063 530.252586 110.444063 531.914773 
Q 110.444063 533.574148 109.504688 534.538836 
Q 108.565313 535.500711 106.928438 535.500711 
Q 105.294375 535.500711 104.349375 534.538836 
Q 103.404375 533.574148 103.404375 531.914773 
Q 103.404375 530.261023 104.349375 529.307586 
Q 105.294375 528.354148 106.928438 528.354148 
M 98.870625 535.500711 
L 96.927188 535.500711 
L 105.128438 521.885398 
L 107.080313 521.885398 
z
M 97.067813 521.885398 
Q 98.701875 521.885398 99.638437 522.838836 
Q 100.575 523.792273 100.575 525.454461 
Q 100.575 527.113836 99.638437 528.072898 
Q 98.701875 529.031961 97.067813 529.031961 
Q 95.43375 529.031961 94.497187 528.072898 
Q 93.560625 527.113836 93.560625 525.454461 
Q 93.560625 523.792273 94.497187 522.838836 
Q 95.43375 521.885398 97.067813 521.885398 
M 97.067813 523.361961 
Q 96.435 523.361961 96.091875 523.907586 
Q 95.74875 524.450398 95.74875 525.454461 
Q 95.74875 526.464148 96.091875 527.015398 
Q 96.435 527.563836 97.067813 527.563836 
Q 97.700625 527.563836 98.038125 527.015398 
Q 98.378438 526.464148 98.378438 525.454461 
Q 98.378438 524.450398 98.035313 523.907586 
Q 97.692188 523.361961 97.067813 523.361961 
M 112.459219 537.618523 
Q 113.584219 535.526023 114.146719 533.531961 
Q 114.709219 531.535086 114.709219 529.594461 
Q 114.709219 527.651023 114.146719 525.659773 
Q 113.584219 523.668523 112.459219 521.587273 
L 115.069219 521.587273 
Q 116.405156 523.738836 117.049219 525.713211 
Q 117.696094 527.684773 117.696094 529.611336 
Q 117.696094 531.535086 117.054844 533.492586 
Q 116.413594 535.447273 115.069219 537.618523 
z
" style="fill:#ffffff;"/>
   </g>
   <g id="text_6">
    <path d="M 41.283281 361.212376 
L 37.576406 366.705188 
L 41.283281 366.705188 
z
M 40.720781 358.425188 
L 44.483906 358.425188 
L 44.483906 366.705188 
L 46.354219 366.705188 
L 46.354219 369.157688 
L 44.483906 369.157688 
L 44.483906 371.548313 
L 41.283281 371.548313 
L 41.283281 369.157688 
L 35.467031 369.157688 
L 35.467031 366.258001 
z
M 53.447695 365.675813 
Q 52.499883 365.675813 51.988008 366.196126 
Q 51.478945 366.713626 51.478945 367.681126 
Q 51.478945 368.648626 51.988008 369.163313 
Q 52.499883 369.675188 53.447695 369.675188 
Q 54.389883 369.675188 54.890508 369.163313 
Q 55.391133 368.648626 55.391133 367.681126 
Q 55.391133 366.705188 54.890508 366.190501 
Q 54.389883 365.675813 53.447695 365.675813 
M 50.97832 364.562063 
Q 49.783008 364.199251 49.175508 363.453938 
Q 48.57082 362.705813 48.57082 361.589251 
Q 48.57082 359.929876 49.80832 359.060813 
Q 51.048633 358.188938 53.447695 358.188938 
Q 55.829883 358.188938 57.067383 359.055188 
Q 58.307695 359.921438 58.307695 361.589251 
Q 58.307695 362.705813 57.697383 363.453938 
Q 57.08707 364.199251 55.891758 364.562063 
Q 57.227695 364.930501 57.90832 365.760188 
Q 58.588945 366.589876 58.588945 367.855501 
Q 58.588945 369.807376 57.292383 370.805813 
Q 55.99582 371.804251 53.447695 371.804251 
Q 50.891133 371.804251 49.586133 370.805813 
Q 48.281133 369.807376 48.281133 367.855501 
Q 48.281133 366.589876 48.961758 365.760188 
Q 49.642383 364.930501 50.97832 364.562063 
M 51.768633 361.932376 
Q 51.768633 362.714251 52.20457 363.136126 
Q 52.640508 363.558001 53.447695 363.558001 
Q 54.238008 363.558001 54.66832 363.136126 
Q 55.101445 362.714251 55.101445 361.932376 
Q 55.101445 361.150501 54.66832 360.734251 
Q 54.238008 360.315188 53.447695 360.315188 
Q 52.640508 360.315188 52.20457 360.737063 
Q 51.768633 361.158938 51.768633 361.932376 
M 66.492422 373.922063 
L 63.879609 373.922063 
Q 62.535234 371.750813 61.893984 369.796126 
Q 61.252734 367.838626 61.252734 365.914876 
Q 61.252734 363.988313 61.896797 362.016751 
Q 62.543672 360.042376 63.879609 357.890813 
L 66.492422 357.890813 
Q 65.367422 359.972063 64.804922 361.963313 
Q 64.242422 363.954563 64.242422 365.898001 
Q 64.242422 367.838626 64.799297 369.835501 
Q 65.356172 371.829563 66.492422 373.922063 
M 74.558672 361.212376 
L 70.851797 366.705188 
L 74.558672 366.705188 
z
M 73.996172 358.425188 
L 77.759297 358.425188 
L 77.759297 366.705188 
L 79.629609 366.705188 
L 79.629609 369.157688 
L 77.759297 369.157688 
L 77.759297 371.548313 
L 74.558672 371.548313 
L 74.558672 369.157688 
L 68.742422 369.157688 
L 68.742422 366.258001 
z
M 85.643086 369.062063 
L 91.417148 369.062063 
L 91.417148 371.548313 
L 81.879961 371.548313 
L 81.879961 369.062063 
L 86.669648 364.832063 
Q 87.313711 364.252688 87.620273 363.698626 
Q 87.926836 363.144563 87.926836 362.548313 
Q 87.926836 361.625813 87.308086 361.063313 
Q 86.689336 360.500813 85.659961 360.500813 
Q 84.869648 360.500813 83.927461 360.838313 
Q 82.988086 361.175813 81.916523 361.845188 
L 81.916523 358.962376 
Q 83.058398 358.585501 84.174961 358.388626 
Q 85.291523 358.188938 86.363086 358.188938 
Q 88.719961 358.188938 90.024961 359.226751 
Q 91.329961 360.261751 91.329961 362.118001 
Q 91.329961 363.189563 90.775898 364.117688 
Q 90.221836 365.043001 88.447148 366.601126 
z
M 106.928438 366.134251 
Q 106.306875 366.134251 105.96375 366.674251 
Q 105.620625 367.214251 105.620625 368.218313 
Q 105.620625 369.228001 105.958125 369.768001 
Q 106.295625 370.308001 106.928438 370.308001 
Q 107.56125 370.308001 107.895938 369.768001 
Q 108.230625 369.228001 108.230625 368.218313 
Q 108.230625 367.214251 107.890312 366.674251 
Q 107.552813 366.134251 106.928438 366.134251 
M 106.928438 364.657688 
Q 108.565313 364.657688 109.504688 365.608313 
Q 110.444063 366.556126 110.444063 368.218313 
Q 110.444063 369.877688 109.504688 370.842376 
Q 108.565313 371.804251 106.928438 371.804251 
Q 105.294375 371.804251 104.349375 370.842376 
Q 103.404375 369.877688 103.404375 368.218313 
Q 103.404375 366.564563 104.349375 365.611126 
Q 105.294375 364.657688 106.928438 364.657688 
M 98.870625 371.804251 
L 96.927188 371.804251 
L 105.128438 358.188938 
L 107.080313 358.188938 
z
M 97.067813 358.188938 
Q 98.701875 358.188938 99.638437 359.142376 
Q 100.575 360.095813 100.575 361.758001 
Q 100.575 363.417376 99.638437 364.376438 
Q 98.701875 365.335501 97.067813 365.335501 
Q 95.43375 365.335501 94.497187 364.376438 
Q 93.560625 363.417376 93.560625 361.758001 
Q 93.560625 360.095813 94.497187 359.142376 
Q 95.43375 358.188938 97.067813 358.188938 
M 97.067813 359.665501 
Q 96.435 359.665501 96.091875 360.211126 
Q 95.74875 360.753938 95.74875 361.758001 
Q 95.74875 362.767688 96.091875 363.318938 
Q 96.435 363.867376 97.067813 363.867376 
Q 97.700625 363.867376 98.038125 363.318938 
Q 98.378438 362.767688 98.378438 361.758001 
Q 98.378438 360.753938 98.035313 360.211126 
Q 97.692188 359.665501 97.067813 359.665501 
M 112.459219 373.922063 
Q 113.584219 371.829563 114.146719 369.835501 
Q 114.709219 367.838626 114.709219 365.898001 
Q 114.709219 363.954563 114.146719 361.963313 
Q 113.584219 359.972063 112.459219 357.890813 
L 115.069219 357.890813 
Q 116.405156 360.042376 117.049219 362.016751 
Q 117.696094 363.988313 117.696094 365.914876 
Q 117.696094 367.838626 117.054844 369.796126 
Q 116.413594 371.750813 115.069219 373.922063 
z
" style="fill:#ffffff;stroke:#000000;stroke-width:5.0;"/>
    <path d="M 41.283281 361.212376 
L 37.576406 366.705188 
L 41.283281 366.705188 
z
M 40.720781 358.425188 
L 44.483906 358.425188 
L 44.483906 366.705188 
L 46.354219 366.705188 
L 46.354219 369.157688 
L 44.483906 369.157688 
L 44.483906 371.548313 
L 41.283281 371.548313 
L 41.283281 369.157688 
L 35.467031 369.157688 
L 35.467031 366.258001 
z
M 53.447695 365.675813 
Q 52.499883 365.675813 51.988008 366.196126 
Q 51.478945 366.713626 51.478945 367.681126 
Q 51.478945 368.648626 51.988008 369.163313 
Q 52.499883 369.675188 53.447695 369.675188 
Q 54.389883 369.675188 54.890508 369.163313 
Q 55.391133 368.648626 55.391133 367.681126 
Q 55.391133 366.705188 54.890508 366.190501 
Q 54.389883 365.675813 53.447695 365.675813 
M 50.97832 364.562063 
Q 49.783008 364.199251 49.175508 363.453938 
Q 48.57082 362.705813 48.57082 361.589251 
Q 48.57082 359.929876 49.80832 359.060813 
Q 51.048633 358.188938 53.447695 358.188938 
Q 55.829883 358.188938 57.067383 359.055188 
Q 58.307695 359.921438 58.307695 361.589251 
Q 58.307695 362.705813 57.697383 363.453938 
Q 57.08707 364.199251 55.891758 364.562063 
Q 57.227695 364.930501 57.90832 365.760188 
Q 58.588945 366.589876 58.588945 367.855501 
Q 58.588945 369.807376 57.292383 370.805813 
Q 55.99582 371.804251 53.447695 371.804251 
Q 50.891133 371.804251 49.586133 370.805813 
Q 48.281133 369.807376 48.281133 367.855501 
Q 48.281133 366.589876 48.961758 365.760188 
Q 49.642383 364.930501 50.97832 364.562063 
M 51.768633 361.932376 
Q 51.768633 362.714251 52.20457 363.136126 
Q 52.640508 363.558001 53.447695 363.558001 
Q 54.238008 363.558001 54.66832 363.136126 
Q 55.101445 362.714251 55.101445 361.932376 
Q 55.101445 361.150501 54.66832 360.734251 
Q 54.238008 360.315188 53.447695 360.315188 
Q 52.640508 360.315188 52.20457 360.737063 
Q 51.768633 361.158938 51.768633 361.932376 
M 66.492422 373.922063 
L 63.879609 373.922063 
Q 62.535234 371.750813 61.893984 369.796126 
Q 61.252734 367.838626 61.252734 365.914876 
Q 61.252734 363.988313 61.896797 362.016751 
Q 62.543672 360.042376 63.879609 357.890813 
L 66.492422 357.890813 
Q 65.367422 359.972063 64.804922 361.963313 
Q 64.242422 363.954563 64.242422 365.898001 
Q 64.242422 367.838626 64.799297 369.835501 
Q 65.356172 371.829563 66.492422 373.922063 
M 74.558672 361.212376 
L 70.851797 366.705188 
L 74.558672 366.705188 
z
M 73.996172 358.425188 
L 77.759297 358.425188 
L 77.759297 366.705188 
L 79.629609 366.705188 
L 79.629609 369.157688 
L 77.759297 369.157688 
L 77.759297 371.548313 
L 74.558672 371.548313 
L 74.558672 369.157688 
L 68.742422 369.157688 
L 68.742422 366.258001 
z
M 85.643086 369.062063 
L 91.417148 369.062063 
L 91.417148 371.548313 
L 81.879961 371.548313 
L 81.879961 369.062063 
L 86.669648 364.832063 
Q 87.313711 364.252688 87.620273 363.698626 
Q 87.926836 363.144563 87.926836 362.548313 
Q 87.926836 361.625813 87.308086 361.063313 
Q 86.689336 360.500813 85.659961 360.500813 
Q 84.869648 360.500813 83.927461 360.838313 
Q 82.988086 361.175813 81.916523 361.845188 
L 81.916523 358.962376 
Q 83.058398 358.585501 84.174961 358.388626 
Q 85.291523 358.188938 86.363086 358.188938 
Q 88.719961 358.188938 90.024961 359.226751 
Q 91.329961 360.261751 91.329961 362.118001 
Q 91.329961 363.189563 90.775898 364.117688 
Q 90.221836 365.043001 88.447148 366.601126 
z
M 106.928438 366.134251 
Q 106.306875 366.134251 105.96375 366.674251 
Q 105.620625 367.214251 105.620625 368.218313 
Q 105.620625 369.228001 105.958125 369.768001 
Q 106.295625 370.308001 106.928438 370.308001 
Q 107.56125 370.308001 107.895938 369.768001 
Q 108.230625 369.228001 108.230625 368.218313 
Q 108.230625 367.214251 107.890312 366.674251 
Q 107.552813 366.134251 106.928438 366.134251 
M 106.928438 364.657688 
Q 108.565313 364.657688 109.504688 365.608313 
Q 110.444063 366.556126 110.444063 368.218313 
Q 110.444063 369.877688 109.504688 370.842376 
Q 108.565313 371.804251 106.928438 371.804251 
Q 105.294375 371.804251 104.349375 370.842376 
Q 103.404375 369.877688 103.404375 368.218313 
Q 103.404375 366.564563 104.349375 365.611126 
Q 105.294375 364.657688 106.928438 364.657688 
M 98.870625 371.804251 
L 96.927188 371.804251 
L 105.128438 358.188938 
L 107.080313 358.188938 
z
M 97.067813 358.188938 
Q 98.701875 358.188938 99.638437 359.142376 
Q 100.575 360.095813 100.575 361.758001 
Q 100.575 363.417376 99.638437 364.376438 
Q 98.701875 365.335501 97.067813 365.335501 
Q 95.43375 365.335501 94.497187 364.376438 
Q 93.560625 363.417376 93.560625 361.758001 
Q 93.560625 360.095813 94.497187 359.142376 
Q 95.43375 358.188938 97.067813 358.188938 
M 97.067813 359.665501 
Q 96.435 359.665501 96.091875 360.211126 
Q 95.74875 360.753938 95.74875 361.758001 
Q 95.74875 362.767688 96.091875 363.318938 
Q 96.435 363.867376 97.067813 363.867376 
Q 97.700625 363.867376 98.038125 363.318938 
Q 98.378438 362.767688 98.378438 361.758001 
Q 98.378438 360.753938 98.035313 360.211126 
Q 97.692188 359.665501 97.067813 359.665501 
M 112.459219 373.922063 
Q 113.584219 371.829563 114.146719 369.835501 
Q 114.709219 367.838626 114.709219 365.898001 
Q 114.709219 363.954563 114.146719 361.963313 
Q 113.584219 359.972063 112.459219 357.890813 
L 115.069219 357.890813 
Q 116.405156 360.042376 117.049219 362.016751 
Q 117.696094 363.988313 117.696094 365.914876 
Q 117.696094 367.838626 117.054844 369.796126 
Q 116.413594 371.750813 115.069219 373.922063 
z
" style="fill:#ffffff;"/>
   </g>
   <g id="text_7">
    <path d="M 41.283281 133.074322 
L 37.576406 138.567135 
L 41.283281 138.567135 
z
M 40.720781 130.287135 
L 44.483906 130.287135 
L 44.483906 138.567135 
L 46.354219 138.567135 
L 46.354219 141.019635 
L 44.483906 141.019635 
L 44.483906 143.41026 
L 41.283281 143.41026 
L 41.283281 141.019635 
L 35.467031 141.019635 
L 35.467031 138.119947 
z
M 53.807695 133.074322 
L 50.10082 138.567135 
L 53.807695 138.567135 
z
M 53.245195 130.287135 
L 57.00832 130.287135 
L 57.00832 138.567135 
L 58.878633 138.567135 
L 58.878633 141.019635 
L 57.00832 141.019635 
L 57.00832 143.41026 
L 53.807695 143.41026 
L 53.807695 141.019635 
L 47.991445 141.019635 
L 47.991445 138.119947 
z
M 66.492422 145.78401 
L 63.879609 145.78401 
Q 62.535234 143.61276 61.893984 141.658072 
Q 61.252734 139.700572 61.252734 137.776822 
Q 61.252734 135.85026 61.896797 133.878697 
Q 62.543672 131.904322 63.879609 129.75276 
L 66.492422 129.75276 
Q 65.367422 131.83401 64.804922 133.82526 
Q 64.242422 135.81651 64.242422 137.759947 
Q 64.242422 139.700572 64.799297 141.697447 
Q 65.356172 143.69151 66.492422 145.78401 
M 76.316484 136.33401 
Q 77.643984 136.677135 78.333047 137.52651 
Q 79.024922 138.373072 79.024922 139.683697 
Q 79.024922 141.635572 77.528672 142.650885 
Q 76.035234 143.666197 73.172109 143.666197 
Q 72.159609 143.666197 71.144297 143.503072 
Q 70.128984 143.339947 69.136172 143.013697 
L 69.136172 140.403697 
Q 70.086797 140.87901 71.020547 141.120885 
Q 71.957109 141.36276 72.862734 141.36276 
Q 74.207109 141.36276 74.924297 140.898697 
Q 75.641484 140.431822 75.641484 139.559947 
Q 75.641484 138.66276 74.907422 138.20151 
Q 74.173359 137.74026 72.738984 137.74026 
L 71.386172 137.74026 
L 71.386172 135.560572 
L 72.809297 135.560572 
Q 74.086172 135.560572 74.707734 135.161197 
Q 75.332109 134.761822 75.332109 133.943385 
Q 75.332109 133.189635 74.724609 132.776197 
Q 74.119922 132.36276 73.011797 132.36276 
Q 72.196172 132.36276 71.360859 132.548385 
Q 70.525547 132.731197 69.698672 133.091197 
L 69.698672 130.613385 
Q 70.699922 130.332135 71.684297 130.19151 
Q 72.668672 130.050885 73.619297 130.050885 
Q 76.175859 130.050885 77.444297 130.891822 
Q 78.715547 131.729947 78.715547 133.417447 
Q 78.715547 134.56776 78.108047 135.301822 
Q 77.503359 136.035885 76.316484 136.33401 
M 86.723086 137.53776 
Q 85.775273 137.53776 85.263398 138.058072 
Q 84.754336 138.575572 84.754336 139.543072 
Q 84.754336 140.510572 85.263398 141.02526 
Q 85.775273 141.537135 86.723086 141.537135 
Q 87.665273 141.537135 88.165898 141.02526 
Q 88.666523 140.510572 88.666523 139.543072 
Q 88.666523 138.567135 88.165898 138.052447 
Q 87.665273 137.53776 86.723086 137.53776 
M 84.253711 136.42401 
Q 83.058398 136.061197 82.450898 135.315885 
Q 81.846211 134.56776 81.846211 133.451197 
Q 81.846211 131.791822 83.083711 130.92276 
Q 84.324023 130.050885 86.723086 130.050885 
Q 89.105273 130.050885 90.342773 130.917135 
Q 91.583086 131.783385 91.583086 133.451197 
Q 91.583086 134.56776 90.972773 135.315885 
Q 90.362461 136.061197 89.167148 136.42401 
Q 90.503086 136.792447 91.183711 137.622135 
Q 91.864336 138.451822 91.864336 139.717447 
Q 91.864336 141.669322 90.567773 142.66776 
Q 89.271211 143.666197 86.723086 143.666197 
Q 84.166523 143.666197 82.861523 142.66776 
Q 81.556523 141.669322 81.556523 139.717447 
Q 81.556523 138.451822 82.237148 137.622135 
Q 82.917773 136.792447 84.253711 136.42401 
M 85.044023 133.794322 
Q 85.044023 134.576197 85.479961 134.998072 
Q 85.915898 135.419947 86.723086 135.419947 
Q 87.513398 135.419947 87.943711 134.998072 
Q 88.376836 134.576197 88.376836 133.794322 
Q 88.376836 133.012447 87.943711 132.596197 
Q 87.513398 132.177135 86.723086 132.177135 
Q 85.915898 132.177135 85.479961 132.59901 
Q 85.044023 133.020885 85.044023 133.794322 
M 106.928438 137.996197 
Q 106.306875 137.996197 105.96375 138.536197 
Q 105.620625 139.076197 105.620625 140.08026 
Q 105.620625 141.089947 105.958125 141.629947 
Q 106.295625 142.169947 106.928438 142.169947 
Q 107.56125 142.169947 107.895938 141.629947 
Q 108.230625 141.089947 108.230625 140.08026 
Q 108.230625 139.076197 107.890312 138.536197 
Q 107.552813 137.996197 106.928438 137.996197 
M 106.928438 136.519635 
Q 108.565313 136.519635 109.504688 137.47026 
Q 110.444063 138.418072 110.444063 140.08026 
Q 110.444063 141.739635 109.504688 142.704322 
Q 108.565313 143.666197 106.928438 143.666197 
Q 105.294375 143.666197 104.349375 142.704322 
Q 103.404375 141.739635 103.404375 140.08026 
Q 103.404375 138.42651 104.349375 137.473072 
Q 105.294375 136.519635 106.928438 136.519635 
M 98.870625 143.666197 
L 96.927188 143.666197 
L 105.128438 130.050885 
L 107.080313 130.050885 
z
M 97.067813 130.050885 
Q 98.701875 130.050885 99.638437 131.004322 
Q 100.575 131.95776 100.575 133.619947 
Q 100.575 135.279322 99.638437 136.238385 
Q 98.701875 137.197447 97.067813 137.197447 
Q 95.43375 137.197447 94.497187 136.238385 
Q 93.560625 135.279322 93.560625 133.619947 
Q 93.560625 131.95776 94.497187 131.004322 
Q 95.43375 130.050885 97.067813 130.050885 
M 97.067813 131.527447 
Q 96.435 131.527447 96.091875 132.073072 
Q 95.74875 132.615885 95.74875 133.619947 
Q 95.74875 134.629635 96.091875 135.180885 
Q 96.435 135.729322 97.067813 135.729322 
Q 97.700625 135.729322 98.038125 135.180885 
Q 98.378438 134.629635 98.378438 133.619947 
Q 98.378438 132.615885 98.035313 132.073072 
Q 97.692188 131.527447 97.067813 131.527447 
M 112.459219 145.78401 
Q 113.584219 143.69151 114.146719 141.697447 
Q 114.709219 139.700572 114.709219 137.759947 
Q 114.709219 135.81651 114.146719 133.82526 
Q 113.584219 131.83401 112.459219 129.75276 
L 115.069219 129.75276 
Q 116.405156 131.904322 117.049219 133.878697 
Q 117.696094 135.85026 117.696094 137.776822 
Q 117.696094 139.700572 117.054844 141.658072 
Q 116.413594 143.61276 115.069219 145.78401 
z
" style="fill:#ffffff;stroke:#000000;stroke-width:5.0;"/>
    <path d="M 41.283281 133.074322 
L 37.576406 138.567135 
L 41.283281 138.567135 
z
M 40.720781 130.287135 
L 44.483906 130.287135 
L 44.483906 138.567135 
L 46.354219 138.567135 
L 46.354219 141.019635 
L 44.483906 141.019635 
L 44.483906 143.41026 
L 41.283281 143.41026 
L 41.283281 141.019635 
L 35.467031 141.019635 
L 35.467031 138.119947 
z
M 53.807695 133.074322 
L 50.10082 138.567135 
L 53.807695 138.567135 
z
M 53.245195 130.287135 
L 57.00832 130.287135 
L 57.00832 138.567135 
L 58.878633 138.567135 
L 58.878633 141.019635 
L 57.00832 141.019635 
L 57.00832 143.41026 
L 53.807695 143.41026 
L 53.807695 141.019635 
L 47.991445 141.019635 
L 47.991445 138.119947 
z
M 66.492422 145.78401 
L 63.879609 145.78401 
Q 62.535234 143.61276 61.893984 141.658072 
Q 61.252734 139.700572 61.252734 137.776822 
Q 61.252734 135.85026 61.896797 133.878697 
Q 62.543672 131.904322 63.879609 129.75276 
L 66.492422 129.75276 
Q 65.367422 131.83401 64.804922 133.82526 
Q 64.242422 135.81651 64.242422 137.759947 
Q 64.242422 139.700572 64.799297 141.697447 
Q 65.356172 143.69151 66.492422 145.78401 
M 76.316484 136.33401 
Q 77.643984 136.677135 78.333047 137.52651 
Q 79.024922 138.373072 79.024922 139.683697 
Q 79.024922 141.635572 77.528672 142.650885 
Q 76.035234 143.666197 73.172109 143.666197 
Q 72.159609 143.666197 71.144297 143.503072 
Q 70.128984 143.339947 69.136172 143.013697 
L 69.136172 140.403697 
Q 70.086797 140.87901 71.020547 141.120885 
Q 71.957109 141.36276 72.862734 141.36276 
Q 74.207109 141.36276 74.924297 140.898697 
Q 75.641484 140.431822 75.641484 139.559947 
Q 75.641484 138.66276 74.907422 138.20151 
Q 74.173359 137.74026 72.738984 137.74026 
L 71.386172 137.74026 
L 71.386172 135.560572 
L 72.809297 135.560572 
Q 74.086172 135.560572 74.707734 135.161197 
Q 75.332109 134.761822 75.332109 133.943385 
Q 75.332109 133.189635 74.724609 132.776197 
Q 74.119922 132.36276 73.011797 132.36276 
Q 72.196172 132.36276 71.360859 132.548385 
Q 70.525547 132.731197 69.698672 133.091197 
L 69.698672 130.613385 
Q 70.699922 130.332135 71.684297 130.19151 
Q 72.668672 130.050885 73.619297 130.050885 
Q 76.175859 130.050885 77.444297 130.891822 
Q 78.715547 131.729947 78.715547 133.417447 
Q 78.715547 134.56776 78.108047 135.301822 
Q 77.503359 136.035885 76.316484 136.33401 
M 86.723086 137.53776 
Q 85.775273 137.53776 85.263398 138.058072 
Q 84.754336 138.575572 84.754336 139.543072 
Q 84.754336 140.510572 85.263398 141.02526 
Q 85.775273 141.537135 86.723086 141.537135 
Q 87.665273 141.537135 88.165898 141.02526 
Q 88.666523 140.510572 88.666523 139.543072 
Q 88.666523 138.567135 88.165898 138.052447 
Q 87.665273 137.53776 86.723086 137.53776 
M 84.253711 136.42401 
Q 83.058398 136.061197 82.450898 135.315885 
Q 81.846211 134.56776 81.846211 133.451197 
Q 81.846211 131.791822 83.083711 130.92276 
Q 84.324023 130.050885 86.723086 130.050885 
Q 89.105273 130.050885 90.342773 130.917135 
Q 91.583086 131.783385 91.583086 133.451197 
Q 91.583086 134.56776 90.972773 135.315885 
Q 90.362461 136.061197 89.167148 136.42401 
Q 90.503086 136.792447 91.183711 137.622135 
Q 91.864336 138.451822 91.864336 139.717447 
Q 91.864336 141.669322 90.567773 142.66776 
Q 89.271211 143.666197 86.723086 143.666197 
Q 84.166523 143.666197 82.861523 142.66776 
Q 81.556523 141.669322 81.556523 139.717447 
Q 81.556523 138.451822 82.237148 137.622135 
Q 82.917773 136.792447 84.253711 136.42401 
M 85.044023 133.794322 
Q 85.044023 134.576197 85.479961 134.998072 
Q 85.915898 135.419947 86.723086 135.419947 
Q 87.513398 135.419947 87.943711 134.998072 
Q 88.376836 134.576197 88.376836 133.794322 
Q 88.376836 133.012447 87.943711 132.596197 
Q 87.513398 132.177135 86.723086 132.177135 
Q 85.915898 132.177135 85.479961 132.59901 
Q 85.044023 133.020885 85.044023 133.794322 
M 106.928438 137.996197 
Q 106.306875 137.996197 105.96375 138.536197 
Q 105.620625 139.076197 105.620625 140.08026 
Q 105.620625 141.089947 105.958125 141.629947 
Q 106.295625 142.169947 106.928438 142.169947 
Q 107.56125 142.169947 107.895938 141.629947 
Q 108.230625 141.089947 108.230625 140.08026 
Q 108.230625 139.076197 107.890312 138.536197 
Q 107.552813 137.996197 106.928438 137.996197 
M 106.928438 136.519635 
Q 108.565313 136.519635 109.504688 137.47026 
Q 110.444063 138.418072 110.444063 140.08026 
Q 110.444063 141.739635 109.504688 142.704322 
Q 108.565313 143.666197 106.928438 143.666197 
Q 105.294375 143.666197 104.349375 142.704322 
Q 103.404375 141.739635 103.404375 140.08026 
Q 103.404375 138.42651 104.349375 137.473072 
Q 105.294375 136.519635 106.928438 136.519635 
M 98.870625 143.666197 
L 96.927188 143.666197 
L 105.128438 130.050885 
L 107.080313 130.050885 
z
M 97.067813 130.050885 
Q 98.701875 130.050885 99.638437 131.004322 
Q 100.575 131.95776 100.575 133.619947 
Q 100.575 135.279322 99.638437 136.238385 
Q 98.701875 137.197447 97.067813 137.197447 
Q 95.43375 137.197447 94.497187 136.238385 
Q 93.560625 135.279322 93.560625 133.619947 
Q 93.560625 131.95776 94.497187 131.004322 
Q 95.43375 130.050885 97.067813 130.050885 
M 97.067813 131.527447 
Q 96.435 131.527447 96.091875 132.073072 
Q 95.74875 132.615885 95.74875 133.619947 
Q 95.74875 134.629635 96.091875 135.180885 
Q 96.435 135.729322 97.067813 135.729322 
Q 97.700625 135.729322 98.038125 135.180885 
Q 98.378438 134.629635 98.378438 133.619947 
Q 98.378438 132.615885 98.035313 132.073072 
Q 97.692188 131.527447 97.067813 131.527447 
M 112.459219 145.78401 
Q 113.584219 143.69151 114.146719 141.697447 
Q 114.709219 139.700572 114.709219 137.759947 
Q 114.709219 135.81651 114.146719 133.82526 
Q 113.584219 131.83401 112.459219 129.75276 
L 115.069219 129.75276 
Q 116.405156 131.904322 117.049219 133.878697 
Q 117.696094 135.85026 117.696094 137.776822 
Q 117.696094 139.700572 117.054844 141.658072 
Q 116.413594 143.61276 115.069219 145.78401 
z
" style="fill:#ffffff;"/>
   </g>
  </g>
 </g>
 <defs>
  <clipPath id="p20a7de1e5f">
   <rect height="558.0" width="139.5" x="7.2" y="27.6528125"/>
  </clipPath>
 </defs>
</svg>
