<?xml version="1.0" encoding="utf-8" standalone="no"?>
<!DOCTYPE svg PUBLIC "-//W3C//DTD SVG 1.1//EN"
  "http://www.w3.org/Graphics/SVG/1.1/DTD/svg11.dtd">
<!-- Created with matplotlib (http://matplotlib.org/) -->
<svg height="592pt" version="1.1" viewBox="0 0 276 592" width="276pt" xmlns="http://www.w3.org/2000/svg" xmlns:xlink="http://www.w3.org/1999/xlink">
 <defs>
  <style type="text/css">
*{stroke-linecap:butt;stroke-linejoin:round;stroke-miterlimit:100000;}
  </style>
 </defs>
 <g id="figure_1">
  <g id="patch_1">
   <path d="M 0 592.852812 
L 276.125 592.852812 
L 276.125 0 
L 0 0 
z
" style="fill:#ffffff;"/>
  </g>
  <g id="axes_1">
   <g id="patch_2">
    <path d="M 7.2 585.652812 
L 146.7 585.652812 
L 146.7 27.652812 
L 7.2 27.652812 
z
" style="fill:#ffffff;"/>
   </g>
   <g id="patch_3">
    <path clip-path="url(#pd929c8aded)" d="M 7.2 585.652812 
L 146.7 585.652812 
L 146.7 459.014515 
L 7.2 459.014515 
z
" style="fill:#0100d5;stroke:#000000;stroke-linejoin:miter;"/>
   </g>
   <g id="patch_4">
    <path clip-path="url(#pd929c8aded)" d="M 7.2 459.014515 
L 146.7 459.014515 
L 146.7 356.120898 
L 7.2 356.120898 
z
" style="fill:#7f7f7f;stroke:#000000;stroke-linejoin:miter;"/>
   </g>
   <g id="patch_5">
    <path clip-path="url(#pd929c8aded)" d="M 7.2 356.120898 
L 146.7 356.120898 
L 146.7 27.652812 
L 7.2 27.652812 
z
" style="fill:#a40000;stroke:#000000;stroke-linejoin:miter;"/>
   </g>
   <g id="patch_6">
    <path d="M 7.2 585.652812 
L 146.7 585.652812 
" style="fill:none;stroke:#000000;stroke-linecap:square;stroke-linejoin:miter;"/>
   </g>
   <g id="matplotlib.axis_1">
    <g id="xtick_1">
     <g id="text_1">
      <!-- AC-P12 -->
      <defs>
       <path d="M 19.1875 8.296875 
L 53.609375 8.296875 
L 53.609375 0 
L 7.328125 0 
L 7.328125 8.296875 
Q 12.9375 14.109375 22.625 23.890625 
Q 32.328125 33.6875 34.8125 36.53125 
Q 39.546875 41.84375 41.421875 45.53125 
Q 43.3125 49.21875 43.3125 52.78125 
Q 43.3125 58.59375 39.234375 62.25 
Q 35.15625 65.921875 28.609375 65.921875 
Q 23.96875 65.921875 18.8125 64.3125 
Q 13.671875 62.703125 7.8125 59.421875 
L 7.8125 69.390625 
Q 13.765625 71.78125 18.9375 73 
Q 24.125 74.21875 28.421875 74.21875 
Q 39.75 74.21875 46.484375 68.546875 
Q 53.21875 62.890625 53.21875 53.421875 
Q 53.21875 48.921875 51.53125 44.890625 
Q 49.859375 40.875 45.40625 35.40625 
Q 44.1875 33.984375 37.640625 27.21875 
Q 31.109375 20.453125 19.1875 8.296875 
" id="BitstreamVeraSans-Roman-32"/>
       <path d="M 12.40625 8.296875 
L 28.515625 8.296875 
L 28.515625 63.921875 
L 10.984375 60.40625 
L 10.984375 69.390625 
L 28.421875 72.90625 
L 38.28125 72.90625 
L 38.28125 8.296875 
L 54.390625 8.296875 
L 54.390625 0 
L 12.40625 0 
z
" id="BitstreamVeraSans-Roman-31"/>
       <path d="M 19.671875 64.796875 
L 19.671875 37.40625 
L 32.078125 37.40625 
Q 38.96875 37.40625 42.71875 40.96875 
Q 46.484375 44.53125 46.484375 51.125 
Q 46.484375 57.671875 42.71875 61.234375 
Q 38.96875 64.796875 32.078125 64.796875 
z
M 9.8125 72.90625 
L 32.078125 72.90625 
Q 44.34375 72.90625 50.609375 67.359375 
Q 56.890625 61.8125 56.890625 51.125 
Q 56.890625 40.328125 50.609375 34.8125 
Q 44.34375 29.296875 32.078125 29.296875 
L 19.671875 29.296875 
L 19.671875 0 
L 9.8125 0 
z
" id="BitstreamVeraSans-Roman-50"/>
       <path d="M 64.40625 67.28125 
L 64.40625 56.890625 
Q 59.421875 61.53125 53.78125 63.8125 
Q 48.140625 66.109375 41.796875 66.109375 
Q 29.296875 66.109375 22.65625 58.46875 
Q 16.015625 50.828125 16.015625 36.375 
Q 16.015625 21.96875 22.65625 14.328125 
Q 29.296875 6.6875 41.796875 6.6875 
Q 48.140625 6.6875 53.78125 8.984375 
Q 59.421875 11.28125 64.40625 15.921875 
L 64.40625 5.609375 
Q 59.234375 2.09375 53.4375 0.328125 
Q 47.65625 -1.421875 41.21875 -1.421875 
Q 24.65625 -1.421875 15.125 8.703125 
Q 5.609375 18.84375 5.609375 36.375 
Q 5.609375 53.953125 15.125 64.078125 
Q 24.65625 74.21875 41.21875 74.21875 
Q 47.75 74.21875 53.53125 72.484375 
Q 59.328125 70.75 64.40625 67.28125 
" id="BitstreamVeraSans-Roman-43"/>
       <path d="M 4.890625 31.390625 
L 31.203125 31.390625 
L 31.203125 23.390625 
L 4.890625 23.390625 
z
" id="BitstreamVeraSans-Roman-2d"/>
       <path d="M 34.1875 63.1875 
L 20.796875 26.90625 
L 47.609375 26.90625 
z
M 28.609375 72.90625 
L 39.796875 72.90625 
L 67.578125 0 
L 57.328125 0 
L 50.6875 18.703125 
L 17.828125 18.703125 
L 11.1875 0 
L 0.78125 0 
z
" id="BitstreamVeraSans-Roman-41"/>
      </defs>
      <g transform="translate(46.19328125 20.11734375)scale(0.17 -0.17)">
       <use xlink:href="#BitstreamVeraSans-Roman-41"/>
       <use x="68.392578125" xlink:href="#BitstreamVeraSans-Roman-43"/>
       <use x="138.216796875" xlink:href="#BitstreamVeraSans-Roman-2d"/>
       <use x="174.30078125" xlink:href="#BitstreamVeraSans-Roman-50"/>
       <use x="234.603515625" xlink:href="#BitstreamVeraSans-Roman-31"/>
       <use x="298.2265625" xlink:href="#BitstreamVeraSans-Roman-32"/>
      </g>
     </g>
    </g>
   </g>
   <g id="matplotlib.axis_2">
    <g id="ytick_1">
     <g id="text_2">
      <!-- Primary only -->
      <defs>
       <path id="BitstreamVeraSans-Roman-20"/>
       <path d="M 52 44.1875 
Q 55.375 50.25 60.0625 53.125 
Q 64.75 56 71.09375 56 
Q 79.640625 56 84.28125 50.015625 
Q 88.921875 44.046875 88.921875 33.015625 
L 88.921875 0 
L 79.890625 0 
L 79.890625 32.71875 
Q 79.890625 40.578125 77.09375 44.375 
Q 74.3125 48.1875 68.609375 48.1875 
Q 61.625 48.1875 57.5625 43.546875 
Q 53.515625 38.921875 53.515625 30.90625 
L 53.515625 0 
L 44.484375 0 
L 44.484375 32.71875 
Q 44.484375 40.625 41.703125 44.40625 
Q 38.921875 48.1875 33.109375 48.1875 
Q 26.21875 48.1875 22.15625 43.53125 
Q 18.109375 38.875 18.109375 30.90625 
L 18.109375 0 
L 9.078125 0 
L 9.078125 54.6875 
L 18.109375 54.6875 
L 18.109375 46.1875 
Q 21.1875 51.21875 25.484375 53.609375 
Q 29.78125 56 35.6875 56 
Q 41.65625 56 45.828125 52.96875 
Q 50 49.953125 52 44.1875 
" id="BitstreamVeraSans-Roman-6d"/>
       <path d="M 54.890625 33.015625 
L 54.890625 0 
L 45.90625 0 
L 45.90625 32.71875 
Q 45.90625 40.484375 42.875 44.328125 
Q 39.84375 48.1875 33.796875 48.1875 
Q 26.515625 48.1875 22.3125 43.546875 
Q 18.109375 38.921875 18.109375 30.90625 
L 18.109375 0 
L 9.078125 0 
L 9.078125 54.6875 
L 18.109375 54.6875 
L 18.109375 46.1875 
Q 21.34375 51.125 25.703125 53.5625 
Q 30.078125 56 35.796875 56 
Q 45.21875 56 50.046875 50.171875 
Q 54.890625 44.34375 54.890625 33.015625 
" id="BitstreamVeraSans-Roman-6e"/>
       <path d="M 41.109375 46.296875 
Q 39.59375 47.171875 37.8125 47.578125 
Q 36.03125 48 33.890625 48 
Q 26.265625 48 22.1875 43.046875 
Q 18.109375 38.09375 18.109375 28.8125 
L 18.109375 0 
L 9.078125 0 
L 9.078125 54.6875 
L 18.109375 54.6875 
L 18.109375 46.1875 
Q 20.953125 51.171875 25.484375 53.578125 
Q 30.03125 56 36.53125 56 
Q 37.453125 56 38.578125 55.875 
Q 39.703125 55.765625 41.0625 55.515625 
z
" id="BitstreamVeraSans-Roman-72"/>
       <path d="M 30.609375 48.390625 
Q 23.390625 48.390625 19.1875 42.75 
Q 14.984375 37.109375 14.984375 27.296875 
Q 14.984375 17.484375 19.15625 11.84375 
Q 23.34375 6.203125 30.609375 6.203125 
Q 37.796875 6.203125 41.984375 11.859375 
Q 46.1875 17.53125 46.1875 27.296875 
Q 46.1875 37.015625 41.984375 42.703125 
Q 37.796875 48.390625 30.609375 48.390625 
M 30.609375 56 
Q 42.328125 56 49.015625 48.375 
Q 55.71875 40.765625 55.71875 27.296875 
Q 55.71875 13.875 49.015625 6.21875 
Q 42.328125 -1.421875 30.609375 -1.421875 
Q 18.84375 -1.421875 12.171875 6.21875 
Q 5.515625 13.875 5.515625 27.296875 
Q 5.515625 40.765625 12.171875 48.375 
Q 18.84375 56 30.609375 56 
" id="BitstreamVeraSans-Roman-6f"/>
       <path d="M 9.421875 75.984375 
L 18.40625 75.984375 
L 18.40625 0 
L 9.421875 0 
z
" id="BitstreamVeraSans-Roman-6c"/>
       <path d="M 9.421875 54.6875 
L 18.40625 54.6875 
L 18.40625 0 
L 9.421875 0 
z
M 9.421875 75.984375 
L 18.40625 75.984375 
L 18.40625 64.59375 
L 9.421875 64.59375 
z
" id="BitstreamVeraSans-Roman-69"/>
       <path d="M 32.171875 -5.078125 
Q 28.375 -14.84375 24.75 -17.8125 
Q 21.140625 -20.796875 15.09375 -20.796875 
L 7.90625 -20.796875 
L 7.90625 -13.28125 
L 13.1875 -13.28125 
Q 16.890625 -13.28125 18.9375 -11.515625 
Q 21 -9.765625 23.484375 -3.21875 
L 25.09375 0.875 
L 2.984375 54.6875 
L 12.5 54.6875 
L 29.59375 11.921875 
L 46.6875 54.6875 
L 56.203125 54.6875 
z
" id="BitstreamVeraSans-Roman-79"/>
       <path d="M 34.28125 27.484375 
Q 23.390625 27.484375 19.1875 25 
Q 14.984375 22.515625 14.984375 16.5 
Q 14.984375 11.71875 18.140625 8.90625 
Q 21.296875 6.109375 26.703125 6.109375 
Q 34.1875 6.109375 38.703125 11.40625 
Q 43.21875 16.703125 43.21875 25.484375 
L 43.21875 27.484375 
z
M 52.203125 31.203125 
L 52.203125 0 
L 43.21875 0 
L 43.21875 8.296875 
Q 40.140625 3.328125 35.546875 0.953125 
Q 30.953125 -1.421875 24.3125 -1.421875 
Q 15.921875 -1.421875 10.953125 3.296875 
Q 6 8.015625 6 15.921875 
Q 6 25.140625 12.171875 29.828125 
Q 18.359375 34.515625 30.609375 34.515625 
L 43.21875 34.515625 
L 43.21875 35.40625 
Q 43.21875 41.609375 39.140625 45 
Q 35.0625 48.390625 27.6875 48.390625 
Q 23 48.390625 18.546875 47.265625 
Q 14.109375 46.140625 10.015625 43.890625 
L 10.015625 52.203125 
Q 14.9375 54.109375 19.578125 55.046875 
Q 24.21875 56 28.609375 56 
Q 40.484375 56 46.34375 49.84375 
Q 52.203125 43.703125 52.203125 31.203125 
" id="BitstreamVeraSans-Roman-61"/>
      </defs>
      <g transform="translate(150.7 526.748663564)scale(0.16 -0.16)">
       <use xlink:href="#BitstreamVeraSans-Roman-50"/>
       <use x="60.287109375" xlink:href="#BitstreamVeraSans-Roman-72"/>
       <use x="101.400390625" xlink:href="#BitstreamVeraSans-Roman-69"/>
       <use x="129.18359375" xlink:href="#BitstreamVeraSans-Roman-6d"/>
       <use x="226.595703125" xlink:href="#BitstreamVeraSans-Roman-61"/>
       <use x="287.875" xlink:href="#BitstreamVeraSans-Roman-72"/>
       <use x="328.98828125" xlink:href="#BitstreamVeraSans-Roman-79"/>
       <use x="388.16796875" xlink:href="#BitstreamVeraSans-Roman-20"/>
       <use x="419.955078125" xlink:href="#BitstreamVeraSans-Roman-6f"/>
       <use x="481.13671875" xlink:href="#BitstreamVeraSans-Roman-6e"/>
       <use x="544.515625" xlink:href="#BitstreamVeraSans-Roman-6c"/>
       <use x="572.298828125" xlink:href="#BitstreamVeraSans-Roman-79"/>
      </g>
     </g>
    </g>
    <g id="ytick_2">
     <g id="text_3">
      <!-- Shared -->
      <defs>
       <path d="M 56.203125 29.59375 
L 56.203125 25.203125 
L 14.890625 25.203125 
Q 15.484375 15.921875 20.484375 11.0625 
Q 25.484375 6.203125 34.421875 6.203125 
Q 39.59375 6.203125 44.453125 7.46875 
Q 49.3125 8.734375 54.109375 11.28125 
L 54.109375 2.78125 
Q 49.265625 0.734375 44.1875 -0.34375 
Q 39.109375 -1.421875 33.890625 -1.421875 
Q 20.796875 -1.421875 13.15625 6.1875 
Q 5.515625 13.8125 5.515625 26.8125 
Q 5.515625 40.234375 12.765625 48.109375 
Q 20.015625 56 32.328125 56 
Q 43.359375 56 49.78125 48.890625 
Q 56.203125 41.796875 56.203125 29.59375 
M 47.21875 32.234375 
Q 47.125 39.59375 43.09375 43.984375 
Q 39.0625 48.390625 32.421875 48.390625 
Q 24.90625 48.390625 20.390625 44.140625 
Q 15.875 39.890625 15.1875 32.171875 
z
" id="BitstreamVeraSans-Roman-65"/>
       <path d="M 45.40625 46.390625 
L 45.40625 75.984375 
L 54.390625 75.984375 
L 54.390625 0 
L 45.40625 0 
L 45.40625 8.203125 
Q 42.578125 3.328125 38.25 0.953125 
Q 33.9375 -1.421875 27.875 -1.421875 
Q 17.96875 -1.421875 11.734375 6.484375 
Q 5.515625 14.40625 5.515625 27.296875 
Q 5.515625 40.1875 11.734375 48.09375 
Q 17.96875 56 27.875 56 
Q 33.9375 56 38.25 53.625 
Q 42.578125 51.265625 45.40625 46.390625 
M 14.796875 27.296875 
Q 14.796875 17.390625 18.875 11.75 
Q 22.953125 6.109375 30.078125 6.109375 
Q 37.203125 6.109375 41.296875 11.75 
Q 45.40625 17.390625 45.40625 27.296875 
Q 45.40625 37.203125 41.296875 42.84375 
Q 37.203125 48.484375 30.078125 48.484375 
Q 22.953125 48.484375 18.875 42.84375 
Q 14.796875 37.203125 14.796875 27.296875 
" id="BitstreamVeraSans-Roman-64"/>
       <path d="M 53.515625 70.515625 
L 53.515625 60.890625 
Q 47.90625 63.578125 42.921875 64.890625 
Q 37.9375 66.21875 33.296875 66.21875 
Q 25.25 66.21875 20.875 63.09375 
Q 16.5 59.96875 16.5 54.203125 
Q 16.5 49.359375 19.40625 46.890625 
Q 22.3125 44.4375 30.421875 42.921875 
L 36.375 41.703125 
Q 47.40625 39.59375 52.65625 34.296875 
Q 57.90625 29 57.90625 20.125 
Q 57.90625 9.515625 50.796875 4.046875 
Q 43.703125 -1.421875 29.984375 -1.421875 
Q 24.8125 -1.421875 18.96875 -0.25 
Q 13.140625 0.921875 6.890625 3.21875 
L 6.890625 13.375 
Q 12.890625 10.015625 18.65625 8.296875 
Q 24.421875 6.59375 29.984375 6.59375 
Q 38.421875 6.59375 43.015625 9.90625 
Q 47.609375 13.234375 47.609375 19.390625 
Q 47.609375 24.75 44.3125 27.78125 
Q 41.015625 30.8125 33.5 32.328125 
L 27.484375 33.5 
Q 16.453125 35.6875 11.515625 40.375 
Q 6.59375 45.0625 6.59375 53.421875 
Q 6.59375 63.09375 13.40625 68.65625 
Q 20.21875 74.21875 32.171875 74.21875 
Q 37.3125 74.21875 42.625 73.28125 
Q 47.953125 72.359375 53.515625 70.515625 
" id="BitstreamVeraSans-Roman-53"/>
       <path d="M 54.890625 33.015625 
L 54.890625 0 
L 45.90625 0 
L 45.90625 32.71875 
Q 45.90625 40.484375 42.875 44.328125 
Q 39.84375 48.1875 33.796875 48.1875 
Q 26.515625 48.1875 22.3125 43.546875 
Q 18.109375 38.921875 18.109375 30.90625 
L 18.109375 0 
L 9.078125 0 
L 9.078125 75.984375 
L 18.109375 75.984375 
L 18.109375 46.1875 
Q 21.34375 51.125 25.703125 53.5625 
Q 30.078125 56 35.796875 56 
Q 45.21875 56 50.046875 50.171875 
Q 54.890625 44.34375 54.890625 33.015625 
" id="BitstreamVeraSans-Roman-68"/>
      </defs>
      <g transform="translate(150.7 411.982706117)scale(0.16 -0.16)">
       <use xlink:href="#BitstreamVeraSans-Roman-53"/>
       <use x="63.4765625" xlink:href="#BitstreamVeraSans-Roman-68"/>
       <use x="126.85546875" xlink:href="#BitstreamVeraSans-Roman-61"/>
       <use x="188.134765625" xlink:href="#BitstreamVeraSans-Roman-72"/>
       <use x="229.216796875" xlink:href="#BitstreamVeraSans-Roman-65"/>
       <use x="290.740234375" xlink:href="#BitstreamVeraSans-Roman-64"/>
      </g>
     </g>
    </g>
    <g id="ytick_3">
     <g id="text_4">
      <!-- Recurrent only -->
      <defs>
       <path d="M 44.390625 34.1875 
Q 47.5625 33.109375 50.5625 29.59375 
Q 53.5625 26.078125 56.59375 19.921875 
L 66.609375 0 
L 56 0 
L 46.6875 18.703125 
Q 43.0625 26.03125 39.671875 28.421875 
Q 36.28125 30.8125 30.421875 30.8125 
L 19.671875 30.8125 
L 19.671875 0 
L 9.8125 0 
L 9.8125 72.90625 
L 32.078125 72.90625 
Q 44.578125 72.90625 50.734375 67.671875 
Q 56.890625 62.453125 56.890625 51.90625 
Q 56.890625 45.015625 53.6875 40.46875 
Q 50.484375 35.9375 44.390625 34.1875 
M 19.671875 64.796875 
L 19.671875 38.921875 
L 32.078125 38.921875 
Q 39.203125 38.921875 42.84375 42.21875 
Q 46.484375 45.515625 46.484375 51.90625 
Q 46.484375 58.296875 42.84375 61.546875 
Q 39.203125 64.796875 32.078125 64.796875 
z
" id="BitstreamVeraSans-Roman-52"/>
       <path d="M 8.5 21.578125 
L 8.5 54.6875 
L 17.484375 54.6875 
L 17.484375 21.921875 
Q 17.484375 14.15625 20.5 10.265625 
Q 23.53125 6.390625 29.59375 6.390625 
Q 36.859375 6.390625 41.078125 11.03125 
Q 45.3125 15.671875 45.3125 23.6875 
L 45.3125 54.6875 
L 54.296875 54.6875 
L 54.296875 0 
L 45.3125 0 
L 45.3125 8.40625 
Q 42.046875 3.421875 37.71875 1 
Q 33.40625 -1.421875 27.6875 -1.421875 
Q 18.265625 -1.421875 13.375 4.4375 
Q 8.5 10.296875 8.5 21.578125 
" id="BitstreamVeraSans-Roman-75"/>
       <path d="M 18.3125 70.21875 
L 18.3125 54.6875 
L 36.8125 54.6875 
L 36.8125 47.703125 
L 18.3125 47.703125 
L 18.3125 18.015625 
Q 18.3125 11.328125 20.140625 9.421875 
Q 21.96875 7.515625 27.59375 7.515625 
L 36.8125 7.515625 
L 36.8125 0 
L 27.59375 0 
Q 17.1875 0 13.234375 3.875 
Q 9.28125 7.765625 9.28125 18.015625 
L 9.28125 47.703125 
L 2.6875 47.703125 
L 2.6875 54.6875 
L 9.28125 54.6875 
L 9.28125 70.21875 
z
" id="BitstreamVeraSans-Roman-74"/>
       <path d="M 48.78125 52.59375 
L 48.78125 44.1875 
Q 44.96875 46.296875 41.140625 47.34375 
Q 37.3125 48.390625 33.40625 48.390625 
Q 24.65625 48.390625 19.8125 42.84375 
Q 14.984375 37.3125 14.984375 27.296875 
Q 14.984375 17.28125 19.8125 11.734375 
Q 24.65625 6.203125 33.40625 6.203125 
Q 37.3125 6.203125 41.140625 7.25 
Q 44.96875 8.296875 48.78125 10.40625 
L 48.78125 2.09375 
Q 45.015625 0.34375 40.984375 -0.53125 
Q 36.96875 -1.421875 32.421875 -1.421875 
Q 20.0625 -1.421875 12.78125 6.34375 
Q 5.515625 14.109375 5.515625 27.296875 
Q 5.515625 40.671875 12.859375 48.328125 
Q 20.21875 56 33.015625 56 
Q 37.15625 56 41.109375 55.140625 
Q 45.0625 54.296875 48.78125 52.59375 
" id="BitstreamVeraSans-Roman-63"/>
      </defs>
      <g transform="translate(150.7 196.301855053)scale(0.16 -0.16)">
       <use xlink:href="#BitstreamVeraSans-Roman-52"/>
       <use x="69.419921875" xlink:href="#BitstreamVeraSans-Roman-65"/>
       <use x="130.943359375" xlink:href="#BitstreamVeraSans-Roman-63"/>
       <use x="185.923828125" xlink:href="#BitstreamVeraSans-Roman-75"/>
       <use x="249.302734375" xlink:href="#BitstreamVeraSans-Roman-72"/>
       <use x="290.400390625" xlink:href="#BitstreamVeraSans-Roman-72"/>
       <use x="331.482421875" xlink:href="#BitstreamVeraSans-Roman-65"/>
       <use x="393.005859375" xlink:href="#BitstreamVeraSans-Roman-6e"/>
       <use x="456.384765625" xlink:href="#BitstreamVeraSans-Roman-74"/>
       <use x="495.59375" xlink:href="#BitstreamVeraSans-Roman-20"/>
       <use x="527.380859375" xlink:href="#BitstreamVeraSans-Roman-6f"/>
       <use x="588.5625" xlink:href="#BitstreamVeraSans-Roman-6e"/>
       <use x="651.94140625" xlink:href="#BitstreamVeraSans-Roman-6c"/>
       <use x="679.724609375" xlink:href="#BitstreamVeraSans-Roman-79"/>
      </g>
     </g>
    </g>
   </g>
   <g id="text_5">
    <path d="M 43.041094 517.845891 
Q 44.368594 518.189016 45.057656 519.038391 
Q 45.749531 519.884953 45.749531 521.195578 
Q 45.749531 523.147453 44.253281 524.162766 
Q 42.759844 525.178078 39.896719 525.178078 
Q 38.884219 525.178078 37.868906 525.014953 
Q 36.853594 524.851828 35.860781 524.525578 
L 35.860781 521.915578 
Q 36.811406 522.390891 37.745156 522.632766 
Q 38.681719 522.874641 39.587344 522.874641 
Q 40.931719 522.874641 41.648906 522.410578 
Q 42.366094 521.943703 42.366094 521.071828 
Q 42.366094 520.174641 41.632031 519.713391 
Q 40.897969 519.252141 39.463594 519.252141 
L 38.110781 519.252141 
L 38.110781 517.072453 
L 39.533906 517.072453 
Q 40.810781 517.072453 41.432344 516.673078 
Q 42.056719 516.273703 42.056719 515.455266 
Q 42.056719 514.701516 41.449219 514.288078 
Q 40.844531 513.874641 39.736406 513.874641 
Q 38.920781 513.874641 38.085469 514.060266 
Q 37.250156 514.243078 36.423281 514.603078 
L 36.423281 512.125266 
Q 37.424531 511.844016 38.408906 511.703391 
Q 39.393281 511.562766 40.343906 511.562766 
Q 42.900469 511.562766 44.168906 512.403703 
Q 45.440156 513.241828 45.440156 514.929328 
Q 45.440156 516.079641 44.832656 516.813703 
Q 44.227969 517.547766 43.041094 517.845891 
M 52.367695 522.435891 
L 58.141758 522.435891 
L 58.141758 524.922141 
L 48.60457 524.922141 
L 48.60457 522.435891 
L 53.394258 518.205891 
Q 54.03832 517.626516 54.344883 517.072453 
Q 54.651445 516.518391 54.651445 515.922141 
Q 54.651445 514.999641 54.032695 514.437141 
Q 53.413945 513.874641 52.38457 513.874641 
Q 51.594258 513.874641 50.65207 514.212141 
Q 49.712695 514.549641 48.641133 515.219016 
L 48.641133 512.336203 
Q 49.783008 511.959328 50.89957 511.762453 
Q 52.016133 511.562766 53.087695 511.562766 
Q 55.44457 511.562766 56.74957 512.600578 
Q 58.05457 513.635578 58.05457 515.491828 
Q 58.05457 516.563391 57.500508 517.491516 
Q 56.946445 518.416828 55.171758 519.974953 
z
M 66.492422 527.295891 
L 63.879609 527.295891 
Q 62.535234 525.124641 61.893984 523.169953 
Q 61.252734 521.212453 61.252734 519.288703 
Q 61.252734 517.362141 61.896797 515.390578 
Q 62.543672 513.416203 63.879609 511.264641 
L 66.492422 511.264641 
Q 65.367422 513.345891 64.804922 515.337141 
Q 64.242422 517.328391 64.242422 519.271828 
Q 64.242422 521.212453 64.799297 523.209328 
Q 65.356172 525.203391 66.492422 527.295891 
M 73.118672 522.435891 
L 78.892734 522.435891 
L 78.892734 524.922141 
L 69.355547 524.922141 
L 69.355547 522.435891 
L 74.145234 518.205891 
Q 74.789297 517.626516 75.095859 517.072453 
Q 75.402422 516.518391 75.402422 515.922141 
Q 75.402422 514.999641 74.783672 514.437141 
Q 74.164922 513.874641 73.135547 513.874641 
Q 72.345234 513.874641 71.403047 514.212141 
Q 70.463672 514.549641 69.392109 515.219016 
L 69.392109 512.336203 
Q 70.533984 511.959328 71.650547 511.762453 
Q 72.767109 511.562766 73.838672 511.562766 
Q 76.195547 511.562766 77.500547 512.600578 
Q 78.805547 513.635578 78.805547 515.491828 
Q 78.805547 516.563391 78.251484 517.491516 
Q 77.697422 518.416828 75.922734 519.974953 
z
M 85.643086 522.435891 
L 91.417148 522.435891 
L 91.417148 524.922141 
L 81.879961 524.922141 
L 81.879961 522.435891 
L 86.669648 518.205891 
Q 87.313711 517.626516 87.620273 517.072453 
Q 87.926836 516.518391 87.926836 515.922141 
Q 87.926836 514.999641 87.308086 514.437141 
Q 86.689336 513.874641 85.659961 513.874641 
Q 84.869648 513.874641 83.927461 514.212141 
Q 82.988086 514.549641 81.916523 515.219016 
L 81.916523 512.336203 
Q 83.058398 511.959328 84.174961 511.762453 
Q 85.291523 511.562766 86.363086 511.562766 
Q 88.719961 511.562766 90.024961 512.600578 
Q 91.329961 513.635578 91.329961 515.491828 
Q 91.329961 516.563391 90.775898 517.491516 
Q 90.221836 518.416828 88.447148 519.974953 
z
M 106.928438 519.508078 
Q 106.306875 519.508078 105.96375 520.048078 
Q 105.620625 520.588078 105.620625 521.592141 
Q 105.620625 522.601828 105.958125 523.141828 
Q 106.295625 523.681828 106.928438 523.681828 
Q 107.56125 523.681828 107.895938 523.141828 
Q 108.230625 522.601828 108.230625 521.592141 
Q 108.230625 520.588078 107.890312 520.048078 
Q 107.552813 519.508078 106.928438 519.508078 
M 106.928438 518.031516 
Q 108.565313 518.031516 109.504688 518.982141 
Q 110.444063 519.929953 110.444063 521.592141 
Q 110.444063 523.251516 109.504688 524.216203 
Q 108.565313 525.178078 106.928438 525.178078 
Q 105.294375 525.178078 104.349375 524.216203 
Q 103.404375 523.251516 103.404375 521.592141 
Q 103.404375 519.938391 104.349375 518.984953 
Q 105.294375 518.031516 106.928438 518.031516 
M 98.870625 525.178078 
L 96.927188 525.178078 
L 105.128438 511.562766 
L 107.080313 511.562766 
z
M 97.067813 511.562766 
Q 98.701875 511.562766 99.638437 512.516203 
Q 100.575 513.469641 100.575 515.131828 
Q 100.575 516.791203 99.638437 517.750266 
Q 98.701875 518.709328 97.067813 518.709328 
Q 95.43375 518.709328 94.497187 517.750266 
Q 93.560625 516.791203 93.560625 515.131828 
Q 93.560625 513.469641 94.497187 512.516203 
Q 95.43375 511.562766 97.067813 511.562766 
M 97.067813 513.039328 
Q 96.435 513.039328 96.091875 513.584953 
Q 95.74875 514.127766 95.74875 515.131828 
Q 95.74875 516.141516 96.091875 516.692766 
Q 96.435 517.241203 97.067813 517.241203 
Q 97.700625 517.241203 98.038125 516.692766 
Q 98.378438 516.141516 98.378438 515.131828 
Q 98.378438 514.127766 98.035313 513.584953 
Q 97.692188 513.039328 97.067813 513.039328 
M 112.459219 527.295891 
Q 113.584219 525.203391 114.146719 523.209328 
Q 114.709219 521.212453 114.709219 519.271828 
Q 114.709219 517.328391 114.146719 515.337141 
Q 113.584219 513.345891 112.459219 511.264641 
L 115.069219 511.264641 
Q 116.405156 513.416203 117.049219 515.390578 
Q 117.696094 517.362141 117.696094 519.288703 
Q 117.696094 521.212453 117.054844 523.169953 
Q 116.413594 525.124641 115.069219 527.295891 
z
" style="fill:#ffffff;stroke:#000000;stroke-width:5.0;"/>
    <path d="M 43.041094 517.845891 
Q 44.368594 518.189016 45.057656 519.038391 
Q 45.749531 519.884953 45.749531 521.195578 
Q 45.749531 523.147453 44.253281 524.162766 
Q 42.759844 525.178078 39.896719 525.178078 
Q 38.884219 525.178078 37.868906 525.014953 
Q 36.853594 524.851828 35.860781 524.525578 
L 35.860781 521.915578 
Q 36.811406 522.390891 37.745156 522.632766 
Q 38.681719 522.874641 39.587344 522.874641 
Q 40.931719 522.874641 41.648906 522.410578 
Q 42.366094 521.943703 42.366094 521.071828 
Q 42.366094 520.174641 41.632031 519.713391 
Q 40.897969 519.252141 39.463594 519.252141 
L 38.110781 519.252141 
L 38.110781 517.072453 
L 39.533906 517.072453 
Q 40.810781 517.072453 41.432344 516.673078 
Q 42.056719 516.273703 42.056719 515.455266 
Q 42.056719 514.701516 41.449219 514.288078 
Q 40.844531 513.874641 39.736406 513.874641 
Q 38.920781 513.874641 38.085469 514.060266 
Q 37.250156 514.243078 36.423281 514.603078 
L 36.423281 512.125266 
Q 37.424531 511.844016 38.408906 511.703391 
Q 39.393281 511.562766 40.343906 511.562766 
Q 42.900469 511.562766 44.168906 512.403703 
Q 45.440156 513.241828 45.440156 514.929328 
Q 45.440156 516.079641 44.832656 516.813703 
Q 44.227969 517.547766 43.041094 517.845891 
M 52.367695 522.435891 
L 58.141758 522.435891 
L 58.141758 524.922141 
L 48.60457 524.922141 
L 48.60457 522.435891 
L 53.394258 518.205891 
Q 54.03832 517.626516 54.344883 517.072453 
Q 54.651445 516.518391 54.651445 515.922141 
Q 54.651445 514.999641 54.032695 514.437141 
Q 53.413945 513.874641 52.38457 513.874641 
Q 51.594258 513.874641 50.65207 514.212141 
Q 49.712695 514.549641 48.641133 515.219016 
L 48.641133 512.336203 
Q 49.783008 511.959328 50.89957 511.762453 
Q 52.016133 511.562766 53.087695 511.562766 
Q 55.44457 511.562766 56.74957 512.600578 
Q 58.05457 513.635578 58.05457 515.491828 
Q 58.05457 516.563391 57.500508 517.491516 
Q 56.946445 518.416828 55.171758 519.974953 
z
M 66.492422 527.295891 
L 63.879609 527.295891 
Q 62.535234 525.124641 61.893984 523.169953 
Q 61.252734 521.212453 61.252734 519.288703 
Q 61.252734 517.362141 61.896797 515.390578 
Q 62.543672 513.416203 63.879609 511.264641 
L 66.492422 511.264641 
Q 65.367422 513.345891 64.804922 515.337141 
Q 64.242422 517.328391 64.242422 519.271828 
Q 64.242422 521.212453 64.799297 523.209328 
Q 65.356172 525.203391 66.492422 527.295891 
M 73.118672 522.435891 
L 78.892734 522.435891 
L 78.892734 524.922141 
L 69.355547 524.922141 
L 69.355547 522.435891 
L 74.145234 518.205891 
Q 74.789297 517.626516 75.095859 517.072453 
Q 75.402422 516.518391 75.402422 515.922141 
Q 75.402422 514.999641 74.783672 514.437141 
Q 74.164922 513.874641 73.135547 513.874641 
Q 72.345234 513.874641 71.403047 514.212141 
Q 70.463672 514.549641 69.392109 515.219016 
L 69.392109 512.336203 
Q 70.533984 511.959328 71.650547 511.762453 
Q 72.767109 511.562766 73.838672 511.562766 
Q 76.195547 511.562766 77.500547 512.600578 
Q 78.805547 513.635578 78.805547 515.491828 
Q 78.805547 516.563391 78.251484 517.491516 
Q 77.697422 518.416828 75.922734 519.974953 
z
M 85.643086 522.435891 
L 91.417148 522.435891 
L 91.417148 524.922141 
L 81.879961 524.922141 
L 81.879961 522.435891 
L 86.669648 518.205891 
Q 87.313711 517.626516 87.620273 517.072453 
Q 87.926836 516.518391 87.926836 515.922141 
Q 87.926836 514.999641 87.308086 514.437141 
Q 86.689336 513.874641 85.659961 513.874641 
Q 84.869648 513.874641 83.927461 514.212141 
Q 82.988086 514.549641 81.916523 515.219016 
L 81.916523 512.336203 
Q 83.058398 511.959328 84.174961 511.762453 
Q 85.291523 511.562766 86.363086 511.562766 
Q 88.719961 511.562766 90.024961 512.600578 
Q 91.329961 513.635578 91.329961 515.491828 
Q 91.329961 516.563391 90.775898 517.491516 
Q 90.221836 518.416828 88.447148 519.974953 
z
M 106.928438 519.508078 
Q 106.306875 519.508078 105.96375 520.048078 
Q 105.620625 520.588078 105.620625 521.592141 
Q 105.620625 522.601828 105.958125 523.141828 
Q 106.295625 523.681828 106.928438 523.681828 
Q 107.56125 523.681828 107.895938 523.141828 
Q 108.230625 522.601828 108.230625 521.592141 
Q 108.230625 520.588078 107.890312 520.048078 
Q 107.552813 519.508078 106.928438 519.508078 
M 106.928438 518.031516 
Q 108.565313 518.031516 109.504688 518.982141 
Q 110.444063 519.929953 110.444063 521.592141 
Q 110.444063 523.251516 109.504688 524.216203 
Q 108.565313 525.178078 106.928438 525.178078 
Q 105.294375 525.178078 104.349375 524.216203 
Q 103.404375 523.251516 103.404375 521.592141 
Q 103.404375 519.938391 104.349375 518.984953 
Q 105.294375 518.031516 106.928438 518.031516 
M 98.870625 525.178078 
L 96.927188 525.178078 
L 105.128438 511.562766 
L 107.080313 511.562766 
z
M 97.067813 511.562766 
Q 98.701875 511.562766 99.638437 512.516203 
Q 100.575 513.469641 100.575 515.131828 
Q 100.575 516.791203 99.638437 517.750266 
Q 98.701875 518.709328 97.067813 518.709328 
Q 95.43375 518.709328 94.497187 517.750266 
Q 93.560625 516.791203 93.560625 515.131828 
Q 93.560625 513.469641 94.497187 512.516203 
Q 95.43375 511.562766 97.067813 511.562766 
M 97.067813 513.039328 
Q 96.435 513.039328 96.091875 513.584953 
Q 95.74875 514.127766 95.74875 515.131828 
Q 95.74875 516.141516 96.091875 516.692766 
Q 96.435 517.241203 97.067813 517.241203 
Q 97.700625 517.241203 98.038125 516.692766 
Q 98.378438 516.141516 98.378438 515.131828 
Q 98.378438 514.127766 98.035313 513.584953 
Q 97.692188 513.039328 97.067813 513.039328 
M 112.459219 527.295891 
Q 113.584219 525.203391 114.146719 523.209328 
Q 114.709219 521.212453 114.709219 519.271828 
Q 114.709219 517.328391 114.146719 515.337141 
Q 113.584219 513.345891 112.459219 511.264641 
L 115.069219 511.264641 
Q 116.405156 513.416203 117.049219 515.390578 
Q 117.696094 517.362141 117.696094 519.288703 
Q 117.696094 521.212453 117.054844 523.169953 
Q 116.413594 525.124641 115.069219 527.295891 
z
" style="fill:#ffffff;"/>
   </g>
   <g id="text_6">
    <path d="M 39.843281 406.482699 
L 45.617344 406.482699 
L 45.617344 408.968949 
L 36.080156 408.968949 
L 36.080156 406.482699 
L 40.869844 402.252699 
Q 41.513906 401.673324 41.820469 401.119262 
Q 42.127031 400.565199 42.127031 399.968949 
Q 42.127031 399.046449 41.508281 398.483949 
Q 40.889531 397.921449 39.860156 397.921449 
Q 39.069844 397.921449 38.127656 398.258949 
Q 37.188281 398.596449 36.116719 399.265824 
L 36.116719 396.383012 
Q 37.258594 396.006137 38.375156 395.809262 
Q 39.491719 395.609574 40.563281 395.609574 
Q 42.920156 395.609574 44.225156 396.647387 
Q 45.530156 397.682387 45.530156 399.538637 
Q 45.530156 400.610199 44.976094 401.538324 
Q 44.422031 402.463637 42.647344 404.021762 
z
M 53.695195 402.491762 
Q 52.806445 402.491762 52.36207 403.068324 
Q 51.917695 403.642074 51.917695 404.795199 
Q 51.917695 405.945512 52.36207 406.522074 
Q 52.806445 407.095824 53.695195 407.095824 
Q 54.58957 407.095824 55.033945 406.522074 
Q 55.47832 405.945512 55.47832 404.795199 
Q 55.47832 403.642074 55.033945 403.068324 
Q 54.58957 402.491762 53.695195 402.491762 
M 57.877383 396.188949 
L 57.877383 398.616137 
Q 57.04207 398.219574 56.302383 398.031137 
Q 55.565508 397.842699 54.862383 397.842699 
Q 53.35207 397.842699 52.50832 398.683637 
Q 51.66457 399.521762 51.523945 401.172699 
Q 52.10332 400.742387 52.77832 400.528637 
Q 53.456133 400.312074 54.257695 400.312074 
Q 56.268633 400.312074 57.50332 401.490512 
Q 58.738008 402.666137 58.738008 404.573012 
Q 58.738008 406.682387 57.35707 407.953637 
Q 55.978945 409.224887 53.658633 409.224887 
Q 51.10207 409.224887 49.698633 407.498012 
Q 48.298008 405.768324 48.298008 402.595824 
Q 48.298008 399.344574 49.937695 397.485512 
Q 51.577383 395.626449 54.43207 395.626449 
Q 55.337695 395.626449 56.189883 395.767074 
Q 57.04207 395.907699 57.877383 396.188949 
M 66.492422 411.342699 
L 63.879609 411.342699 
Q 62.535234 409.171449 61.893984 407.216762 
Q 61.252734 405.259262 61.252734 403.335512 
Q 61.252734 401.408949 61.896797 399.437387 
Q 62.543672 397.463012 63.879609 395.311449 
L 66.492422 395.311449 
Q 65.367422 397.392699 64.804922 399.383949 
Q 64.242422 401.375199 64.242422 403.318637 
Q 64.242422 405.259262 64.799297 407.256137 
Q 65.356172 409.250199 66.492422 411.342699 
M 70.041797 406.631762 
L 73.031484 406.631762 
L 73.031484 398.149262 
L 69.963047 398.782074 
L 69.963047 396.478637 
L 73.011797 395.845824 
L 76.229297 395.845824 
L 76.229297 406.631762 
L 79.218984 406.631762 
L 79.218984 408.968949 
L 70.041797 408.968949 
z
M 86.723086 403.096449 
Q 85.775273 403.096449 85.263398 403.616762 
Q 84.754336 404.134262 84.754336 405.101762 
Q 84.754336 406.069262 85.263398 406.583949 
Q 85.775273 407.095824 86.723086 407.095824 
Q 87.665273 407.095824 88.165898 406.583949 
Q 88.666523 406.069262 88.666523 405.101762 
Q 88.666523 404.125824 88.165898 403.611137 
Q 87.665273 403.096449 86.723086 403.096449 
M 84.253711 401.982699 
Q 83.058398 401.619887 82.450898 400.874574 
Q 81.846211 400.126449 81.846211 399.009887 
Q 81.846211 397.350512 83.083711 396.481449 
Q 84.324023 395.609574 86.723086 395.609574 
Q 89.105273 395.609574 90.342773 396.475824 
Q 91.583086 397.342074 91.583086 399.009887 
Q 91.583086 400.126449 90.972773 400.874574 
Q 90.362461 401.619887 89.167148 401.982699 
Q 90.503086 402.351137 91.183711 403.180824 
Q 91.864336 404.010512 91.864336 405.276137 
Q 91.864336 407.228012 90.567773 408.226449 
Q 89.271211 409.224887 86.723086 409.224887 
Q 84.166523 409.224887 82.861523 408.226449 
Q 81.556523 407.228012 81.556523 405.276137 
Q 81.556523 404.010512 82.237148 403.180824 
Q 82.917773 402.351137 84.253711 401.982699 
M 85.044023 399.353012 
Q 85.044023 400.134887 85.479961 400.556762 
Q 85.915898 400.978637 86.723086 400.978637 
Q 87.513398 400.978637 87.943711 400.556762 
Q 88.376836 400.134887 88.376836 399.353012 
Q 88.376836 398.571137 87.943711 398.154887 
Q 87.513398 397.735824 86.723086 397.735824 
Q 85.915898 397.735824 85.479961 398.157699 
Q 85.044023 398.579574 85.044023 399.353012 
M 106.928438 403.554887 
Q 106.306875 403.554887 105.96375 404.094887 
Q 105.620625 404.634887 105.620625 405.638949 
Q 105.620625 406.648637 105.958125 407.188637 
Q 106.295625 407.728637 106.928438 407.728637 
Q 107.56125 407.728637 107.895938 407.188637 
Q 108.230625 406.648637 108.230625 405.638949 
Q 108.230625 404.634887 107.890312 404.094887 
Q 107.552813 403.554887 106.928438 403.554887 
M 106.928438 402.078324 
Q 108.565313 402.078324 109.504688 403.028949 
Q 110.444063 403.976762 110.444063 405.638949 
Q 110.444063 407.298324 109.504688 408.263012 
Q 108.565313 409.224887 106.928438 409.224887 
Q 105.294375 409.224887 104.349375 408.263012 
Q 103.404375 407.298324 103.404375 405.638949 
Q 103.404375 403.985199 104.349375 403.031762 
Q 105.294375 402.078324 106.928438 402.078324 
M 98.870625 409.224887 
L 96.927188 409.224887 
L 105.128438 395.609574 
L 107.080313 395.609574 
z
M 97.067813 395.609574 
Q 98.701875 395.609574 99.638437 396.563012 
Q 100.575 397.516449 100.575 399.178637 
Q 100.575 400.838012 99.638437 401.797074 
Q 98.701875 402.756137 97.067813 402.756137 
Q 95.43375 402.756137 94.497187 401.797074 
Q 93.560625 400.838012 93.560625 399.178637 
Q 93.560625 397.516449 94.497187 396.563012 
Q 95.43375 395.609574 97.067813 395.609574 
M 97.067813 397.086137 
Q 96.435 397.086137 96.091875 397.631762 
Q 95.74875 398.174574 95.74875 399.178637 
Q 95.74875 400.188324 96.091875 400.739574 
Q 96.435 401.288012 97.067813 401.288012 
Q 97.700625 401.288012 98.038125 400.739574 
Q 98.378438 400.188324 98.378438 399.178637 
Q 98.378438 398.174574 98.035313 397.631762 
Q 97.692188 397.086137 97.067813 397.086137 
M 112.459219 411.342699 
Q 113.584219 409.250199 114.146719 407.256137 
Q 114.709219 405.259262 114.709219 403.318637 
Q 114.709219 401.375199 114.146719 399.383949 
Q 113.584219 397.392699 112.459219 395.311449 
L 115.069219 395.311449 
Q 116.405156 397.463012 117.049219 399.437387 
Q 117.696094 401.408949 117.696094 403.335512 
Q 117.696094 405.259262 117.054844 407.216762 
Q 116.413594 409.171449 115.069219 411.342699 
z
" style="fill:#ffffff;stroke:#000000;stroke-width:5.0;"/>
    <path d="M 39.843281 406.482699 
L 45.617344 406.482699 
L 45.617344 408.968949 
L 36.080156 408.968949 
L 36.080156 406.482699 
L 40.869844 402.252699 
Q 41.513906 401.673324 41.820469 401.119262 
Q 42.127031 400.565199 42.127031 399.968949 
Q 42.127031 399.046449 41.508281 398.483949 
Q 40.889531 397.921449 39.860156 397.921449 
Q 39.069844 397.921449 38.127656 398.258949 
Q 37.188281 398.596449 36.116719 399.265824 
L 36.116719 396.383012 
Q 37.258594 396.006137 38.375156 395.809262 
Q 39.491719 395.609574 40.563281 395.609574 
Q 42.920156 395.609574 44.225156 396.647387 
Q 45.530156 397.682387 45.530156 399.538637 
Q 45.530156 400.610199 44.976094 401.538324 
Q 44.422031 402.463637 42.647344 404.021762 
z
M 53.695195 402.491762 
Q 52.806445 402.491762 52.36207 403.068324 
Q 51.917695 403.642074 51.917695 404.795199 
Q 51.917695 405.945512 52.36207 406.522074 
Q 52.806445 407.095824 53.695195 407.095824 
Q 54.58957 407.095824 55.033945 406.522074 
Q 55.47832 405.945512 55.47832 404.795199 
Q 55.47832 403.642074 55.033945 403.068324 
Q 54.58957 402.491762 53.695195 402.491762 
M 57.877383 396.188949 
L 57.877383 398.616137 
Q 57.04207 398.219574 56.302383 398.031137 
Q 55.565508 397.842699 54.862383 397.842699 
Q 53.35207 397.842699 52.50832 398.683637 
Q 51.66457 399.521762 51.523945 401.172699 
Q 52.10332 400.742387 52.77832 400.528637 
Q 53.456133 400.312074 54.257695 400.312074 
Q 56.268633 400.312074 57.50332 401.490512 
Q 58.738008 402.666137 58.738008 404.573012 
Q 58.738008 406.682387 57.35707 407.953637 
Q 55.978945 409.224887 53.658633 409.224887 
Q 51.10207 409.224887 49.698633 407.498012 
Q 48.298008 405.768324 48.298008 402.595824 
Q 48.298008 399.344574 49.937695 397.485512 
Q 51.577383 395.626449 54.43207 395.626449 
Q 55.337695 395.626449 56.189883 395.767074 
Q 57.04207 395.907699 57.877383 396.188949 
M 66.492422 411.342699 
L 63.879609 411.342699 
Q 62.535234 409.171449 61.893984 407.216762 
Q 61.252734 405.259262 61.252734 403.335512 
Q 61.252734 401.408949 61.896797 399.437387 
Q 62.543672 397.463012 63.879609 395.311449 
L 66.492422 395.311449 
Q 65.367422 397.392699 64.804922 399.383949 
Q 64.242422 401.375199 64.242422 403.318637 
Q 64.242422 405.259262 64.799297 407.256137 
Q 65.356172 409.250199 66.492422 411.342699 
M 70.041797 406.631762 
L 73.031484 406.631762 
L 73.031484 398.149262 
L 69.963047 398.782074 
L 69.963047 396.478637 
L 73.011797 395.845824 
L 76.229297 395.845824 
L 76.229297 406.631762 
L 79.218984 406.631762 
L 79.218984 408.968949 
L 70.041797 408.968949 
z
M 86.723086 403.096449 
Q 85.775273 403.096449 85.263398 403.616762 
Q 84.754336 404.134262 84.754336 405.101762 
Q 84.754336 406.069262 85.263398 406.583949 
Q 85.775273 407.095824 86.723086 407.095824 
Q 87.665273 407.095824 88.165898 406.583949 
Q 88.666523 406.069262 88.666523 405.101762 
Q 88.666523 404.125824 88.165898 403.611137 
Q 87.665273 403.096449 86.723086 403.096449 
M 84.253711 401.982699 
Q 83.058398 401.619887 82.450898 400.874574 
Q 81.846211 400.126449 81.846211 399.009887 
Q 81.846211 397.350512 83.083711 396.481449 
Q 84.324023 395.609574 86.723086 395.609574 
Q 89.105273 395.609574 90.342773 396.475824 
Q 91.583086 397.342074 91.583086 399.009887 
Q 91.583086 400.126449 90.972773 400.874574 
Q 90.362461 401.619887 89.167148 401.982699 
Q 90.503086 402.351137 91.183711 403.180824 
Q 91.864336 404.010512 91.864336 405.276137 
Q 91.864336 407.228012 90.567773 408.226449 
Q 89.271211 409.224887 86.723086 409.224887 
Q 84.166523 409.224887 82.861523 408.226449 
Q 81.556523 407.228012 81.556523 405.276137 
Q 81.556523 404.010512 82.237148 403.180824 
Q 82.917773 402.351137 84.253711 401.982699 
M 85.044023 399.353012 
Q 85.044023 400.134887 85.479961 400.556762 
Q 85.915898 400.978637 86.723086 400.978637 
Q 87.513398 400.978637 87.943711 400.556762 
Q 88.376836 400.134887 88.376836 399.353012 
Q 88.376836 398.571137 87.943711 398.154887 
Q 87.513398 397.735824 86.723086 397.735824 
Q 85.915898 397.735824 85.479961 398.157699 
Q 85.044023 398.579574 85.044023 399.353012 
M 106.928438 403.554887 
Q 106.306875 403.554887 105.96375 404.094887 
Q 105.620625 404.634887 105.620625 405.638949 
Q 105.620625 406.648637 105.958125 407.188637 
Q 106.295625 407.728637 106.928438 407.728637 
Q 107.56125 407.728637 107.895938 407.188637 
Q 108.230625 406.648637 108.230625 405.638949 
Q 108.230625 404.634887 107.890312 404.094887 
Q 107.552813 403.554887 106.928438 403.554887 
M 106.928438 402.078324 
Q 108.565313 402.078324 109.504688 403.028949 
Q 110.444063 403.976762 110.444063 405.638949 
Q 110.444063 407.298324 109.504688 408.263012 
Q 108.565313 409.224887 106.928438 409.224887 
Q 105.294375 409.224887 104.349375 408.263012 
Q 103.404375 407.298324 103.404375 405.638949 
Q 103.404375 403.985199 104.349375 403.031762 
Q 105.294375 402.078324 106.928438 402.078324 
M 98.870625 409.224887 
L 96.927188 409.224887 
L 105.128438 395.609574 
L 107.080313 395.609574 
z
M 97.067813 395.609574 
Q 98.701875 395.609574 99.638437 396.563012 
Q 100.575 397.516449 100.575 399.178637 
Q 100.575 400.838012 99.638437 401.797074 
Q 98.701875 402.756137 97.067813 402.756137 
Q 95.43375 402.756137 94.497187 401.797074 
Q 93.560625 400.838012 93.560625 399.178637 
Q 93.560625 397.516449 94.497187 396.563012 
Q 95.43375 395.609574 97.067813 395.609574 
M 97.067813 397.086137 
Q 96.435 397.086137 96.091875 397.631762 
Q 95.74875 398.174574 95.74875 399.178637 
Q 95.74875 400.188324 96.091875 400.739574 
Q 96.435 401.288012 97.067813 401.288012 
Q 97.700625 401.288012 98.038125 400.739574 
Q 98.378438 400.188324 98.378438 399.178637 
Q 98.378438 398.174574 98.035313 397.631762 
Q 97.692188 397.086137 97.067813 397.086137 
M 112.459219 411.342699 
Q 113.584219 409.250199 114.146719 407.256137 
Q 114.709219 405.259262 114.709219 403.318637 
Q 114.709219 401.375199 114.146719 399.383949 
Q 113.584219 397.392699 112.459219 395.311449 
L 115.069219 395.311449 
Q 116.405156 397.463012 117.049219 399.437387 
Q 117.696094 401.408949 117.696094 403.335512 
Q 117.696094 405.259262 117.054844 407.216762 
Q 116.413594 409.171449 115.069219 411.342699 
z
" style="fill:#ffffff;"/>
   </g>
   <g id="text_7">
    <path d="M 40.923281 198.694322 
Q 39.975469 198.694322 39.463594 199.214634 
Q 38.954531 199.732134 38.954531 200.699634 
Q 38.954531 201.667134 39.463594 202.181822 
Q 39.975469 202.693697 40.923281 202.693697 
Q 41.865469 202.693697 42.366094 202.181822 
Q 42.866719 201.667134 42.866719 200.699634 
Q 42.866719 199.723697 42.366094 199.209009 
Q 41.865469 198.694322 40.923281 198.694322 
M 38.453906 197.580572 
Q 37.258594 197.217759 36.651094 196.472447 
Q 36.046406 195.724322 36.046406 194.607759 
Q 36.046406 192.948384 37.283906 192.079322 
Q 38.524219 191.207447 40.923281 191.207447 
Q 43.305469 191.207447 44.542969 192.073697 
Q 45.783281 192.939947 45.783281 194.607759 
Q 45.783281 195.724322 45.172969 196.472447 
Q 44.562656 197.217759 43.367344 197.580572 
Q 44.703281 197.949009 45.383906 198.778697 
Q 46.064531 199.608384 46.064531 200.874009 
Q 46.064531 202.825884 44.767969 203.824322 
Q 43.471406 204.822759 40.923281 204.822759 
Q 38.366719 204.822759 37.061719 203.824322 
Q 35.756719 202.825884 35.756719 200.874009 
Q 35.756719 199.608384 36.437344 198.778697 
Q 37.117969 197.949009 38.453906 197.580572 
M 39.244219 194.950884 
Q 39.244219 195.732759 39.680156 196.154634 
Q 40.116094 196.576509 40.923281 196.576509 
Q 41.713594 196.576509 42.143906 196.154634 
Q 42.577031 195.732759 42.577031 194.950884 
Q 42.577031 194.169009 42.143906 193.752759 
Q 41.713594 193.333697 40.923281 193.333697 
Q 40.116094 193.333697 39.680156 193.755572 
Q 39.244219 194.177447 39.244219 194.950884 
M 55.565508 197.490572 
Q 56.893008 197.833697 57.58207 198.683072 
Q 58.273945 199.529634 58.273945 200.840259 
Q 58.273945 202.792134 56.777695 203.807447 
Q 55.284258 204.822759 52.421133 204.822759 
Q 51.408633 204.822759 50.39332 204.659634 
Q 49.378008 204.496509 48.385195 204.170259 
L 48.385195 201.560259 
Q 49.33582 202.035572 50.26957 202.277447 
Q 51.206133 202.519322 52.111758 202.519322 
Q 53.456133 202.519322 54.17332 202.055259 
Q 54.890508 201.588384 54.890508 200.716509 
Q 54.890508 199.819322 54.156445 199.358072 
Q 53.422383 198.896822 51.988008 198.896822 
L 50.635195 198.896822 
L 50.635195 196.717134 
L 52.05832 196.717134 
Q 53.335195 196.717134 53.956758 196.317759 
Q 54.581133 195.918384 54.581133 195.099947 
Q 54.581133 194.346197 53.973633 193.932759 
Q 53.368945 193.519322 52.26082 193.519322 
Q 51.445195 193.519322 50.609883 193.704947 
Q 49.77457 193.887759 48.947695 194.247759 
L 48.947695 191.769947 
Q 49.948945 191.488697 50.93332 191.348072 
Q 51.917695 191.207447 52.86832 191.207447 
Q 55.424883 191.207447 56.69332 192.048384 
Q 57.96457 192.886509 57.96457 194.574009 
Q 57.96457 195.724322 57.35707 196.458384 
Q 56.752383 197.192447 55.565508 197.490572 
M 66.492422 206.940572 
L 63.879609 206.940572 
Q 62.535234 204.769322 61.893984 202.814634 
Q 61.252734 200.857134 61.252734 198.933384 
Q 61.252734 197.006822 61.896797 195.035259 
Q 62.543672 193.060884 63.879609 190.909322 
L 66.492422 190.909322 
Q 65.367422 192.990572 64.804922 194.981822 
Q 64.242422 196.973072 64.242422 198.916509 
Q 64.242422 200.857134 64.799297 202.854009 
Q 65.356172 204.848072 66.492422 206.940572 
M 69.839297 191.443697 
L 78.251484 191.443697 
L 78.251484 193.932759 
L 72.539297 193.932759 
L 72.539297 195.963384 
Q 72.924609 195.856509 73.315547 195.800259 
Q 73.706484 195.741197 74.128359 195.741197 
Q 76.527422 195.741197 77.863359 196.942134 
Q 79.199297 198.143072 79.199297 200.286197 
Q 79.199297 202.412447 77.745234 203.619009 
Q 76.291172 204.822759 73.706484 204.822759 
Q 72.589922 204.822759 71.495859 204.606197 
Q 70.401797 204.389634 69.321797 203.950884 
L 69.321797 201.287447 
Q 70.393359 201.903384 71.355234 202.212759 
Q 72.317109 202.519322 73.172109 202.519322 
Q 74.401172 202.519322 75.107109 201.917447 
Q 75.815859 201.315572 75.815859 200.286197 
Q 75.815859 199.248384 75.107109 198.652134 
Q 74.401172 198.053072 73.172109 198.053072 
Q 72.440859 198.053072 71.613984 198.244322 
Q 70.789922 198.432759 69.839297 198.826509 
z
M 86.723086 198.694322 
Q 85.775273 198.694322 85.263398 199.214634 
Q 84.754336 199.732134 84.754336 200.699634 
Q 84.754336 201.667134 85.263398 202.181822 
Q 85.775273 202.693697 86.723086 202.693697 
Q 87.665273 202.693697 88.165898 202.181822 
Q 88.666523 201.667134 88.666523 200.699634 
Q 88.666523 199.723697 88.165898 199.209009 
Q 87.665273 198.694322 86.723086 198.694322 
M 84.253711 197.580572 
Q 83.058398 197.217759 82.450898 196.472447 
Q 81.846211 195.724322 81.846211 194.607759 
Q 81.846211 192.948384 83.083711 192.079322 
Q 84.324023 191.207447 86.723086 191.207447 
Q 89.105273 191.207447 90.342773 192.073697 
Q 91.583086 192.939947 91.583086 194.607759 
Q 91.583086 195.724322 90.972773 196.472447 
Q 90.362461 197.217759 89.167148 197.580572 
Q 90.503086 197.949009 91.183711 198.778697 
Q 91.864336 199.608384 91.864336 200.874009 
Q 91.864336 202.825884 90.567773 203.824322 
Q 89.271211 204.822759 86.723086 204.822759 
Q 84.166523 204.822759 82.861523 203.824322 
Q 81.556523 202.825884 81.556523 200.874009 
Q 81.556523 199.608384 82.237148 198.778697 
Q 82.917773 197.949009 84.253711 197.580572 
M 85.044023 194.950884 
Q 85.044023 195.732759 85.479961 196.154634 
Q 85.915898 196.576509 86.723086 196.576509 
Q 87.513398 196.576509 87.943711 196.154634 
Q 88.376836 195.732759 88.376836 194.950884 
Q 88.376836 194.169009 87.943711 193.752759 
Q 87.513398 193.333697 86.723086 193.333697 
Q 85.915898 193.333697 85.479961 193.755572 
Q 85.044023 194.177447 85.044023 194.950884 
M 106.928438 199.152759 
Q 106.306875 199.152759 105.96375 199.692759 
Q 105.620625 200.232759 105.620625 201.236822 
Q 105.620625 202.246509 105.958125 202.786509 
Q 106.295625 203.326509 106.928438 203.326509 
Q 107.56125 203.326509 107.895938 202.786509 
Q 108.230625 202.246509 108.230625 201.236822 
Q 108.230625 200.232759 107.890312 199.692759 
Q 107.552813 199.152759 106.928438 199.152759 
M 106.928438 197.676197 
Q 108.565313 197.676197 109.504688 198.626822 
Q 110.444063 199.574634 110.444063 201.236822 
Q 110.444063 202.896197 109.504688 203.860884 
Q 108.565313 204.822759 106.928438 204.822759 
Q 105.294375 204.822759 104.349375 203.860884 
Q 103.404375 202.896197 103.404375 201.236822 
Q 103.404375 199.583072 104.349375 198.629634 
Q 105.294375 197.676197 106.928438 197.676197 
M 98.870625 204.822759 
L 96.927188 204.822759 
L 105.128438 191.207447 
L 107.080313 191.207447 
z
M 97.067813 191.207447 
Q 98.701875 191.207447 99.638437 192.160884 
Q 100.575 193.114322 100.575 194.776509 
Q 100.575 196.435884 99.638437 197.394947 
Q 98.701875 198.354009 97.067813 198.354009 
Q 95.43375 198.354009 94.497187 197.394947 
Q 93.560625 196.435884 93.560625 194.776509 
Q 93.560625 193.114322 94.497187 192.160884 
Q 95.43375 191.207447 97.067813 191.207447 
M 97.067813 192.684009 
Q 96.435 192.684009 96.091875 193.229634 
Q 95.74875 193.772447 95.74875 194.776509 
Q 95.74875 195.786197 96.091875 196.337447 
Q 96.435 196.885884 97.067813 196.885884 
Q 97.700625 196.885884 98.038125 196.337447 
Q 98.378438 195.786197 98.378438 194.776509 
Q 98.378438 193.772447 98.035313 193.229634 
Q 97.692188 192.684009 97.067813 192.684009 
M 112.459219 206.940572 
Q 113.584219 204.848072 114.146719 202.854009 
Q 114.709219 200.857134 114.709219 198.916509 
Q 114.709219 196.973072 114.146719 194.981822 
Q 113.584219 192.990572 112.459219 190.909322 
L 115.069219 190.909322 
Q 116.405156 193.060884 117.049219 195.035259 
Q 117.696094 197.006822 117.696094 198.933384 
Q 117.696094 200.857134 117.054844 202.814634 
Q 116.413594 204.769322 115.069219 206.940572 
z
" style="fill:#ffffff;stroke:#000000;stroke-width:5.0;"/>
    <path d="M 40.923281 198.694322 
Q 39.975469 198.694322 39.463594 199.214634 
Q 38.954531 199.732134 38.954531 200.699634 
Q 38.954531 201.667134 39.463594 202.181822 
Q 39.975469 202.693697 40.923281 202.693697 
Q 41.865469 202.693697 42.366094 202.181822 
Q 42.866719 201.667134 42.866719 200.699634 
Q 42.866719 199.723697 42.366094 199.209009 
Q 41.865469 198.694322 40.923281 198.694322 
M 38.453906 197.580572 
Q 37.258594 197.217759 36.651094 196.472447 
Q 36.046406 195.724322 36.046406 194.607759 
Q 36.046406 192.948384 37.283906 192.079322 
Q 38.524219 191.207447 40.923281 191.207447 
Q 43.305469 191.207447 44.542969 192.073697 
Q 45.783281 192.939947 45.783281 194.607759 
Q 45.783281 195.724322 45.172969 196.472447 
Q 44.562656 197.217759 43.367344 197.580572 
Q 44.703281 197.949009 45.383906 198.778697 
Q 46.064531 199.608384 46.064531 200.874009 
Q 46.064531 202.825884 44.767969 203.824322 
Q 43.471406 204.822759 40.923281 204.822759 
Q 38.366719 204.822759 37.061719 203.824322 
Q 35.756719 202.825884 35.756719 200.874009 
Q 35.756719 199.608384 36.437344 198.778697 
Q 37.117969 197.949009 38.453906 197.580572 
M 39.244219 194.950884 
Q 39.244219 195.732759 39.680156 196.154634 
Q 40.116094 196.576509 40.923281 196.576509 
Q 41.713594 196.576509 42.143906 196.154634 
Q 42.577031 195.732759 42.577031 194.950884 
Q 42.577031 194.169009 42.143906 193.752759 
Q 41.713594 193.333697 40.923281 193.333697 
Q 40.116094 193.333697 39.680156 193.755572 
Q 39.244219 194.177447 39.244219 194.950884 
M 55.565508 197.490572 
Q 56.893008 197.833697 57.58207 198.683072 
Q 58.273945 199.529634 58.273945 200.840259 
Q 58.273945 202.792134 56.777695 203.807447 
Q 55.284258 204.822759 52.421133 204.822759 
Q 51.408633 204.822759 50.39332 204.659634 
Q 49.378008 204.496509 48.385195 204.170259 
L 48.385195 201.560259 
Q 49.33582 202.035572 50.26957 202.277447 
Q 51.206133 202.519322 52.111758 202.519322 
Q 53.456133 202.519322 54.17332 202.055259 
Q 54.890508 201.588384 54.890508 200.716509 
Q 54.890508 199.819322 54.156445 199.358072 
Q 53.422383 198.896822 51.988008 198.896822 
L 50.635195 198.896822 
L 50.635195 196.717134 
L 52.05832 196.717134 
Q 53.335195 196.717134 53.956758 196.317759 
Q 54.581133 195.918384 54.581133 195.099947 
Q 54.581133 194.346197 53.973633 193.932759 
Q 53.368945 193.519322 52.26082 193.519322 
Q 51.445195 193.519322 50.609883 193.704947 
Q 49.77457 193.887759 48.947695 194.247759 
L 48.947695 191.769947 
Q 49.948945 191.488697 50.93332 191.348072 
Q 51.917695 191.207447 52.86832 191.207447 
Q 55.424883 191.207447 56.69332 192.048384 
Q 57.96457 192.886509 57.96457 194.574009 
Q 57.96457 195.724322 57.35707 196.458384 
Q 56.752383 197.192447 55.565508 197.490572 
M 66.492422 206.940572 
L 63.879609 206.940572 
Q 62.535234 204.769322 61.893984 202.814634 
Q 61.252734 200.857134 61.252734 198.933384 
Q 61.252734 197.006822 61.896797 195.035259 
Q 62.543672 193.060884 63.879609 190.909322 
L 66.492422 190.909322 
Q 65.367422 192.990572 64.804922 194.981822 
Q 64.242422 196.973072 64.242422 198.916509 
Q 64.242422 200.857134 64.799297 202.854009 
Q 65.356172 204.848072 66.492422 206.940572 
M 69.839297 191.443697 
L 78.251484 191.443697 
L 78.251484 193.932759 
L 72.539297 193.932759 
L 72.539297 195.963384 
Q 72.924609 195.856509 73.315547 195.800259 
Q 73.706484 195.741197 74.128359 195.741197 
Q 76.527422 195.741197 77.863359 196.942134 
Q 79.199297 198.143072 79.199297 200.286197 
Q 79.199297 202.412447 77.745234 203.619009 
Q 76.291172 204.822759 73.706484 204.822759 
Q 72.589922 204.822759 71.495859 204.606197 
Q 70.401797 204.389634 69.321797 203.950884 
L 69.321797 201.287447 
Q 70.393359 201.903384 71.355234 202.212759 
Q 72.317109 202.519322 73.172109 202.519322 
Q 74.401172 202.519322 75.107109 201.917447 
Q 75.815859 201.315572 75.815859 200.286197 
Q 75.815859 199.248384 75.107109 198.652134 
Q 74.401172 198.053072 73.172109 198.053072 
Q 72.440859 198.053072 71.613984 198.244322 
Q 70.789922 198.432759 69.839297 198.826509 
z
M 86.723086 198.694322 
Q 85.775273 198.694322 85.263398 199.214634 
Q 84.754336 199.732134 84.754336 200.699634 
Q 84.754336 201.667134 85.263398 202.181822 
Q 85.775273 202.693697 86.723086 202.693697 
Q 87.665273 202.693697 88.165898 202.181822 
Q 88.666523 201.667134 88.666523 200.699634 
Q 88.666523 199.723697 88.165898 199.209009 
Q 87.665273 198.694322 86.723086 198.694322 
M 84.253711 197.580572 
Q 83.058398 197.217759 82.450898 196.472447 
Q 81.846211 195.724322 81.846211 194.607759 
Q 81.846211 192.948384 83.083711 192.079322 
Q 84.324023 191.207447 86.723086 191.207447 
Q 89.105273 191.207447 90.342773 192.073697 
Q 91.583086 192.939947 91.583086 194.607759 
Q 91.583086 195.724322 90.972773 196.472447 
Q 90.362461 197.217759 89.167148 197.580572 
Q 90.503086 197.949009 91.183711 198.778697 
Q 91.864336 199.608384 91.864336 200.874009 
Q 91.864336 202.825884 90.567773 203.824322 
Q 89.271211 204.822759 86.723086 204.822759 
Q 84.166523 204.822759 82.861523 203.824322 
Q 81.556523 202.825884 81.556523 200.874009 
Q 81.556523 199.608384 82.237148 198.778697 
Q 82.917773 197.949009 84.253711 197.580572 
M 85.044023 194.950884 
Q 85.044023 195.732759 85.479961 196.154634 
Q 85.915898 196.576509 86.723086 196.576509 
Q 87.513398 196.576509 87.943711 196.154634 
Q 88.376836 195.732759 88.376836 194.950884 
Q 88.376836 194.169009 87.943711 193.752759 
Q 87.513398 193.333697 86.723086 193.333697 
Q 85.915898 193.333697 85.479961 193.755572 
Q 85.044023 194.177447 85.044023 194.950884 
M 106.928438 199.152759 
Q 106.306875 199.152759 105.96375 199.692759 
Q 105.620625 200.232759 105.620625 201.236822 
Q 105.620625 202.246509 105.958125 202.786509 
Q 106.295625 203.326509 106.928438 203.326509 
Q 107.56125 203.326509 107.895938 202.786509 
Q 108.230625 202.246509 108.230625 201.236822 
Q 108.230625 200.232759 107.890312 199.692759 
Q 107.552813 199.152759 106.928438 199.152759 
M 106.928438 197.676197 
Q 108.565313 197.676197 109.504688 198.626822 
Q 110.444063 199.574634 110.444063 201.236822 
Q 110.444063 202.896197 109.504688 203.860884 
Q 108.565313 204.822759 106.928438 204.822759 
Q 105.294375 204.822759 104.349375 203.860884 
Q 103.404375 202.896197 103.404375 201.236822 
Q 103.404375 199.583072 104.349375 198.629634 
Q 105.294375 197.676197 106.928438 197.676197 
M 98.870625 204.822759 
L 96.927188 204.822759 
L 105.128438 191.207447 
L 107.080313 191.207447 
z
M 97.067813 191.207447 
Q 98.701875 191.207447 99.638437 192.160884 
Q 100.575 193.114322 100.575 194.776509 
Q 100.575 196.435884 99.638437 197.394947 
Q 98.701875 198.354009 97.067813 198.354009 
Q 95.43375 198.354009 94.497187 197.394947 
Q 93.560625 196.435884 93.560625 194.776509 
Q 93.560625 193.114322 94.497187 192.160884 
Q 95.43375 191.207447 97.067813 191.207447 
M 97.067813 192.684009 
Q 96.435 192.684009 96.091875 193.229634 
Q 95.74875 193.772447 95.74875 194.776509 
Q 95.74875 195.786197 96.091875 196.337447 
Q 96.435 196.885884 97.067813 196.885884 
Q 97.700625 196.885884 98.038125 196.337447 
Q 98.378438 195.786197 98.378438 194.776509 
Q 98.378438 193.772447 98.035313 193.229634 
Q 97.692188 192.684009 97.067813 192.684009 
M 112.459219 206.940572 
Q 113.584219 204.848072 114.146719 202.854009 
Q 114.709219 200.857134 114.709219 198.916509 
Q 114.709219 196.973072 114.146719 194.981822 
Q 113.584219 192.990572 112.459219 190.909322 
L 115.069219 190.909322 
Q 116.405156 193.060884 117.049219 195.035259 
Q 117.696094 197.006822 117.696094 198.933384 
Q 117.696094 200.857134 117.054844 202.814634 
Q 116.413594 204.769322 115.069219 206.940572 
z
" style="fill:#ffffff;"/>
   </g>
  </g>
 </g>
 <defs>
  <clipPath id="pd929c8aded">
   <rect height="558.0" width="139.5" x="7.2" y="27.6528125"/>
  </clipPath>
 </defs>
</svg>
